%TF.GenerationSoftware,KiCad,Pcbnew,9.0.7*%
%TF.CreationDate,2026-04-14T12:30:23-04:00*%
%TF.ProjectId,camara-diy,63616d61-7261-42d6-9469-792e6b696361,rev?*%
%TF.SameCoordinates,Original*%
%TF.FileFunction,Legend,Top*%
%TF.FilePolarity,Positive*%
%FSLAX46Y46*%
G04 Gerber Fmt 4.6, Leading zero omitted, Abs format (unit mm)*
G04 Created by KiCad (PCBNEW 9.0.7) date 2026-04-14 12:30:23*
%MOMM*%
%LPD*%
G01*
G04 APERTURE LIST*
%ADD10C,0.000000*%
%ADD11C,0.150000*%
%ADD12C,0.120000*%
%ADD13C,0.100000*%
%ADD14C,0.127000*%
%ADD15C,0.200000*%
G04 APERTURE END LIST*
D10*
G36*
X144516214Y-114294157D02*
G01*
X144309839Y-114286219D01*
X144305341Y-114099159D01*
X144501661Y-114084607D01*
X144516214Y-114294157D01*
G37*
G36*
X144510657Y-115483723D02*
G01*
X144322274Y-115483723D01*
X144322274Y-114478571D01*
X144510657Y-114478571D01*
X144510657Y-115483723D01*
G37*
G36*
X146112642Y-113237493D02*
G01*
X146124850Y-113238338D01*
X146137088Y-113239772D01*
X146149348Y-113241807D01*
X146161621Y-113244456D01*
X146173898Y-113247729D01*
X146186172Y-113251638D01*
X146198434Y-113256197D01*
X146202932Y-113404893D01*
X146202086Y-113410720D01*
X146199239Y-113415668D01*
X146194524Y-113419834D01*
X146188072Y-113423317D01*
X146180016Y-113426215D01*
X146170488Y-113428627D01*
X146147547Y-113432384D01*
X146089827Y-113438388D01*
X146057165Y-113442208D01*
X146023379Y-113447623D01*
X145989528Y-113455418D01*
X145972909Y-113460455D01*
X145956671Y-113466382D01*
X145940945Y-113473298D01*
X145925865Y-113481301D01*
X145911562Y-113490489D01*
X145898169Y-113500961D01*
X145885819Y-113512815D01*
X145874643Y-113526150D01*
X145864773Y-113541063D01*
X145856343Y-113557653D01*
X145849484Y-113576019D01*
X145844329Y-113596259D01*
X145841010Y-113618470D01*
X145839659Y-113642753D01*
X145831457Y-114264788D01*
X145630639Y-114267434D01*
X145630638Y-114267434D01*
X145629845Y-113272865D01*
X145822461Y-113256990D01*
X145841512Y-113373142D01*
X145859257Y-113353380D01*
X145877923Y-113334834D01*
X145897441Y-113317601D01*
X145917745Y-113301775D01*
X145938768Y-113287452D01*
X145960444Y-113274725D01*
X145982706Y-113263691D01*
X145994036Y-113258838D01*
X146005487Y-113254444D01*
X146017051Y-113250520D01*
X146028721Y-113247079D01*
X146040487Y-113244132D01*
X146052341Y-113241691D01*
X146064275Y-113239768D01*
X146076280Y-113238374D01*
X146088349Y-113237523D01*
X146100472Y-113237225D01*
X146112642Y-113237493D01*
G37*
G36*
X150353715Y-114100482D02*
G01*
X150361917Y-114389407D01*
X150590252Y-114396022D01*
X150571731Y-114528049D01*
X150355832Y-114534399D01*
X150360330Y-115190565D01*
X150363393Y-115194419D01*
X150366729Y-115198095D01*
X150370334Y-115201597D01*
X150374207Y-115204928D01*
X150378344Y-115208093D01*
X150382743Y-115211095D01*
X150387403Y-115213936D01*
X150392319Y-115216622D01*
X150397491Y-115219156D01*
X150402915Y-115221541D01*
X150408590Y-115223781D01*
X150414512Y-115225879D01*
X150427090Y-115229666D01*
X150440631Y-115232931D01*
X150455113Y-115235703D01*
X150470519Y-115238012D01*
X150486829Y-115239885D01*
X150504023Y-115241352D01*
X150522082Y-115242443D01*
X150540987Y-115243187D01*
X150560718Y-115243611D01*
X150581256Y-115243746D01*
X150588930Y-115385299D01*
X150325141Y-115385828D01*
X150317595Y-115385531D01*
X150310049Y-115384657D01*
X150302519Y-115383228D01*
X150295020Y-115381266D01*
X150287568Y-115378793D01*
X150280178Y-115375832D01*
X150272865Y-115372405D01*
X150265647Y-115368535D01*
X150258537Y-115364243D01*
X150251551Y-115359552D01*
X150244706Y-115354484D01*
X150238016Y-115349063D01*
X150231497Y-115343309D01*
X150225165Y-115337245D01*
X150219035Y-115330895D01*
X150213123Y-115324279D01*
X150207444Y-115317421D01*
X150202014Y-115310342D01*
X150196848Y-115303066D01*
X150191963Y-115295614D01*
X150187373Y-115288008D01*
X150183094Y-115280272D01*
X150179141Y-115272427D01*
X150175531Y-115264496D01*
X150172279Y-115256501D01*
X150169399Y-115248464D01*
X150166909Y-115240408D01*
X150164823Y-115232355D01*
X150163157Y-115224327D01*
X150161927Y-115216347D01*
X150161147Y-115208437D01*
X150160834Y-115200619D01*
X150155542Y-114533870D01*
X150109472Y-114533005D01*
X150086561Y-114532051D01*
X150064790Y-114530331D01*
X150054581Y-114529085D01*
X150044955Y-114527531D01*
X150036011Y-114525629D01*
X150027848Y-114523340D01*
X150020566Y-114520624D01*
X150014263Y-114517443D01*
X150011510Y-114515666D01*
X150009040Y-114513757D01*
X150006864Y-114511713D01*
X150004995Y-114509528D01*
X150003103Y-114506707D01*
X150001440Y-114503521D01*
X150000000Y-114500000D01*
X149998773Y-114496174D01*
X149997753Y-114492071D01*
X149996932Y-114487721D01*
X149995854Y-114478398D01*
X149995479Y-114468439D01*
X149995744Y-114458080D01*
X149996588Y-114447555D01*
X149997950Y-114437098D01*
X149999768Y-114426946D01*
X150001979Y-114417332D01*
X150004523Y-114408492D01*
X150007339Y-114400660D01*
X150010363Y-114394072D01*
X150013535Y-114388962D01*
X150015157Y-114387034D01*
X150016793Y-114385565D01*
X150018435Y-114384582D01*
X150020076Y-114384115D01*
X150158188Y-114389407D01*
X150210840Y-114091751D01*
X150353715Y-114100482D01*
G37*
G36*
X153263318Y-113425857D02*
G01*
X153297959Y-113428047D01*
X153332405Y-113432152D01*
X153366444Y-113438055D01*
X153399864Y-113445638D01*
X153424128Y-113452515D01*
X153447355Y-113460579D01*
X153469465Y-113469882D01*
X153490376Y-113480477D01*
X153500356Y-113486275D01*
X153510006Y-113492416D01*
X153519316Y-113498905D01*
X153528274Y-113505751D01*
X153536872Y-113512959D01*
X153545099Y-113520535D01*
X153552945Y-113528487D01*
X153560400Y-113536820D01*
X153567453Y-113545542D01*
X153574094Y-113554659D01*
X153580313Y-113564177D01*
X153586100Y-113574103D01*
X153591445Y-113584444D01*
X153596338Y-113595206D01*
X153600768Y-113606395D01*
X153604726Y-113618019D01*
X153608200Y-113630083D01*
X153611181Y-113642594D01*
X153613659Y-113655559D01*
X153615624Y-113668984D01*
X153617065Y-113682877D01*
X153617972Y-113697242D01*
X153618335Y-113712088D01*
X153618145Y-113727420D01*
X153442197Y-113725039D01*
X153438575Y-113711752D01*
X153434373Y-113699125D01*
X153429613Y-113687150D01*
X153424318Y-113675821D01*
X153418509Y-113665133D01*
X153412210Y-113655078D01*
X153405443Y-113645651D01*
X153398231Y-113636845D01*
X153390596Y-113628655D01*
X153382560Y-113621073D01*
X153374147Y-113614094D01*
X153365379Y-113607711D01*
X153356277Y-113601918D01*
X153346866Y-113596709D01*
X153337167Y-113592077D01*
X153327203Y-113588017D01*
X153316996Y-113584522D01*
X153306569Y-113581586D01*
X153295944Y-113579203D01*
X153285145Y-113577365D01*
X153274193Y-113576068D01*
X153263111Y-113575305D01*
X153251921Y-113575069D01*
X153240647Y-113575355D01*
X153229310Y-113576155D01*
X153217933Y-113577465D01*
X153206539Y-113579277D01*
X153195150Y-113581585D01*
X153183789Y-113584384D01*
X153172478Y-113587666D01*
X153161240Y-113591426D01*
X153150097Y-113595657D01*
X153146733Y-113597126D01*
X153143293Y-113598846D01*
X153136235Y-113602985D01*
X153129010Y-113607970D01*
X153121704Y-113613699D01*
X153114404Y-113620065D01*
X153107197Y-113626967D01*
X153100170Y-113634300D01*
X153093410Y-113641959D01*
X153087003Y-113649842D01*
X153081037Y-113657845D01*
X153075597Y-113665863D01*
X153070772Y-113673792D01*
X153066647Y-113681529D01*
X153063309Y-113688970D01*
X153061963Y-113692548D01*
X153060847Y-113696012D01*
X153059970Y-113699350D01*
X153059345Y-113702549D01*
X153058970Y-113706207D01*
X153058976Y-113710028D01*
X153059346Y-113713994D01*
X153060064Y-113718090D01*
X153061113Y-113722300D01*
X153062478Y-113726607D01*
X153064141Y-113730995D01*
X153066088Y-113735448D01*
X153070763Y-113744485D01*
X153076372Y-113753588D01*
X153082785Y-113762627D01*
X153089871Y-113771473D01*
X153097500Y-113779997D01*
X153105541Y-113788068D01*
X153113863Y-113795559D01*
X153122337Y-113802338D01*
X153130830Y-113808278D01*
X153139213Y-113813247D01*
X153143322Y-113815328D01*
X153147354Y-113817118D01*
X153151294Y-113818600D01*
X153155124Y-113819759D01*
X153406214Y-113885641D01*
X153429978Y-113892553D01*
X153452898Y-113900581D01*
X153474891Y-113909713D01*
X153495874Y-113919937D01*
X153515766Y-113931240D01*
X153534485Y-113943609D01*
X153551947Y-113957033D01*
X153568072Y-113971498D01*
X153582777Y-113986992D01*
X153589571Y-113995122D01*
X153595979Y-114003504D01*
X153601992Y-114012137D01*
X153607598Y-114021020D01*
X153612787Y-114030151D01*
X153617549Y-114039529D01*
X153621874Y-114049151D01*
X153625752Y-114059017D01*
X153629172Y-114069125D01*
X153632124Y-114079473D01*
X153634597Y-114090059D01*
X153636583Y-114100883D01*
X153638069Y-114111943D01*
X153639046Y-114123236D01*
X153639965Y-114147880D01*
X153639489Y-114172325D01*
X153637532Y-114196460D01*
X153634007Y-114220173D01*
X153628828Y-114243353D01*
X153621908Y-114265888D01*
X153613161Y-114287667D01*
X153608076Y-114298237D01*
X153602501Y-114308577D01*
X153596426Y-114318672D01*
X153589841Y-114328508D01*
X153582734Y-114338071D01*
X153575094Y-114347347D01*
X153566912Y-114356322D01*
X153558175Y-114364983D01*
X153548874Y-114373315D01*
X153538997Y-114381304D01*
X153528533Y-114388937D01*
X153517473Y-114396200D01*
X153505804Y-114403077D01*
X153493517Y-114409557D01*
X153480600Y-114415624D01*
X153467042Y-114421265D01*
X153452833Y-114426465D01*
X153437963Y-114431211D01*
X153438493Y-114430946D01*
X153423907Y-114434924D01*
X153408409Y-114438437D01*
X153392125Y-114441502D01*
X153375179Y-114444138D01*
X153357694Y-114446364D01*
X153339796Y-114448196D01*
X153303257Y-114450757D01*
X153266557Y-114451966D01*
X153230691Y-114451968D01*
X153196654Y-114450911D01*
X153165442Y-114448938D01*
X153148670Y-114447248D01*
X153132244Y-114444960D01*
X153116171Y-114442083D01*
X153100460Y-114438622D01*
X153085121Y-114434586D01*
X153070162Y-114429981D01*
X153055592Y-114424814D01*
X153041419Y-114419094D01*
X153027653Y-114412827D01*
X153014301Y-114406020D01*
X153001373Y-114398681D01*
X152988877Y-114390816D01*
X152976822Y-114382434D01*
X152965217Y-114373540D01*
X152954071Y-114364144D01*
X152943391Y-114354250D01*
X152933188Y-114343868D01*
X152923469Y-114333004D01*
X152914244Y-114321665D01*
X152905521Y-114309859D01*
X152897308Y-114297592D01*
X152889616Y-114284873D01*
X152882451Y-114271707D01*
X152875823Y-114258103D01*
X152869742Y-114244068D01*
X152864214Y-114229608D01*
X152859250Y-114214732D01*
X152854857Y-114199446D01*
X152851045Y-114183757D01*
X152847823Y-114167673D01*
X152845198Y-114151201D01*
X152843180Y-114134348D01*
X153023890Y-114137524D01*
X153029114Y-114150076D01*
X153034614Y-114162090D01*
X153040391Y-114173568D01*
X153046443Y-114184516D01*
X153052770Y-114194939D01*
X153059370Y-114204840D01*
X153066245Y-114214226D01*
X153073392Y-114223100D01*
X153080811Y-114231467D01*
X153088502Y-114239331D01*
X153096463Y-114246698D01*
X153104694Y-114253572D01*
X153113195Y-114259958D01*
X153121964Y-114265860D01*
X153131002Y-114271283D01*
X153140307Y-114276231D01*
X153149878Y-114280710D01*
X153159715Y-114284724D01*
X153169818Y-114288277D01*
X153180185Y-114291375D01*
X153190817Y-114294021D01*
X153201711Y-114296221D01*
X153212868Y-114297979D01*
X153224287Y-114299300D01*
X153235967Y-114300188D01*
X153247908Y-114300649D01*
X153260109Y-114300686D01*
X153272568Y-114300304D01*
X153285287Y-114299509D01*
X153298263Y-114298304D01*
X153311496Y-114296695D01*
X153324986Y-114294686D01*
X153333098Y-114293072D01*
X153341686Y-114290840D01*
X153350643Y-114288036D01*
X153359861Y-114284706D01*
X153369235Y-114280896D01*
X153378657Y-114276650D01*
X153388020Y-114272015D01*
X153397217Y-114267037D01*
X153406141Y-114261761D01*
X153414686Y-114256234D01*
X153422743Y-114250500D01*
X153430207Y-114244605D01*
X153436970Y-114238596D01*
X153442926Y-114232518D01*
X153447966Y-114226417D01*
X153450110Y-114223372D01*
X153451986Y-114220338D01*
X153453875Y-114216525D01*
X153455434Y-114212347D01*
X153456670Y-114207835D01*
X153457595Y-114203018D01*
X153458217Y-114197926D01*
X153458546Y-114192589D01*
X153458364Y-114181296D01*
X153457127Y-114169376D01*
X153454911Y-114157068D01*
X153451793Y-114144607D01*
X153447851Y-114132232D01*
X153443162Y-114120179D01*
X153437803Y-114108686D01*
X153431851Y-114097990D01*
X153425383Y-114088328D01*
X153421979Y-114083959D01*
X153418476Y-114079937D01*
X153414882Y-114076292D01*
X153411207Y-114073054D01*
X153407462Y-114070253D01*
X153403654Y-114067917D01*
X153399795Y-114066078D01*
X153395894Y-114064763D01*
X153095857Y-113983801D01*
X153081813Y-113979596D01*
X153067449Y-113974469D01*
X153052888Y-113968491D01*
X153038256Y-113961733D01*
X153023679Y-113954265D01*
X153009281Y-113946157D01*
X152995187Y-113937480D01*
X152981524Y-113928305D01*
X152968415Y-113918701D01*
X152955987Y-113908741D01*
X152944364Y-113898494D01*
X152933672Y-113888030D01*
X152924035Y-113877421D01*
X152915579Y-113866736D01*
X152908429Y-113856047D01*
X152902711Y-113845424D01*
X152897216Y-113832249D01*
X152892448Y-113817939D01*
X152888420Y-113802660D01*
X152885146Y-113786579D01*
X152882639Y-113769862D01*
X152880913Y-113752676D01*
X152879982Y-113735188D01*
X152879858Y-113717564D01*
X152880557Y-113699971D01*
X152882090Y-113682576D01*
X152884473Y-113665545D01*
X152887717Y-113649045D01*
X152891838Y-113633243D01*
X152896848Y-113618305D01*
X152902761Y-113604398D01*
X152909591Y-113591688D01*
X152919506Y-113576291D01*
X152930035Y-113561739D01*
X152941151Y-113548018D01*
X152952828Y-113535113D01*
X152965039Y-113523011D01*
X152977758Y-113511695D01*
X152990958Y-113501152D01*
X153004613Y-113491366D01*
X153018697Y-113482323D01*
X153033182Y-113474008D01*
X153048042Y-113466408D01*
X153063251Y-113459506D01*
X153078783Y-113453288D01*
X153094610Y-113447740D01*
X153110706Y-113442847D01*
X153127045Y-113438594D01*
X153143601Y-113434966D01*
X153160346Y-113431950D01*
X153194300Y-113427691D01*
X153228694Y-113425699D01*
X153263318Y-113425857D01*
G37*
G36*
X147127650Y-113262017D02*
G01*
X147128133Y-113274447D01*
X147129412Y-113286436D01*
X147131452Y-113297984D01*
X147134223Y-113309094D01*
X147137691Y-113319765D01*
X147141825Y-113330000D01*
X147146590Y-113339798D01*
X147151955Y-113349160D01*
X147157887Y-113358088D01*
X147164353Y-113366583D01*
X147171322Y-113374645D01*
X147178759Y-113382275D01*
X147186633Y-113389474D01*
X147194911Y-113396244D01*
X147203560Y-113402585D01*
X147212549Y-113408497D01*
X147221843Y-113413983D01*
X147231411Y-113419042D01*
X147241220Y-113423676D01*
X147251237Y-113427886D01*
X147261430Y-113431672D01*
X147271767Y-113435036D01*
X147282213Y-113437978D01*
X147292738Y-113440499D01*
X147303308Y-113442601D01*
X147313891Y-113444284D01*
X147324454Y-113445549D01*
X147334964Y-113446397D01*
X147345390Y-113446829D01*
X147355698Y-113446846D01*
X147365855Y-113446449D01*
X147375830Y-113445638D01*
X147387020Y-113444218D01*
X147397965Y-113442342D01*
X147408656Y-113440017D01*
X147419088Y-113437250D01*
X147429253Y-113434048D01*
X147439143Y-113430416D01*
X147448753Y-113426362D01*
X147458074Y-113421892D01*
X147467100Y-113417013D01*
X147475823Y-113411731D01*
X147484237Y-113406053D01*
X147492334Y-113399985D01*
X147500108Y-113393535D01*
X147507551Y-113386708D01*
X147514656Y-113379511D01*
X147521417Y-113371952D01*
X147527825Y-113364035D01*
X147533875Y-113355769D01*
X147539558Y-113347160D01*
X147544869Y-113338213D01*
X147549799Y-113328937D01*
X147554341Y-113319336D01*
X147558490Y-113309419D01*
X147562237Y-113299191D01*
X147565576Y-113288660D01*
X147568498Y-113277831D01*
X147570999Y-113266711D01*
X147573069Y-113255308D01*
X147574703Y-113243626D01*
X147575893Y-113231674D01*
X147576632Y-113219458D01*
X147576913Y-113206984D01*
X147580353Y-112582832D01*
X147766884Y-112577011D01*
X147767149Y-112576482D01*
X147767149Y-113575284D01*
X147753832Y-113580433D01*
X147746798Y-113582886D01*
X147739591Y-113585222D01*
X147732269Y-113587416D01*
X147724891Y-113589441D01*
X147717514Y-113591271D01*
X147710197Y-113592879D01*
X147702998Y-113594239D01*
X147695975Y-113595324D01*
X147689186Y-113596109D01*
X147682689Y-113596566D01*
X147676542Y-113596670D01*
X147670804Y-113596395D01*
X147665533Y-113595713D01*
X147660786Y-113594599D01*
X147658092Y-113593651D01*
X147655369Y-113592408D01*
X147652621Y-113590882D01*
X147649853Y-113589088D01*
X147647069Y-113587043D01*
X147644273Y-113584759D01*
X147641469Y-113582253D01*
X147638660Y-113579538D01*
X147633047Y-113573543D01*
X147627467Y-113566893D01*
X147621952Y-113559706D01*
X147616535Y-113552100D01*
X147611247Y-113544193D01*
X147606123Y-113536103D01*
X147601194Y-113527949D01*
X147596492Y-113519850D01*
X147587904Y-113504284D01*
X147580617Y-113490353D01*
X147565410Y-113506602D01*
X147549844Y-113521537D01*
X147533906Y-113535189D01*
X147517585Y-113547589D01*
X147500868Y-113558770D01*
X147483744Y-113568762D01*
X147466201Y-113577596D01*
X147448227Y-113585305D01*
X147429809Y-113591919D01*
X147410935Y-113597470D01*
X147391594Y-113601989D01*
X147371774Y-113605508D01*
X147351463Y-113608058D01*
X147330647Y-113609671D01*
X147309317Y-113610377D01*
X147287459Y-113610209D01*
X147253020Y-113608017D01*
X147219202Y-113603436D01*
X147186225Y-113596484D01*
X147154307Y-113587178D01*
X147123666Y-113575536D01*
X147094522Y-113561575D01*
X147080579Y-113553730D01*
X147067092Y-113545312D01*
X147054088Y-113536323D01*
X147041595Y-113526766D01*
X147029640Y-113516642D01*
X147018250Y-113505953D01*
X147007452Y-113494702D01*
X146997275Y-113482891D01*
X146987745Y-113470522D01*
X146978889Y-113457597D01*
X146970736Y-113444119D01*
X146963311Y-113430090D01*
X146956643Y-113415511D01*
X146950759Y-113400385D01*
X146945687Y-113384714D01*
X146941452Y-113368501D01*
X146938084Y-113351747D01*
X146935608Y-113334455D01*
X146934054Y-113316627D01*
X146933446Y-113298265D01*
X146927890Y-112582567D01*
X147123153Y-112574101D01*
X147127650Y-113262017D01*
G37*
G36*
X148868146Y-111302811D02*
G01*
X148891271Y-111304409D01*
X148914271Y-111307126D01*
X148937088Y-111310957D01*
X148959663Y-111315895D01*
X148981940Y-111321933D01*
X149003859Y-111329066D01*
X149025363Y-111337286D01*
X149046393Y-111346587D01*
X149066891Y-111356963D01*
X149086800Y-111368407D01*
X149106060Y-111380914D01*
X149124614Y-111394475D01*
X149142404Y-111409086D01*
X149159372Y-111424739D01*
X149175459Y-111441428D01*
X149190607Y-111459147D01*
X149208086Y-111482421D01*
X149223678Y-111506376D01*
X149237481Y-111530966D01*
X149249593Y-111556145D01*
X149260111Y-111581869D01*
X149269133Y-111608091D01*
X149276756Y-111634767D01*
X149283079Y-111661850D01*
X149288199Y-111689297D01*
X149292214Y-111717061D01*
X149295221Y-111745097D01*
X149297317Y-111773360D01*
X149298602Y-111801804D01*
X149299172Y-111830384D01*
X149298558Y-111887772D01*
X148601116Y-111889624D01*
X148598885Y-111900854D01*
X148597291Y-111912155D01*
X148596315Y-111923508D01*
X148595940Y-111934891D01*
X148596149Y-111946283D01*
X148596922Y-111957663D01*
X148598244Y-111969009D01*
X148600095Y-111980301D01*
X148605315Y-112002639D01*
X148612441Y-112024508D01*
X148621330Y-112045740D01*
X148631841Y-112066167D01*
X148643830Y-112085620D01*
X148657156Y-112103931D01*
X148671677Y-112120932D01*
X148687250Y-112136455D01*
X148703733Y-112150332D01*
X148720984Y-112162394D01*
X148729853Y-112167691D01*
X148738860Y-112172473D01*
X148747988Y-112176716D01*
X148757220Y-112180401D01*
X148783721Y-112189149D01*
X148810068Y-112195891D01*
X148836150Y-112200542D01*
X148861858Y-112203018D01*
X148874537Y-112203415D01*
X148887081Y-112203236D01*
X148899476Y-112202472D01*
X148911708Y-112201111D01*
X148923764Y-112199144D01*
X148935629Y-112196559D01*
X148947290Y-112193347D01*
X148958733Y-112189496D01*
X148969945Y-112184996D01*
X148980910Y-112179837D01*
X148991617Y-112174009D01*
X149002050Y-112167500D01*
X149012196Y-112160300D01*
X149022042Y-112152399D01*
X149031572Y-112143786D01*
X149040775Y-112134450D01*
X149049635Y-112124382D01*
X149058139Y-112113570D01*
X149066273Y-112102004D01*
X149074024Y-112089674D01*
X149081377Y-112076569D01*
X149088319Y-112062678D01*
X149094836Y-112047992D01*
X149100914Y-112032499D01*
X149100649Y-112032234D01*
X149294853Y-112037526D01*
X149287464Y-112069066D01*
X149278694Y-112098730D01*
X149268542Y-112126563D01*
X149257009Y-112152611D01*
X149244097Y-112176920D01*
X149229806Y-112199534D01*
X149214136Y-112220501D01*
X149197090Y-112239866D01*
X149178666Y-112257674D01*
X149158867Y-112273971D01*
X149137692Y-112288803D01*
X149115143Y-112302216D01*
X149091221Y-112314256D01*
X149065925Y-112324968D01*
X149039258Y-112334397D01*
X149011219Y-112342590D01*
X148977654Y-112350504D01*
X148943368Y-112356716D01*
X148908558Y-112361124D01*
X148873421Y-112363625D01*
X148838154Y-112364116D01*
X148802953Y-112362496D01*
X148768016Y-112358662D01*
X148733539Y-112352512D01*
X148699720Y-112343944D01*
X148666755Y-112332854D01*
X148634841Y-112319142D01*
X148604175Y-112302704D01*
X148589371Y-112293431D01*
X148574954Y-112283439D01*
X148560946Y-112272714D01*
X148547374Y-112261243D01*
X148534262Y-112249015D01*
X148521633Y-112236015D01*
X148509514Y-112222232D01*
X148497928Y-112207653D01*
X148482797Y-112186584D01*
X148468661Y-112164833D01*
X148455525Y-112142449D01*
X148443391Y-112119479D01*
X148422153Y-112071977D01*
X148404981Y-112022713D01*
X148391909Y-111972074D01*
X148382972Y-111920447D01*
X148378205Y-111868217D01*
X148377642Y-111815772D01*
X148381317Y-111763497D01*
X148389265Y-111711779D01*
X148389506Y-111710783D01*
X148595687Y-111710783D01*
X148595861Y-111723328D01*
X148596868Y-111735941D01*
X148598734Y-111748601D01*
X149099590Y-111746219D01*
X149099855Y-111746219D01*
X149099488Y-111729473D01*
X149098398Y-111713172D01*
X149096603Y-111697325D01*
X149094123Y-111681939D01*
X149090975Y-111667024D01*
X149087178Y-111652587D01*
X149082750Y-111638636D01*
X149077709Y-111625181D01*
X149072074Y-111612228D01*
X149065864Y-111599787D01*
X149059096Y-111587866D01*
X149051789Y-111576472D01*
X149043961Y-111565614D01*
X149035631Y-111555300D01*
X149026817Y-111545539D01*
X149017537Y-111536339D01*
X149007810Y-111527707D01*
X148997654Y-111519653D01*
X148987088Y-111512184D01*
X148976129Y-111505309D01*
X148964797Y-111499036D01*
X148953109Y-111493373D01*
X148941084Y-111488328D01*
X148928740Y-111483910D01*
X148916096Y-111480127D01*
X148903170Y-111476986D01*
X148889980Y-111474498D01*
X148876545Y-111472668D01*
X148862883Y-111471507D01*
X148849013Y-111471021D01*
X148834952Y-111471220D01*
X148820720Y-111472111D01*
X148809514Y-111473428D01*
X148798292Y-111475431D01*
X148787081Y-111478099D01*
X148775912Y-111481409D01*
X148764813Y-111485341D01*
X148753814Y-111489873D01*
X148742945Y-111494984D01*
X148732233Y-111500653D01*
X148721709Y-111506858D01*
X148711402Y-111513579D01*
X148701341Y-111520793D01*
X148691556Y-111528480D01*
X148682075Y-111536618D01*
X148672928Y-111545185D01*
X148664144Y-111554161D01*
X148655752Y-111563525D01*
X148647782Y-111573254D01*
X148640263Y-111583328D01*
X148633225Y-111593725D01*
X148626696Y-111604423D01*
X148620705Y-111615403D01*
X148615283Y-111626642D01*
X148610457Y-111638118D01*
X148606258Y-111649812D01*
X148602716Y-111661701D01*
X148599858Y-111673763D01*
X148597714Y-111685979D01*
X148596314Y-111698326D01*
X148595687Y-111710783D01*
X148389506Y-111710783D01*
X148401521Y-111661004D01*
X148409275Y-111636091D01*
X148418119Y-111611559D01*
X148428057Y-111587456D01*
X148439093Y-111563830D01*
X148451232Y-111540730D01*
X148464478Y-111518204D01*
X148478836Y-111496300D01*
X148494309Y-111475067D01*
X148510902Y-111454552D01*
X148528620Y-111434805D01*
X148545835Y-111417609D01*
X148563855Y-111401636D01*
X148582622Y-111386879D01*
X148602079Y-111373332D01*
X148622166Y-111360989D01*
X148642827Y-111349843D01*
X148664002Y-111339888D01*
X148685633Y-111331117D01*
X148707664Y-111323524D01*
X148730034Y-111317103D01*
X148752686Y-111311846D01*
X148775563Y-111307748D01*
X148798605Y-111304801D01*
X148821755Y-111303001D01*
X148844955Y-111302340D01*
X148868146Y-111302811D01*
G37*
G36*
X151789893Y-115138269D02*
G01*
X151812176Y-115139358D01*
X151834393Y-115141425D01*
X151856507Y-115144476D01*
X151878478Y-115148517D01*
X151900267Y-115153552D01*
X151921834Y-115159588D01*
X151943141Y-115166629D01*
X151964148Y-115174682D01*
X151984817Y-115183751D01*
X152005108Y-115193843D01*
X152024981Y-115204962D01*
X152044399Y-115217114D01*
X152063321Y-115230305D01*
X152081709Y-115244540D01*
X152086531Y-115248768D01*
X152091271Y-115253497D01*
X152095924Y-115258696D01*
X152100486Y-115264339D01*
X152109318Y-115276837D01*
X152117729Y-115290763D01*
X152125683Y-115305888D01*
X152133143Y-115321982D01*
X152140071Y-115338816D01*
X152146432Y-115356161D01*
X152152189Y-115373788D01*
X152157304Y-115391469D01*
X152161740Y-115408973D01*
X152165462Y-115426073D01*
X152168431Y-115442538D01*
X152170612Y-115458141D01*
X152171968Y-115472651D01*
X152172461Y-115485840D01*
X152172989Y-116174021D01*
X152127907Y-116180838D01*
X152104515Y-116183746D01*
X152093017Y-116184870D01*
X152081807Y-116185696D01*
X152071004Y-116186165D01*
X152060725Y-116186219D01*
X152051086Y-116185800D01*
X152042207Y-116184848D01*
X152034203Y-116183306D01*
X152027192Y-116181115D01*
X152024096Y-116179757D01*
X152021292Y-116178215D01*
X152018795Y-116176482D01*
X152016620Y-116174550D01*
X152014649Y-116172437D01*
X152012752Y-116170169D01*
X152009163Y-116165184D01*
X152005825Y-116159633D01*
X152002705Y-116153549D01*
X151999775Y-116146969D01*
X151997003Y-116139929D01*
X151994360Y-116132464D01*
X151991816Y-116124610D01*
X151971377Y-116052048D01*
X151958508Y-116067347D01*
X151945023Y-116081888D01*
X151930957Y-116095662D01*
X151916342Y-116108662D01*
X151901212Y-116120882D01*
X151885600Y-116132313D01*
X151869540Y-116142950D01*
X151853063Y-116152784D01*
X151836204Y-116161808D01*
X151818995Y-116170016D01*
X151801471Y-116177399D01*
X151783663Y-116183951D01*
X151765606Y-116189665D01*
X151747332Y-116194533D01*
X151728874Y-116198548D01*
X151710267Y-116201703D01*
X151691542Y-116203990D01*
X151672733Y-116205403D01*
X151653874Y-116205934D01*
X151634997Y-116205576D01*
X151616136Y-116204322D01*
X151597324Y-116202164D01*
X151578594Y-116199095D01*
X151559979Y-116195109D01*
X151541513Y-116190197D01*
X151523228Y-116184353D01*
X151505158Y-116177570D01*
X151487336Y-116169839D01*
X151469795Y-116161155D01*
X151452569Y-116151510D01*
X151435690Y-116140896D01*
X151419192Y-116129306D01*
X151419324Y-116129439D01*
X151419457Y-116129572D01*
X151408465Y-116120980D01*
X151398151Y-116112037D01*
X151388504Y-116102760D01*
X151379511Y-116093166D01*
X151371158Y-116083276D01*
X151363434Y-116073105D01*
X151356326Y-116062674D01*
X151349822Y-116051999D01*
X151343907Y-116041100D01*
X151338571Y-116029994D01*
X151333801Y-116018699D01*
X151329583Y-116007235D01*
X151325905Y-115995618D01*
X151322756Y-115983868D01*
X151320121Y-115972003D01*
X151317989Y-115960040D01*
X151315182Y-115935895D01*
X151314233Y-115911580D01*
X151315043Y-115887239D01*
X151315109Y-115886589D01*
X151514755Y-115886589D01*
X151515161Y-115894838D01*
X151515991Y-115902999D01*
X151517249Y-115911049D01*
X151518940Y-115918963D01*
X151520803Y-115925817D01*
X151523012Y-115932583D01*
X151525559Y-115939250D01*
X151528435Y-115945809D01*
X151531632Y-115952249D01*
X151535140Y-115958562D01*
X151538952Y-115964736D01*
X151543059Y-115970763D01*
X151547451Y-115976633D01*
X151552121Y-115982336D01*
X151557060Y-115987861D01*
X151562259Y-115993200D01*
X151567709Y-115998343D01*
X151573402Y-116003279D01*
X151579330Y-116007999D01*
X151585483Y-116012493D01*
X151591853Y-116016752D01*
X151598432Y-116020765D01*
X151605211Y-116024523D01*
X151612180Y-116028016D01*
X151619332Y-116031234D01*
X151626659Y-116034167D01*
X151634150Y-116036807D01*
X151641798Y-116039142D01*
X151649594Y-116041163D01*
X151657530Y-116042860D01*
X151665596Y-116044224D01*
X151673785Y-116045245D01*
X151682087Y-116045912D01*
X151690494Y-116046217D01*
X151698997Y-116046149D01*
X151707589Y-116045698D01*
X151723303Y-116044160D01*
X151739132Y-116041848D01*
X151754987Y-116038796D01*
X151770778Y-116035036D01*
X151786416Y-116030603D01*
X151801811Y-116025527D01*
X151816873Y-116019844D01*
X151831513Y-116013584D01*
X151845641Y-116006783D01*
X151859168Y-115999471D01*
X151872005Y-115991683D01*
X151884061Y-115983451D01*
X151895248Y-115974808D01*
X151905476Y-115965787D01*
X151914654Y-115956421D01*
X151922695Y-115946744D01*
X151931514Y-115934108D01*
X151939434Y-115920751D01*
X151946479Y-115906739D01*
X151952675Y-115892140D01*
X151958046Y-115877021D01*
X151962618Y-115861447D01*
X151966414Y-115845485D01*
X151969460Y-115829203D01*
X151971780Y-115812666D01*
X151973400Y-115795942D01*
X151974343Y-115779096D01*
X151974636Y-115762197D01*
X151974302Y-115745310D01*
X151973366Y-115728502D01*
X151971854Y-115711839D01*
X151969790Y-115695390D01*
X151969790Y-115695655D01*
X151653878Y-115717615D01*
X151644564Y-115718561D01*
X151635526Y-115720091D01*
X151626770Y-115722183D01*
X151618302Y-115724813D01*
X151610125Y-115727955D01*
X151602246Y-115731586D01*
X151594670Y-115735683D01*
X151587401Y-115740220D01*
X151580446Y-115745175D01*
X151573809Y-115750523D01*
X151567496Y-115756239D01*
X151561512Y-115762301D01*
X151555861Y-115768683D01*
X151550550Y-115775362D01*
X151545584Y-115782315D01*
X151540967Y-115789516D01*
X151536705Y-115796941D01*
X151532804Y-115804568D01*
X151529268Y-115812371D01*
X151526103Y-115820327D01*
X151523314Y-115828412D01*
X151520905Y-115836601D01*
X151518884Y-115844871D01*
X151517254Y-115853197D01*
X151516021Y-115861556D01*
X151515189Y-115869924D01*
X151514766Y-115878276D01*
X151514755Y-115886589D01*
X151315109Y-115886589D01*
X151317509Y-115863020D01*
X151321533Y-115839068D01*
X151327012Y-115815527D01*
X151333846Y-115792545D01*
X151341934Y-115770267D01*
X151346451Y-115759464D01*
X151351320Y-115748933D01*
X151356534Y-115738677D01*
X151362090Y-115728699D01*
X151367984Y-115719002D01*
X151374210Y-115709589D01*
X151380765Y-115700462D01*
X151387645Y-115691624D01*
X151394844Y-115683078D01*
X151402358Y-115674826D01*
X151410183Y-115666872D01*
X151418315Y-115659218D01*
X151426749Y-115651867D01*
X151435481Y-115644821D01*
X151444506Y-115638084D01*
X151453819Y-115631659D01*
X151463418Y-115625547D01*
X151473296Y-115619751D01*
X151483450Y-115614276D01*
X151493875Y-115609122D01*
X151504568Y-115604293D01*
X151515522Y-115599793D01*
X151526735Y-115595622D01*
X151538201Y-115591785D01*
X151549916Y-115588284D01*
X151561877Y-115585122D01*
X151574077Y-115582301D01*
X151586514Y-115579825D01*
X151599182Y-115577695D01*
X151612077Y-115575916D01*
X151638532Y-115573417D01*
X151961058Y-115551986D01*
X151964460Y-115540805D01*
X151967183Y-115529744D01*
X151969247Y-115518812D01*
X151970668Y-115508021D01*
X151971464Y-115497381D01*
X151971651Y-115486902D01*
X151971247Y-115476596D01*
X151970270Y-115466472D01*
X151968735Y-115456541D01*
X151966662Y-115446815D01*
X151964066Y-115437303D01*
X151960966Y-115428017D01*
X151957378Y-115418966D01*
X151953320Y-115410162D01*
X151948808Y-115401615D01*
X151943861Y-115393335D01*
X151938495Y-115385334D01*
X151932728Y-115377622D01*
X151926577Y-115370209D01*
X151920059Y-115363106D01*
X151913191Y-115356324D01*
X151905991Y-115349873D01*
X151898476Y-115343765D01*
X151890663Y-115338008D01*
X151882570Y-115332615D01*
X151874213Y-115327596D01*
X151865610Y-115322961D01*
X151856778Y-115318721D01*
X151847734Y-115314887D01*
X151838496Y-115311469D01*
X151829081Y-115308477D01*
X151819506Y-115305923D01*
X151797780Y-115301592D01*
X151776214Y-115299116D01*
X151765520Y-115298573D01*
X151754898Y-115298495D01*
X151744361Y-115298881D01*
X151733918Y-115299731D01*
X151723581Y-115301045D01*
X151713361Y-115302824D01*
X151703268Y-115305067D01*
X151693314Y-115307775D01*
X151683509Y-115310947D01*
X151673865Y-115314584D01*
X151664392Y-115318686D01*
X151655101Y-115323254D01*
X151646003Y-115328286D01*
X151637109Y-115333783D01*
X151628430Y-115339746D01*
X151619976Y-115346174D01*
X151611759Y-115353068D01*
X151603790Y-115360427D01*
X151596079Y-115368252D01*
X151588637Y-115376542D01*
X151581475Y-115385299D01*
X151574605Y-115394521D01*
X151568037Y-115404210D01*
X151561781Y-115414364D01*
X151555850Y-115424985D01*
X151550253Y-115436072D01*
X151545001Y-115447626D01*
X151540107Y-115459646D01*
X151361513Y-115460440D01*
X151372584Y-115410326D01*
X151378861Y-115383914D01*
X151385788Y-115357980D01*
X151389533Y-115345516D01*
X151393485Y-115333559D01*
X151397659Y-115322239D01*
X151402068Y-115311686D01*
X151406729Y-115302029D01*
X151411656Y-115293398D01*
X151416864Y-115285921D01*
X151422367Y-115279729D01*
X151439120Y-115264144D01*
X151456514Y-115249438D01*
X151474508Y-115235617D01*
X151493064Y-115222687D01*
X151512143Y-115210654D01*
X151531704Y-115199522D01*
X151551710Y-115189298D01*
X151572121Y-115179986D01*
X151592898Y-115171592D01*
X151614001Y-115164122D01*
X151635392Y-115157581D01*
X151657031Y-115151974D01*
X151678880Y-115147308D01*
X151700899Y-115143587D01*
X151723049Y-115140817D01*
X151745291Y-115139004D01*
X151767585Y-115138153D01*
X151789893Y-115138269D01*
G37*
G36*
X143059955Y-112842003D02*
G01*
X143079216Y-112843788D01*
X143098423Y-112846550D01*
X143117547Y-112850302D01*
X143136558Y-112855056D01*
X143155428Y-112860826D01*
X143174128Y-112867624D01*
X143192628Y-112875462D01*
X143210899Y-112884354D01*
X143228912Y-112894311D01*
X143246639Y-112905346D01*
X143264050Y-112917472D01*
X143281116Y-112930701D01*
X143297807Y-112945047D01*
X143318934Y-112966055D01*
X143338319Y-112989233D01*
X143355973Y-113014412D01*
X143371908Y-113041426D01*
X143386134Y-113070106D01*
X143398663Y-113100285D01*
X143409507Y-113131797D01*
X143418676Y-113164473D01*
X143426183Y-113198146D01*
X143432037Y-113232649D01*
X143436251Y-113267815D01*
X143438836Y-113303476D01*
X143439163Y-113375613D01*
X143433109Y-113447722D01*
X143420763Y-113518463D01*
X143412260Y-113552903D01*
X143402217Y-113586498D01*
X143390647Y-113619083D01*
X143377560Y-113650488D01*
X143362969Y-113680547D01*
X143346883Y-113709093D01*
X143329316Y-113735958D01*
X143310277Y-113760974D01*
X143289778Y-113783975D01*
X143267830Y-113804793D01*
X143244446Y-113823260D01*
X143219635Y-113839210D01*
X143193409Y-113852474D01*
X143165780Y-113862886D01*
X143134355Y-113871847D01*
X143103376Y-113878778D01*
X143072837Y-113883662D01*
X143042733Y-113886484D01*
X143013056Y-113887228D01*
X142983801Y-113885880D01*
X142954961Y-113882423D01*
X142926531Y-113876843D01*
X142898504Y-113869123D01*
X142870873Y-113859248D01*
X142843634Y-113847203D01*
X142816778Y-113832972D01*
X142790301Y-113816539D01*
X142764197Y-113797890D01*
X142738458Y-113777008D01*
X142713078Y-113753878D01*
X142710432Y-114161600D01*
X142701363Y-114165436D01*
X142691384Y-114168811D01*
X142680590Y-114171727D01*
X142669075Y-114174189D01*
X142656933Y-114176199D01*
X142644260Y-114177762D01*
X142631149Y-114178881D01*
X142617696Y-114179559D01*
X142603995Y-114179800D01*
X142590140Y-114179607D01*
X142576226Y-114178984D01*
X142562348Y-114177934D01*
X142548601Y-114176461D01*
X142535078Y-114174569D01*
X142521874Y-114172260D01*
X142509084Y-114169538D01*
X142507933Y-113365370D01*
X142715426Y-113365370D01*
X142716938Y-113395068D01*
X142720186Y-113424605D01*
X142725136Y-113453902D01*
X142731752Y-113482882D01*
X142740001Y-113511467D01*
X142749848Y-113539578D01*
X142761258Y-113567138D01*
X142774197Y-113594069D01*
X142779438Y-113603735D01*
X142784938Y-113612990D01*
X142790691Y-113621836D01*
X142796690Y-113630276D01*
X142802929Y-113638314D01*
X142809402Y-113645952D01*
X142816103Y-113653192D01*
X142823025Y-113660037D01*
X142830162Y-113666491D01*
X142837508Y-113672556D01*
X142845057Y-113678234D01*
X142852802Y-113683529D01*
X142860737Y-113688443D01*
X142868855Y-113692979D01*
X142877152Y-113697140D01*
X142885620Y-113700928D01*
X142894253Y-113704346D01*
X142903044Y-113707398D01*
X142911989Y-113710085D01*
X142921080Y-113712411D01*
X142930310Y-113714378D01*
X142939675Y-113715989D01*
X142949167Y-113717247D01*
X142958781Y-113718155D01*
X142968510Y-113718715D01*
X142978348Y-113718930D01*
X142988288Y-113718802D01*
X142998324Y-113718336D01*
X143008451Y-113717533D01*
X143018662Y-113716396D01*
X143028950Y-113714928D01*
X143039310Y-113713132D01*
X143057284Y-113708807D01*
X143074489Y-113702829D01*
X143090915Y-113695271D01*
X143106555Y-113686209D01*
X143121397Y-113675717D01*
X143135432Y-113663869D01*
X143148652Y-113650741D01*
X143161047Y-113636407D01*
X143172607Y-113620941D01*
X143183324Y-113604419D01*
X143193187Y-113586915D01*
X143202188Y-113568503D01*
X143210317Y-113549259D01*
X143217565Y-113529257D01*
X143223922Y-113508571D01*
X143229380Y-113487277D01*
X143233928Y-113465448D01*
X143237557Y-113443160D01*
X143240259Y-113420488D01*
X143242023Y-113397505D01*
X143242841Y-113374287D01*
X143242703Y-113350908D01*
X143241599Y-113327443D01*
X143239521Y-113303966D01*
X143236458Y-113280553D01*
X143232402Y-113257277D01*
X143227344Y-113234214D01*
X143221273Y-113211438D01*
X143214181Y-113189024D01*
X143206058Y-113167046D01*
X143196895Y-113145579D01*
X143186682Y-113124698D01*
X143186682Y-113124963D01*
X143183073Y-113118517D01*
X143179053Y-113112182D01*
X143174644Y-113105964D01*
X143169864Y-113099870D01*
X143164733Y-113093907D01*
X143159271Y-113088081D01*
X143153498Y-113082398D01*
X143147433Y-113076867D01*
X143134507Y-113066283D01*
X143120649Y-113056381D01*
X143106018Y-113047216D01*
X143090771Y-113038841D01*
X143075065Y-113031310D01*
X143059057Y-113024675D01*
X143042905Y-113018990D01*
X143026767Y-113014309D01*
X143010798Y-113010686D01*
X142995158Y-113008173D01*
X142980003Y-113006825D01*
X142972657Y-113006604D01*
X142965491Y-113006694D01*
X142953653Y-113007786D01*
X142940974Y-113010204D01*
X142927623Y-113013857D01*
X142913769Y-113018650D01*
X142899582Y-113024492D01*
X142885231Y-113031288D01*
X142870885Y-113038947D01*
X142856714Y-113047374D01*
X142842887Y-113056477D01*
X142829574Y-113066164D01*
X142816944Y-113076340D01*
X142805166Y-113086913D01*
X142794409Y-113097790D01*
X142784844Y-113108877D01*
X142776639Y-113120083D01*
X142773100Y-113125701D01*
X142769964Y-113131313D01*
X142756346Y-113159500D01*
X142744741Y-113188148D01*
X142735113Y-113217180D01*
X142727428Y-113246518D01*
X142721651Y-113276084D01*
X142717748Y-113305800D01*
X142715685Y-113335588D01*
X142715426Y-113365370D01*
X142507933Y-113365370D01*
X142507232Y-112875726D01*
X142700114Y-112859851D01*
X142722339Y-112977061D01*
X142737108Y-112962667D01*
X142752376Y-112949011D01*
X142768112Y-112936106D01*
X142784288Y-112923965D01*
X142800876Y-112912599D01*
X142817844Y-112902021D01*
X142835166Y-112892245D01*
X142852811Y-112883283D01*
X142870751Y-112875147D01*
X142888956Y-112867849D01*
X142907398Y-112861404D01*
X142926047Y-112855822D01*
X142944874Y-112851117D01*
X142963851Y-112847301D01*
X142982948Y-112844388D01*
X143002136Y-112842388D01*
X143021385Y-112841316D01*
X143040668Y-112841183D01*
X143059955Y-112842003D01*
G37*
G36*
X156109360Y-79496722D02*
G01*
X156177970Y-79500062D01*
X156246425Y-79506201D01*
X156313697Y-79515007D01*
X156379737Y-79526426D01*
X156444499Y-79540405D01*
X156507934Y-79556890D01*
X156569996Y-79575828D01*
X156630638Y-79597164D01*
X156689810Y-79620845D01*
X156747467Y-79646817D01*
X156803561Y-79675027D01*
X156858044Y-79705421D01*
X156910869Y-79737946D01*
X156961989Y-79772547D01*
X157011355Y-79809170D01*
X157058921Y-79847764D01*
X157104640Y-79888272D01*
X157148463Y-79930643D01*
X157190343Y-79974822D01*
X157230234Y-80020755D01*
X157268087Y-80068390D01*
X157303855Y-80117671D01*
X157337490Y-80168546D01*
X157368946Y-80220961D01*
X157398174Y-80274862D01*
X157425128Y-80330195D01*
X157449760Y-80386907D01*
X157472022Y-80444945D01*
X157491867Y-80504253D01*
X157509248Y-80564780D01*
X157524117Y-80626470D01*
X157536427Y-80689271D01*
X157546130Y-80753129D01*
X157600626Y-80636891D01*
X157663776Y-80527600D01*
X157735096Y-80425571D01*
X157814099Y-80331115D01*
X157900300Y-80244545D01*
X157993214Y-80166174D01*
X158092355Y-80096316D01*
X158197236Y-80035281D01*
X158307373Y-79983385D01*
X158422280Y-79940938D01*
X158541472Y-79908255D01*
X158664461Y-79885647D01*
X158790764Y-79873428D01*
X158919894Y-79871910D01*
X158985368Y-79875262D01*
X159051366Y-79881406D01*
X159117828Y-79890382D01*
X159184694Y-79902229D01*
X159251720Y-79916936D01*
X159317237Y-79934130D01*
X159381207Y-79953752D01*
X159443589Y-79975742D01*
X159504344Y-80000042D01*
X159563431Y-80026594D01*
X159620811Y-80055337D01*
X159676443Y-80086214D01*
X159730288Y-80119165D01*
X159782307Y-80154131D01*
X159832458Y-80191054D01*
X159880703Y-80229874D01*
X159927001Y-80270533D01*
X159971313Y-80312972D01*
X160013598Y-80357132D01*
X160053817Y-80402953D01*
X160091931Y-80450378D01*
X160127898Y-80499346D01*
X160161679Y-80549800D01*
X160193235Y-80601680D01*
X160222525Y-80654927D01*
X160249510Y-80709483D01*
X160274149Y-80765289D01*
X160296403Y-80822285D01*
X160316232Y-80880412D01*
X160333597Y-80939613D01*
X160348456Y-80999827D01*
X160360771Y-81060997D01*
X160370501Y-81123062D01*
X160377607Y-81185965D01*
X160382048Y-81249646D01*
X160383786Y-81314046D01*
X160452411Y-81205539D01*
X160528756Y-81105015D01*
X160612300Y-81012722D01*
X160702522Y-80928912D01*
X160798899Y-80853832D01*
X160900912Y-80787734D01*
X161008038Y-80730866D01*
X161119757Y-80683478D01*
X161235546Y-80645819D01*
X161354886Y-80618140D01*
X161477254Y-80600690D01*
X161602129Y-80593718D01*
X161728990Y-80597474D01*
X161857316Y-80612208D01*
X161986585Y-80638169D01*
X162116276Y-80675606D01*
X162190501Y-80702268D01*
X162262329Y-80731933D01*
X162331711Y-80764505D01*
X162398598Y-80799888D01*
X162462941Y-80837985D01*
X162524690Y-80878699D01*
X162583796Y-80921933D01*
X162640209Y-80967591D01*
X162693881Y-81015575D01*
X162744762Y-81065791D01*
X162792802Y-81118139D01*
X162837953Y-81172525D01*
X162880165Y-81228851D01*
X162919389Y-81287020D01*
X162955575Y-81346936D01*
X162988674Y-81408502D01*
X163018636Y-81471622D01*
X163045414Y-81536198D01*
X163068956Y-81602134D01*
X163089214Y-81669334D01*
X163106139Y-81737700D01*
X163119681Y-81807136D01*
X163129790Y-81877545D01*
X163136418Y-81948831D01*
X163139516Y-82020896D01*
X163139033Y-82093645D01*
X163134921Y-82166980D01*
X163127130Y-82240805D01*
X163115611Y-82315022D01*
X163100315Y-82389536D01*
X163081191Y-82464250D01*
X163058192Y-82539067D01*
X163029162Y-82618995D01*
X162996429Y-82696021D01*
X162960126Y-82770080D01*
X162920382Y-82841109D01*
X162877328Y-82909046D01*
X162831095Y-82973826D01*
X162781813Y-83035387D01*
X162729613Y-83093666D01*
X162674626Y-83148600D01*
X162616982Y-83200124D01*
X162556811Y-83248177D01*
X162494245Y-83292695D01*
X162429415Y-83333615D01*
X162362449Y-83370873D01*
X162293480Y-83404406D01*
X162223256Y-83433892D01*
X162290191Y-83463159D01*
X162355498Y-83495305D01*
X162418518Y-83529978D01*
X162479207Y-83567094D01*
X162537522Y-83606568D01*
X162593421Y-83648317D01*
X162646861Y-83692257D01*
X162697798Y-83738303D01*
X162746189Y-83786372D01*
X162791992Y-83836379D01*
X162835163Y-83888242D01*
X162875660Y-83941875D01*
X162913439Y-83997196D01*
X162948457Y-84054119D01*
X162980671Y-84112561D01*
X163010039Y-84172438D01*
X163036517Y-84233667D01*
X163060063Y-84296162D01*
X163080632Y-84359841D01*
X163098183Y-84424619D01*
X163112671Y-84490412D01*
X163124055Y-84557136D01*
X163132292Y-84624708D01*
X163137337Y-84693043D01*
X163139148Y-84762058D01*
X163137683Y-84831668D01*
X163132897Y-84901789D01*
X163124748Y-84972339D01*
X163113194Y-85043231D01*
X163098191Y-85114383D01*
X163079695Y-85185711D01*
X163057664Y-85257131D01*
X163031526Y-85329680D01*
X163002340Y-85399856D01*
X162970203Y-85467610D01*
X162935212Y-85532897D01*
X162897466Y-85595667D01*
X162857060Y-85655872D01*
X162814092Y-85713466D01*
X162768661Y-85768401D01*
X162720862Y-85820628D01*
X162670794Y-85870101D01*
X162618554Y-85916771D01*
X162564239Y-85960590D01*
X162507946Y-86001512D01*
X162449773Y-86039487D01*
X162389817Y-86074470D01*
X162328175Y-86106410D01*
X162264946Y-86135262D01*
X162200225Y-86160978D01*
X162134110Y-86183508D01*
X162066700Y-86202807D01*
X161998090Y-86218826D01*
X161928379Y-86231517D01*
X161857663Y-86240833D01*
X161786040Y-86246726D01*
X161713608Y-86249149D01*
X161640464Y-86248053D01*
X161566704Y-86243390D01*
X161492427Y-86235114D01*
X161417729Y-86223177D01*
X161342709Y-86207529D01*
X161267463Y-86188125D01*
X161192088Y-86164916D01*
X161077867Y-86122115D01*
X160969489Y-86072050D01*
X160867150Y-86015104D01*
X160771044Y-85951662D01*
X160681366Y-85882105D01*
X160598309Y-85806817D01*
X160522070Y-85726180D01*
X160452841Y-85640578D01*
X160390819Y-85550393D01*
X160336196Y-85456009D01*
X160289169Y-85357807D01*
X160249931Y-85256172D01*
X160218677Y-85151485D01*
X160195602Y-85044131D01*
X160180899Y-84934491D01*
X160174765Y-84822949D01*
X160114263Y-84917277D01*
X160047193Y-85005636D01*
X159973908Y-85087794D01*
X159894761Y-85163518D01*
X159810104Y-85232576D01*
X159720290Y-85294735D01*
X159625672Y-85349762D01*
X159526602Y-85397426D01*
X159423433Y-85437494D01*
X159316517Y-85469732D01*
X159206208Y-85493909D01*
X159092859Y-85509791D01*
X158976821Y-85517148D01*
X158858447Y-85515745D01*
X158738091Y-85505350D01*
X158616104Y-85485731D01*
X158556045Y-85472667D01*
X158497181Y-85457566D01*
X158439544Y-85440472D01*
X158383164Y-85421430D01*
X158328071Y-85400486D01*
X158274296Y-85377682D01*
X158221868Y-85353065D01*
X158170819Y-85326679D01*
X158121177Y-85298569D01*
X158072975Y-85268779D01*
X158026242Y-85237354D01*
X157981008Y-85204339D01*
X157895160Y-85133717D01*
X157815673Y-85057271D01*
X157742791Y-84975359D01*
X157676756Y-84888338D01*
X157617810Y-84796567D01*
X157566196Y-84700402D01*
X157522157Y-84600202D01*
X157503054Y-84548700D01*
X157485936Y-84496324D01*
X157470832Y-84443118D01*
X157457774Y-84389126D01*
X157446792Y-84334394D01*
X157437915Y-84278966D01*
X157389776Y-84380096D01*
X157334374Y-84476133D01*
X157272029Y-84566802D01*
X157203064Y-84651831D01*
X157127798Y-84730943D01*
X157046552Y-84803865D01*
X156959648Y-84870322D01*
X156867407Y-84930040D01*
X156770148Y-84982744D01*
X156668194Y-85028161D01*
X156561865Y-85066015D01*
X156451482Y-85096033D01*
X156337365Y-85117939D01*
X156219837Y-85131460D01*
X156099217Y-85136321D01*
X155975827Y-85132247D01*
X155914468Y-85126852D01*
X155854043Y-85119276D01*
X155794588Y-85109560D01*
X155736138Y-85097745D01*
X155678730Y-85083871D01*
X155622398Y-85067979D01*
X155567180Y-85050110D01*
X155513112Y-85030304D01*
X155460228Y-85008603D01*
X155408566Y-84985047D01*
X155358161Y-84959677D01*
X155309049Y-84932534D01*
X155261266Y-84903658D01*
X155214848Y-84873090D01*
X155169830Y-84840871D01*
X155126250Y-84807041D01*
X155084142Y-84771642D01*
X155043543Y-84734714D01*
X155004489Y-84696298D01*
X154967015Y-84656434D01*
X154931158Y-84615164D01*
X154896953Y-84572527D01*
X154864437Y-84528566D01*
X154833646Y-84483320D01*
X154804614Y-84436830D01*
X154777379Y-84389137D01*
X154751976Y-84340282D01*
X154728442Y-84290306D01*
X154706811Y-84239248D01*
X154687121Y-84187151D01*
X154669406Y-84134055D01*
X154653704Y-84080000D01*
X154620264Y-84187372D01*
X154578871Y-84290698D01*
X154529806Y-84389656D01*
X154473349Y-84483928D01*
X154409783Y-84573191D01*
X154339388Y-84657127D01*
X154262447Y-84735416D01*
X154179240Y-84807736D01*
X154090049Y-84873769D01*
X153995155Y-84933193D01*
X153894840Y-84985689D01*
X153789385Y-85030937D01*
X153679071Y-85068616D01*
X153564180Y-85098407D01*
X153444993Y-85119988D01*
X153321792Y-85133041D01*
X153260497Y-85136160D01*
X153199820Y-85137007D01*
X153139801Y-85135617D01*
X153080481Y-85132025D01*
X153021902Y-85126267D01*
X152964104Y-85118376D01*
X152907128Y-85108388D01*
X152851015Y-85096339D01*
X152795806Y-85082262D01*
X152741541Y-85066193D01*
X152688262Y-85048168D01*
X152636010Y-85028220D01*
X152584825Y-85006385D01*
X152534748Y-84982698D01*
X152485821Y-84957194D01*
X152438083Y-84929908D01*
X152391576Y-84900874D01*
X152346342Y-84870128D01*
X152302420Y-84837705D01*
X152259851Y-84803640D01*
X152218677Y-84767968D01*
X152178938Y-84730723D01*
X152140676Y-84691941D01*
X152103931Y-84651657D01*
X152068744Y-84609905D01*
X152035155Y-84566721D01*
X152003207Y-84522140D01*
X151972939Y-84476196D01*
X151944393Y-84428924D01*
X151917610Y-84380361D01*
X151892629Y-84330539D01*
X151869493Y-84279495D01*
X151860611Y-84335017D01*
X151849609Y-84389830D01*
X151821367Y-84497160D01*
X151785005Y-84601135D01*
X151740761Y-84701403D01*
X151688873Y-84797614D01*
X151629578Y-84889417D01*
X151563114Y-84976461D01*
X151489717Y-85058396D01*
X151409627Y-85134871D01*
X151323080Y-85205535D01*
X151230314Y-85270037D01*
X151131567Y-85328027D01*
X151027076Y-85379154D01*
X150972750Y-85402034D01*
X150917078Y-85423067D01*
X150860089Y-85442208D01*
X150801812Y-85459415D01*
X150742277Y-85474643D01*
X150681515Y-85487848D01*
X150621066Y-85498676D01*
X150560946Y-85507170D01*
X150501200Y-85513359D01*
X150441871Y-85517272D01*
X150383006Y-85518940D01*
X150324649Y-85518392D01*
X150266845Y-85515658D01*
X150209638Y-85510767D01*
X150153075Y-85503749D01*
X150097198Y-85494634D01*
X150042054Y-85483451D01*
X149987687Y-85470230D01*
X149934142Y-85455001D01*
X149881464Y-85437793D01*
X149829698Y-85418635D01*
X149778889Y-85397559D01*
X149729080Y-85374592D01*
X149680319Y-85349765D01*
X149632648Y-85323108D01*
X149586114Y-85294650D01*
X149540760Y-85264421D01*
X149496632Y-85232450D01*
X149453775Y-85198767D01*
X149412234Y-85163402D01*
X149372053Y-85126385D01*
X149333277Y-85087744D01*
X149295951Y-85047510D01*
X149260120Y-85005713D01*
X149225829Y-84962381D01*
X149193123Y-84917545D01*
X149162046Y-84871235D01*
X149132644Y-84823479D01*
X149130677Y-84879582D01*
X149126530Y-84935245D01*
X149120226Y-84990423D01*
X149111788Y-85045067D01*
X149101241Y-85099132D01*
X149088608Y-85152570D01*
X149073913Y-85205335D01*
X149057180Y-85257379D01*
X149038432Y-85308656D01*
X149017693Y-85359118D01*
X148994987Y-85408719D01*
X148970337Y-85457412D01*
X148943768Y-85505150D01*
X148915303Y-85551886D01*
X148884966Y-85597574D01*
X148852781Y-85642166D01*
X148818770Y-85685615D01*
X148782959Y-85727875D01*
X148745371Y-85768898D01*
X148706029Y-85808638D01*
X148664957Y-85847048D01*
X148622180Y-85884081D01*
X148577720Y-85919690D01*
X148531601Y-85953828D01*
X148483848Y-85986449D01*
X148434484Y-86017504D01*
X148383532Y-86046949D01*
X148331017Y-86074735D01*
X148276962Y-86100815D01*
X148221391Y-86125143D01*
X148164328Y-86147673D01*
X148105796Y-86168356D01*
X148031236Y-86191291D01*
X147956747Y-86210422D01*
X147882430Y-86225796D01*
X147808383Y-86237463D01*
X147734707Y-86245471D01*
X147661500Y-86249871D01*
X147588863Y-86250709D01*
X147516895Y-86248037D01*
X147445696Y-86241901D01*
X147375365Y-86232352D01*
X147306001Y-86219439D01*
X147237705Y-86203209D01*
X147170575Y-86183713D01*
X147104712Y-86160999D01*
X147040214Y-86135116D01*
X146977183Y-86106113D01*
X146915716Y-86074038D01*
X146855913Y-86038942D01*
X146797875Y-86000872D01*
X146741701Y-85959878D01*
X146687490Y-85916008D01*
X146635341Y-85869312D01*
X146585355Y-85819838D01*
X146537631Y-85767636D01*
X146492269Y-85712754D01*
X146449367Y-85655242D01*
X146409026Y-85595147D01*
X146371345Y-85532520D01*
X146336424Y-85467409D01*
X146304362Y-85399862D01*
X146275259Y-85329930D01*
X146249215Y-85257660D01*
X146227122Y-85185993D01*
X146208587Y-85114418D01*
X146193565Y-85043022D01*
X146182011Y-84971890D01*
X146173880Y-84901107D01*
X146169128Y-84830758D01*
X146167709Y-84760929D01*
X146168072Y-84747518D01*
X146447888Y-84747518D01*
X146448284Y-84806373D01*
X146451607Y-84865689D01*
X146457896Y-84925385D01*
X146467192Y-84985382D01*
X146479537Y-85045600D01*
X146494970Y-85105959D01*
X146513533Y-85166379D01*
X146534644Y-85225027D01*
X146558235Y-85281782D01*
X146584226Y-85336605D01*
X146612535Y-85389456D01*
X146643082Y-85440294D01*
X146675786Y-85489080D01*
X146710567Y-85535774D01*
X146747342Y-85580336D01*
X146786033Y-85622726D01*
X146826557Y-85662904D01*
X146868834Y-85700831D01*
X146912783Y-85736465D01*
X146958324Y-85769768D01*
X147005375Y-85800700D01*
X147053856Y-85829219D01*
X147103686Y-85855288D01*
X147154785Y-85878865D01*
X147207070Y-85899911D01*
X147260462Y-85918386D01*
X147314880Y-85934250D01*
X147370242Y-85947462D01*
X147426469Y-85957984D01*
X147483479Y-85965775D01*
X147541191Y-85970795D01*
X147599526Y-85973005D01*
X147658401Y-85972364D01*
X147717736Y-85968832D01*
X147777450Y-85962370D01*
X147837463Y-85952937D01*
X147897693Y-85940495D01*
X147958060Y-85925002D01*
X148018483Y-85906419D01*
X148018748Y-85906419D01*
X148079079Y-85884753D01*
X148137463Y-85860684D01*
X148193860Y-85834291D01*
X148248230Y-85805651D01*
X148300534Y-85774843D01*
X148350733Y-85741944D01*
X148398787Y-85707033D01*
X148444657Y-85670187D01*
X148488303Y-85631485D01*
X148529687Y-85591005D01*
X148568768Y-85548824D01*
X148605507Y-85505020D01*
X148639866Y-85459672D01*
X148671804Y-85412858D01*
X148701282Y-85364655D01*
X148728261Y-85315141D01*
X148752701Y-85264395D01*
X148774564Y-85212495D01*
X148793809Y-85159518D01*
X148810397Y-85105543D01*
X148824289Y-85050647D01*
X148835446Y-84994908D01*
X148843827Y-84938406D01*
X148849395Y-84881216D01*
X148852108Y-84823418D01*
X148851929Y-84765090D01*
X148848817Y-84706309D01*
X148842733Y-84647154D01*
X148833638Y-84587702D01*
X148821492Y-84528032D01*
X148806257Y-84468221D01*
X148787891Y-84408348D01*
X148766489Y-84348875D01*
X148742617Y-84291329D01*
X148716354Y-84235752D01*
X148687779Y-84182182D01*
X148656971Y-84130661D01*
X148624010Y-84081227D01*
X148599173Y-84047691D01*
X149202670Y-84047691D01*
X149204364Y-84108383D01*
X149209055Y-84169679D01*
X149216793Y-84231503D01*
X149227629Y-84293783D01*
X149241231Y-84354631D01*
X149257528Y-84413911D01*
X149276445Y-84471574D01*
X149297907Y-84527571D01*
X149321840Y-84581850D01*
X149348168Y-84634364D01*
X149376817Y-84685061D01*
X149407711Y-84733893D01*
X149440776Y-84780809D01*
X149475936Y-84825761D01*
X149513116Y-84868697D01*
X149552242Y-84909569D01*
X149593238Y-84948327D01*
X149636030Y-84984921D01*
X149680542Y-85019301D01*
X149726700Y-85051418D01*
X149774428Y-85081222D01*
X149823651Y-85108663D01*
X149874295Y-85133691D01*
X149926284Y-85156258D01*
X149979544Y-85176312D01*
X150033999Y-85193806D01*
X150089575Y-85208687D01*
X150146196Y-85220908D01*
X150203788Y-85230418D01*
X150262275Y-85237168D01*
X150321583Y-85241108D01*
X150381636Y-85242188D01*
X150442360Y-85240358D01*
X150503679Y-85235569D01*
X150565519Y-85227771D01*
X150627804Y-85216915D01*
X150690358Y-85203000D01*
X150751285Y-85186455D01*
X150810535Y-85167354D01*
X150868060Y-85145768D01*
X150923810Y-85121770D01*
X150977737Y-85095433D01*
X151029791Y-85066829D01*
X151079923Y-85036031D01*
X151128085Y-85003111D01*
X151174226Y-84968143D01*
X151218299Y-84931198D01*
X151260254Y-84892349D01*
X151300041Y-84851669D01*
X151337613Y-84809230D01*
X151372919Y-84765105D01*
X151405911Y-84719366D01*
X151436539Y-84672086D01*
X151464755Y-84623338D01*
X151490509Y-84573195D01*
X151513753Y-84521727D01*
X151534436Y-84469010D01*
X151552512Y-84415114D01*
X151567929Y-84360112D01*
X151580639Y-84304078D01*
X151590593Y-84247083D01*
X151597742Y-84189200D01*
X151602037Y-84130502D01*
X151603429Y-84071061D01*
X151601868Y-84010951D01*
X151597306Y-83950242D01*
X151589693Y-83889009D01*
X151578981Y-83827323D01*
X151565209Y-83765625D01*
X151548746Y-83705530D01*
X151547592Y-83701996D01*
X152027209Y-83701996D01*
X152030096Y-83765146D01*
X152035896Y-83827215D01*
X152044569Y-83888071D01*
X152056046Y-83947654D01*
X152070259Y-84005905D01*
X152087141Y-84062767D01*
X152106623Y-84118179D01*
X152128637Y-84172084D01*
X152153115Y-84224421D01*
X152179988Y-84275134D01*
X152209189Y-84324162D01*
X152240649Y-84371446D01*
X152274300Y-84416929D01*
X152310074Y-84460552D01*
X152347902Y-84502254D01*
X152387718Y-84541978D01*
X152429451Y-84579666D01*
X152473035Y-84615257D01*
X152518402Y-84648693D01*
X152565482Y-84679916D01*
X152614208Y-84708866D01*
X152664511Y-84735485D01*
X152716324Y-84759714D01*
X152769578Y-84781494D01*
X152824206Y-84800766D01*
X152880138Y-84817472D01*
X152937307Y-84831553D01*
X152995645Y-84842949D01*
X153055083Y-84851602D01*
X153115553Y-84857454D01*
X153176988Y-84860445D01*
X153239319Y-84860517D01*
X153302477Y-84857610D01*
X153302477Y-84857611D01*
X153366297Y-84851694D01*
X153428833Y-84842964D01*
X153490027Y-84831489D01*
X153549821Y-84817334D01*
X153608158Y-84800563D01*
X153664981Y-84781244D01*
X153720230Y-84759441D01*
X153773849Y-84735220D01*
X153825779Y-84708648D01*
X153875964Y-84679788D01*
X153924345Y-84648708D01*
X153970864Y-84615472D01*
X154015464Y-84580147D01*
X154058087Y-84542798D01*
X154098676Y-84503490D01*
X154137171Y-84462290D01*
X154173517Y-84419263D01*
X154207654Y-84374475D01*
X154239526Y-84327990D01*
X154269074Y-84279876D01*
X154296241Y-84230197D01*
X154320969Y-84179020D01*
X154343201Y-84126409D01*
X154362877Y-84072431D01*
X154379942Y-84017151D01*
X154394336Y-83960635D01*
X154406003Y-83902948D01*
X154414885Y-83844156D01*
X154420923Y-83784325D01*
X154424060Y-83723520D01*
X154424238Y-83661808D01*
X154424225Y-83661528D01*
X154882398Y-83661528D01*
X154882595Y-83722996D01*
X154885744Y-83783590D01*
X154891786Y-83843242D01*
X154900662Y-83901885D01*
X154912312Y-83959450D01*
X154926678Y-84015870D01*
X154943699Y-84071079D01*
X154963316Y-84125007D01*
X154985471Y-84177588D01*
X155010103Y-84228755D01*
X155037153Y-84278439D01*
X155066562Y-84326573D01*
X155098271Y-84373089D01*
X155132220Y-84417921D01*
X155168351Y-84461000D01*
X155206602Y-84502259D01*
X155246916Y-84541631D01*
X155289233Y-84579047D01*
X155333493Y-84614441D01*
X155379638Y-84647744D01*
X155427607Y-84678890D01*
X155477342Y-84707811D01*
X155528783Y-84734439D01*
X155581871Y-84758706D01*
X155636546Y-84780546D01*
X155692750Y-84799890D01*
X155750422Y-84816671D01*
X155809504Y-84830822D01*
X155869935Y-84842275D01*
X155931658Y-84850962D01*
X155994611Y-84856817D01*
X156058634Y-84859804D01*
X156121774Y-84859826D01*
X156183964Y-84856939D01*
X156245139Y-84851201D01*
X156305231Y-84842669D01*
X156364175Y-84831399D01*
X156421904Y-84817450D01*
X156478352Y-84800878D01*
X156533454Y-84781741D01*
X156587141Y-84760096D01*
X156639349Y-84736000D01*
X156690011Y-84709510D01*
X156739060Y-84680683D01*
X156786431Y-84649578D01*
X156832057Y-84616250D01*
X156875872Y-84580757D01*
X156917810Y-84543157D01*
X156957804Y-84503507D01*
X156995788Y-84461863D01*
X157031695Y-84418283D01*
X157065461Y-84372824D01*
X157097017Y-84325544D01*
X157126298Y-84276500D01*
X157153238Y-84225749D01*
X157177771Y-84173347D01*
X157199829Y-84119353D01*
X157217099Y-84070222D01*
X157703659Y-84070222D01*
X157705071Y-84129523D01*
X157709370Y-84188107D01*
X157716506Y-84245897D01*
X157726430Y-84302820D01*
X157739090Y-84358802D01*
X157754436Y-84413767D01*
X157772418Y-84467641D01*
X157792986Y-84520350D01*
X157816090Y-84571819D01*
X157841678Y-84621974D01*
X157869701Y-84670740D01*
X157900108Y-84718043D01*
X157932849Y-84763807D01*
X157967874Y-84807959D01*
X158005132Y-84850425D01*
X158044573Y-84891129D01*
X158086147Y-84929997D01*
X158129803Y-84966954D01*
X158175490Y-85001927D01*
X158223160Y-85034840D01*
X158272761Y-85065619D01*
X158324242Y-85094189D01*
X158377555Y-85120477D01*
X158432647Y-85144407D01*
X158489470Y-85165905D01*
X158547972Y-85184897D01*
X158608103Y-85201307D01*
X158669813Y-85215062D01*
X158732939Y-85226095D01*
X158795563Y-85234075D01*
X158857613Y-85239049D01*
X158919016Y-85241066D01*
X158979700Y-85240175D01*
X159039590Y-85236424D01*
X159098615Y-85229861D01*
X159156701Y-85220536D01*
X159213774Y-85208496D01*
X159269763Y-85193790D01*
X159324594Y-85176466D01*
X159378194Y-85156573D01*
X159430489Y-85134159D01*
X159481408Y-85109273D01*
X159530877Y-85081963D01*
X159578823Y-85052278D01*
X159625173Y-85020265D01*
X159669853Y-84985974D01*
X159712792Y-84949453D01*
X159753916Y-84910750D01*
X159793151Y-84869914D01*
X159830426Y-84826994D01*
X159834350Y-84821987D01*
X160455395Y-84821987D01*
X160458092Y-84879716D01*
X160463623Y-84936853D01*
X160471946Y-84993319D01*
X160483021Y-85049033D01*
X160496808Y-85103915D01*
X160513265Y-85157886D01*
X160532352Y-85210863D01*
X160554029Y-85262769D01*
X160578255Y-85313521D01*
X160604989Y-85363039D01*
X160634191Y-85411245D01*
X160665820Y-85458056D01*
X160699836Y-85503394D01*
X160736198Y-85547177D01*
X160774865Y-85589325D01*
X160815797Y-85629759D01*
X160858953Y-85668397D01*
X160904293Y-85705160D01*
X160951775Y-85739967D01*
X161001360Y-85772738D01*
X161053007Y-85803393D01*
X161106675Y-85831851D01*
X161162324Y-85858032D01*
X161219912Y-85881857D01*
X161279401Y-85903244D01*
X161340662Y-85922124D01*
X161401809Y-85937913D01*
X161462764Y-85950650D01*
X161523447Y-85960373D01*
X161583780Y-85967121D01*
X161643685Y-85970932D01*
X161703084Y-85971847D01*
X161761897Y-85969902D01*
X161820046Y-85965138D01*
X161877452Y-85957592D01*
X161934038Y-85947303D01*
X161989724Y-85934312D01*
X162044432Y-85918655D01*
X162098083Y-85900371D01*
X162150600Y-85879501D01*
X162201902Y-85856082D01*
X162251913Y-85830153D01*
X162300553Y-85801752D01*
X162347744Y-85770919D01*
X162393406Y-85737693D01*
X162437463Y-85702112D01*
X162479835Y-85664214D01*
X162520443Y-85624040D01*
X162559210Y-85581626D01*
X162596056Y-85537013D01*
X162630903Y-85490238D01*
X162663672Y-85441342D01*
X162694286Y-85390361D01*
X162722665Y-85337336D01*
X162748731Y-85282305D01*
X162772405Y-85225306D01*
X162793610Y-85166379D01*
X162793610Y-85166115D01*
X162812172Y-85105695D01*
X162827601Y-85045335D01*
X162839937Y-84985115D01*
X162849219Y-84925115D01*
X162855486Y-84865413D01*
X162858777Y-84806090D01*
X162859132Y-84747223D01*
X162856589Y-84688893D01*
X162851189Y-84631179D01*
X162842969Y-84574160D01*
X162831971Y-84517916D01*
X162818232Y-84462525D01*
X162801792Y-84408068D01*
X162782690Y-84354622D01*
X162760966Y-84302269D01*
X162736659Y-84251086D01*
X162709807Y-84201154D01*
X162680451Y-84152552D01*
X162648629Y-84105358D01*
X162614381Y-84059653D01*
X162577746Y-84015515D01*
X162538763Y-83973024D01*
X162497471Y-83932259D01*
X162453910Y-83893299D01*
X162408119Y-83856225D01*
X162360137Y-83821114D01*
X162310003Y-83788047D01*
X162257757Y-83757103D01*
X162203438Y-83728360D01*
X162147085Y-83701899D01*
X162088738Y-83677798D01*
X162028435Y-83656138D01*
X161967985Y-83637563D01*
X161907588Y-83622097D01*
X161847324Y-83609698D01*
X161787274Y-83600329D01*
X161727517Y-83593950D01*
X161668135Y-83590521D01*
X161609208Y-83590003D01*
X161550817Y-83592357D01*
X161493041Y-83597543D01*
X161435961Y-83605522D01*
X161379659Y-83616255D01*
X161324213Y-83629702D01*
X161269705Y-83645824D01*
X161216216Y-83664582D01*
X161163825Y-83685937D01*
X161112613Y-83709848D01*
X161062661Y-83736277D01*
X161014049Y-83765185D01*
X160966858Y-83796531D01*
X160921167Y-83830277D01*
X160877058Y-83866383D01*
X160834611Y-83904811D01*
X160793907Y-83945520D01*
X160755025Y-83988471D01*
X160718047Y-84033625D01*
X160683052Y-84080943D01*
X160650122Y-84130385D01*
X160619336Y-84181912D01*
X160590776Y-84235485D01*
X160564522Y-84291064D01*
X160540654Y-84348610D01*
X160519252Y-84408084D01*
X160500981Y-84467701D01*
X160485826Y-84527290D01*
X160473749Y-84586770D01*
X160464708Y-84646059D01*
X160458662Y-84705079D01*
X160455571Y-84763748D01*
X160455395Y-84821987D01*
X159834350Y-84821987D01*
X159865666Y-84782037D01*
X159898799Y-84735092D01*
X159929752Y-84686208D01*
X159958453Y-84635432D01*
X159984827Y-84582815D01*
X160008801Y-84528403D01*
X160030304Y-84472245D01*
X160049262Y-84414391D01*
X160065601Y-84354887D01*
X160079249Y-84293783D01*
X160090062Y-84231503D01*
X160097775Y-84169678D01*
X160102440Y-84108382D01*
X160104103Y-84047688D01*
X160102815Y-83987670D01*
X160098623Y-83928401D01*
X160091577Y-83869956D01*
X160081725Y-83812407D01*
X160069117Y-83755829D01*
X160053801Y-83700295D01*
X160035825Y-83645879D01*
X160015239Y-83592654D01*
X159992091Y-83540694D01*
X159966430Y-83490073D01*
X159938306Y-83440865D01*
X159907766Y-83393142D01*
X159874859Y-83346979D01*
X159839635Y-83302449D01*
X159802142Y-83259625D01*
X159762428Y-83218583D01*
X159720543Y-83179394D01*
X159676536Y-83142134D01*
X159630455Y-83106875D01*
X159582349Y-83073690D01*
X159532266Y-83042655D01*
X159480257Y-83013842D01*
X159426368Y-82987325D01*
X159370650Y-82963177D01*
X159313150Y-82941473D01*
X159253919Y-82922286D01*
X159193003Y-82905689D01*
X159130453Y-82891756D01*
X159068167Y-82880909D01*
X159006322Y-82873140D01*
X158944995Y-82868399D01*
X158884259Y-82866638D01*
X158824190Y-82867807D01*
X158764863Y-82871857D01*
X158706353Y-82878739D01*
X158648734Y-82888403D01*
X158592081Y-82900802D01*
X158536469Y-82915884D01*
X158481973Y-82933602D01*
X158428668Y-82953906D01*
X158376629Y-82976747D01*
X158325930Y-83002075D01*
X158276646Y-83029842D01*
X158228853Y-83059998D01*
X158182624Y-83092495D01*
X158138035Y-83127282D01*
X158095162Y-83164311D01*
X158054077Y-83203533D01*
X158014857Y-83244898D01*
X157977577Y-83288358D01*
X157942310Y-83333863D01*
X157909132Y-83381364D01*
X157878119Y-83430811D01*
X157849344Y-83482156D01*
X157822882Y-83535350D01*
X157798809Y-83590343D01*
X157777199Y-83647085D01*
X157758127Y-83705529D01*
X157741668Y-83765625D01*
X157727897Y-83827323D01*
X157717254Y-83888753D01*
X157709701Y-83949762D01*
X157705186Y-84010276D01*
X157703659Y-84070222D01*
X157217099Y-84070222D01*
X157219348Y-84063823D01*
X157236260Y-84006816D01*
X157250499Y-83948387D01*
X157262000Y-83888594D01*
X157270695Y-83827495D01*
X157276518Y-83765146D01*
X157279382Y-83701995D01*
X157279230Y-83639686D01*
X157276121Y-83578287D01*
X157270113Y-83517863D01*
X157261262Y-83458482D01*
X157249626Y-83400211D01*
X157235263Y-83343117D01*
X157218231Y-83287267D01*
X157198587Y-83232728D01*
X157176389Y-83179566D01*
X157151694Y-83127849D01*
X157124560Y-83077644D01*
X157095044Y-83029017D01*
X157063205Y-82982036D01*
X157029099Y-82936767D01*
X156992785Y-82893278D01*
X156954320Y-82851635D01*
X156913761Y-82811905D01*
X156871167Y-82774156D01*
X156826594Y-82738454D01*
X156780101Y-82704866D01*
X156731745Y-82673460D01*
X156681583Y-82644301D01*
X156629674Y-82617458D01*
X156576074Y-82592996D01*
X156520841Y-82570984D01*
X156464034Y-82551488D01*
X156405709Y-82534574D01*
X156345925Y-82520310D01*
X156284738Y-82508763D01*
X156222207Y-82500000D01*
X156158388Y-82494087D01*
X156095253Y-82491214D01*
X156032943Y-82491334D01*
X155971525Y-82494391D01*
X155911069Y-82500326D01*
X155851641Y-82509082D01*
X155793311Y-82520599D01*
X155736147Y-82534821D01*
X155680216Y-82551688D01*
X155625587Y-82571143D01*
X155572328Y-82593128D01*
X155520508Y-82617585D01*
X155470193Y-82644455D01*
X155421454Y-82673681D01*
X155374356Y-82705204D01*
X155328970Y-82738966D01*
X155285363Y-82774910D01*
X155243603Y-82812977D01*
X155203758Y-82853108D01*
X155165897Y-82895247D01*
X155130087Y-82939334D01*
X155096397Y-82985313D01*
X155064895Y-83033124D01*
X155035650Y-83082709D01*
X155008729Y-83134011D01*
X154984200Y-83186972D01*
X154962132Y-83241533D01*
X154942592Y-83297636D01*
X154925650Y-83355223D01*
X154911373Y-83414237D01*
X154899829Y-83474618D01*
X154891086Y-83536309D01*
X154885213Y-83599252D01*
X154882398Y-83661528D01*
X154424225Y-83661528D01*
X154421400Y-83599253D01*
X154415527Y-83536333D01*
X154406785Y-83474662D01*
X154395239Y-83414299D01*
X154380956Y-83355301D01*
X154364001Y-83297728D01*
X154344442Y-83241637D01*
X154322344Y-83187087D01*
X154297773Y-83134136D01*
X154270797Y-83082843D01*
X154241481Y-83033265D01*
X154209891Y-82985463D01*
X154176094Y-82939493D01*
X154140156Y-82895414D01*
X154102144Y-82853285D01*
X154062123Y-82813164D01*
X154020159Y-82775109D01*
X153976320Y-82739178D01*
X153930672Y-82705431D01*
X153883280Y-82673925D01*
X153834211Y-82644719D01*
X153783532Y-82617871D01*
X153731307Y-82593440D01*
X153677605Y-82571484D01*
X153622491Y-82552061D01*
X153566031Y-82535229D01*
X153508292Y-82521048D01*
X153449339Y-82509575D01*
X153389240Y-82500869D01*
X153328060Y-82494989D01*
X153265866Y-82491992D01*
X153202724Y-82491936D01*
X153138700Y-82494882D01*
X153075746Y-82500745D01*
X153014024Y-82509461D01*
X152953593Y-82520962D01*
X152894512Y-82535182D01*
X152836842Y-82552053D01*
X152780640Y-82571508D01*
X152725968Y-82593481D01*
X152672885Y-82617905D01*
X152621449Y-82644712D01*
X152571720Y-82673835D01*
X152523759Y-82705208D01*
X152477624Y-82738764D01*
X152433375Y-82774436D01*
X152391072Y-82812157D01*
X152350773Y-82851859D01*
X152312539Y-82893476D01*
X152276428Y-82936942D01*
X152242501Y-82982188D01*
X152210817Y-83029148D01*
X152181436Y-83077756D01*
X152154416Y-83127943D01*
X152129817Y-83179644D01*
X152107700Y-83232791D01*
X152088122Y-83287317D01*
X152071145Y-83343155D01*
X152056827Y-83400239D01*
X152045228Y-83458502D01*
X152036407Y-83517875D01*
X152030424Y-83578294D01*
X152027338Y-83639690D01*
X152027209Y-83701996D01*
X151547592Y-83701996D01*
X151529665Y-83647087D01*
X151508040Y-83590347D01*
X151483943Y-83535357D01*
X151457449Y-83482169D01*
X151428630Y-83430831D01*
X151397560Y-83381393D01*
X151364311Y-83333904D01*
X151328958Y-83288415D01*
X151291573Y-83244974D01*
X151252229Y-83203631D01*
X151211000Y-83164436D01*
X151167960Y-83127437D01*
X151123180Y-83092686D01*
X151076736Y-83060230D01*
X151028699Y-83030120D01*
X150979143Y-83002405D01*
X150928142Y-82977135D01*
X150875768Y-82954358D01*
X150822095Y-82934126D01*
X150767197Y-82916486D01*
X150711145Y-82901490D01*
X150654014Y-82889185D01*
X150595877Y-82879622D01*
X150536808Y-82872850D01*
X150476878Y-82868919D01*
X150416162Y-82867879D01*
X150354733Y-82869778D01*
X150292665Y-82874666D01*
X150230029Y-82882593D01*
X150166900Y-82893608D01*
X150105191Y-82907373D01*
X150045065Y-82923812D01*
X149986571Y-82942852D01*
X149929761Y-82964418D01*
X149874684Y-82988437D01*
X149821392Y-83014835D01*
X149769934Y-83043538D01*
X149720362Y-83074472D01*
X149672726Y-83107562D01*
X149627076Y-83142736D01*
X149583463Y-83179918D01*
X149541938Y-83219035D01*
X149502551Y-83260013D01*
X149465353Y-83302778D01*
X149430393Y-83347256D01*
X149397723Y-83393373D01*
X149367394Y-83441055D01*
X149339455Y-83490228D01*
X149313957Y-83540818D01*
X149290951Y-83592752D01*
X149270487Y-83645954D01*
X149252616Y-83700352D01*
X149237389Y-83755870D01*
X149224855Y-83812436D01*
X149215066Y-83869975D01*
X149208072Y-83928413D01*
X149203923Y-83987677D01*
X149202670Y-84047691D01*
X148599173Y-84047691D01*
X148588973Y-84033920D01*
X148551941Y-83988781D01*
X148512992Y-83945849D01*
X148472205Y-83905164D01*
X148429658Y-83866766D01*
X148385432Y-83830695D01*
X148339605Y-83796991D01*
X148292256Y-83765693D01*
X148243463Y-83736842D01*
X148193307Y-83710477D01*
X148141865Y-83686638D01*
X148089217Y-83665365D01*
X148035441Y-83646698D01*
X147980618Y-83630677D01*
X147924825Y-83617342D01*
X147868142Y-83606732D01*
X147810647Y-83598888D01*
X147752420Y-83593849D01*
X147693539Y-83591655D01*
X147634084Y-83592346D01*
X147574134Y-83595963D01*
X147513767Y-83602544D01*
X147453062Y-83612129D01*
X147392099Y-83624759D01*
X147330956Y-83640474D01*
X147269712Y-83659313D01*
X147210203Y-83680709D01*
X147152602Y-83704562D01*
X147096948Y-83730791D01*
X147043283Y-83759317D01*
X146991648Y-83790060D01*
X146942083Y-83822940D01*
X146894629Y-83857877D01*
X146849327Y-83894792D01*
X146806217Y-83933604D01*
X146765340Y-83974234D01*
X146726738Y-84016602D01*
X146690450Y-84060628D01*
X146656518Y-84106232D01*
X146624982Y-84153334D01*
X146595883Y-84201855D01*
X146569261Y-84251714D01*
X146545158Y-84302833D01*
X146523614Y-84355130D01*
X146504671Y-84408527D01*
X146488367Y-84462943D01*
X146474746Y-84518298D01*
X146463846Y-84574513D01*
X146455709Y-84631508D01*
X146450376Y-84689203D01*
X146447888Y-84747518D01*
X146168072Y-84747518D01*
X146169579Y-84691704D01*
X146174693Y-84623170D01*
X146183005Y-84555412D01*
X146194470Y-84488514D01*
X146209045Y-84422563D01*
X146226684Y-84357643D01*
X146247341Y-84293840D01*
X146270973Y-84231239D01*
X146297534Y-84169925D01*
X146326980Y-84109985D01*
X146359264Y-84051502D01*
X146394344Y-83994563D01*
X146432172Y-83939253D01*
X146472706Y-83885656D01*
X146515899Y-83833859D01*
X146561707Y-83783947D01*
X146610086Y-83736004D01*
X146660989Y-83690117D01*
X146714372Y-83646371D01*
X146770191Y-83604850D01*
X146828399Y-83565641D01*
X146888954Y-83528829D01*
X146951808Y-83494498D01*
X147016919Y-83462734D01*
X147084240Y-83433623D01*
X147031695Y-83411398D01*
X148208454Y-83411398D01*
X148263300Y-83434129D01*
X148317069Y-83459144D01*
X148369703Y-83486413D01*
X148421142Y-83515904D01*
X148471327Y-83547590D01*
X148520198Y-83581439D01*
X148567697Y-83617422D01*
X148613763Y-83655509D01*
X148658338Y-83695671D01*
X148701362Y-83737877D01*
X148742777Y-83782097D01*
X148782522Y-83828303D01*
X148820538Y-83876463D01*
X148856767Y-83926548D01*
X148891148Y-83978529D01*
X148923623Y-84032375D01*
X148924967Y-83976620D01*
X148928338Y-83921400D01*
X148933707Y-83866753D01*
X148941049Y-83812716D01*
X148950337Y-83759329D01*
X148961544Y-83706629D01*
X148974643Y-83654654D01*
X148989608Y-83603444D01*
X149006412Y-83553036D01*
X149025028Y-83503469D01*
X149045430Y-83454780D01*
X149067591Y-83407009D01*
X149091484Y-83360192D01*
X149117083Y-83314370D01*
X149144361Y-83269579D01*
X149173291Y-83225859D01*
X149203846Y-83183247D01*
X149236000Y-83141782D01*
X149269726Y-83101502D01*
X149304998Y-83062445D01*
X149341788Y-83024649D01*
X149380070Y-82988154D01*
X149419818Y-82952996D01*
X149461004Y-82919215D01*
X149503602Y-82886849D01*
X149547586Y-82855935D01*
X149592928Y-82826513D01*
X149639602Y-82798620D01*
X149687581Y-82772295D01*
X149736838Y-82747576D01*
X149787347Y-82724501D01*
X149839081Y-82703108D01*
X149802139Y-82688027D01*
X150960385Y-82688027D01*
X151026440Y-82715240D01*
X151090795Y-82745641D01*
X151153356Y-82779168D01*
X151214030Y-82815759D01*
X151272722Y-82855353D01*
X151329339Y-82897889D01*
X151383788Y-82943304D01*
X151435974Y-82991537D01*
X151485803Y-83042527D01*
X151533182Y-83096212D01*
X151578017Y-83152529D01*
X151620215Y-83211418D01*
X151659680Y-83272818D01*
X151696321Y-83336665D01*
X151730042Y-83402899D01*
X151760750Y-83471458D01*
X151776957Y-83372788D01*
X151799364Y-83276737D01*
X151827790Y-83183507D01*
X151862052Y-83093298D01*
X151901970Y-83006313D01*
X151947362Y-82922752D01*
X151998046Y-82842817D01*
X152053842Y-82766708D01*
X152114568Y-82694626D01*
X152180042Y-82626774D01*
X152250083Y-82563351D01*
X152324511Y-82504559D01*
X152403142Y-82450600D01*
X152485797Y-82401674D01*
X152572293Y-82357983D01*
X152662450Y-82319727D01*
X152648899Y-82314171D01*
X153784548Y-82314171D01*
X153863497Y-82346995D01*
X153939812Y-82384170D01*
X154013355Y-82425573D01*
X154083986Y-82471085D01*
X154151564Y-82520585D01*
X154215949Y-82573950D01*
X154277002Y-82631062D01*
X154334583Y-82691797D01*
X154388552Y-82756037D01*
X154438769Y-82823659D01*
X154485093Y-82894543D01*
X154527386Y-82968568D01*
X154565507Y-83045613D01*
X154599316Y-83125557D01*
X154628673Y-83208279D01*
X154653439Y-83293658D01*
X154653439Y-83293923D01*
X154678201Y-83208494D01*
X154707545Y-83125723D01*
X154741328Y-83045731D01*
X154779406Y-82968639D01*
X154821635Y-82894568D01*
X154867873Y-82823640D01*
X154917975Y-82755976D01*
X154971799Y-82691698D01*
X155029201Y-82630927D01*
X155090038Y-82573784D01*
X155154166Y-82520390D01*
X155221442Y-82470866D01*
X155291722Y-82425335D01*
X155364863Y-82383917D01*
X155440723Y-82346734D01*
X155503984Y-82320256D01*
X156641518Y-82320256D01*
X156641783Y-82320520D01*
X156732452Y-82358910D01*
X156819396Y-82402706D01*
X156902438Y-82451709D01*
X156981400Y-82505721D01*
X157056105Y-82564541D01*
X157126376Y-82627972D01*
X157192035Y-82695813D01*
X157252904Y-82767865D01*
X157308806Y-82843929D01*
X157359563Y-82923807D01*
X157404998Y-83007298D01*
X157444933Y-83094204D01*
X157479191Y-83184325D01*
X157507595Y-83277462D01*
X157529966Y-83373416D01*
X157546128Y-83471987D01*
X157576783Y-83403428D01*
X157610443Y-83337193D01*
X157647012Y-83273341D01*
X157686395Y-83211935D01*
X157728495Y-83153034D01*
X157773217Y-83096699D01*
X157820465Y-83042990D01*
X157870143Y-82991967D01*
X157922157Y-82943692D01*
X157976409Y-82898224D01*
X158032805Y-82855624D01*
X158091248Y-82815953D01*
X158151643Y-82779271D01*
X158213894Y-82745638D01*
X158277906Y-82715115D01*
X158305464Y-82703638D01*
X159466473Y-82703638D01*
X159569168Y-82748468D01*
X159666769Y-82799811D01*
X159759073Y-82857362D01*
X159845873Y-82920820D01*
X159926964Y-82989879D01*
X160002138Y-83064239D01*
X160071192Y-83143595D01*
X160133918Y-83227645D01*
X160190111Y-83316085D01*
X160239566Y-83408613D01*
X160282076Y-83504925D01*
X160317436Y-83604718D01*
X160345439Y-83707689D01*
X160365881Y-83813535D01*
X160378555Y-83921953D01*
X160383255Y-84032640D01*
X160415724Y-83978794D01*
X160450086Y-83926812D01*
X160486283Y-83876724D01*
X160524254Y-83828559D01*
X160563939Y-83782346D01*
X160605279Y-83738113D01*
X160648215Y-83695891D01*
X160692686Y-83655708D01*
X160738632Y-83617592D01*
X160785996Y-83581574D01*
X160834715Y-83547682D01*
X160884731Y-83515946D01*
X160935985Y-83486393D01*
X160988416Y-83459054D01*
X161041965Y-83433958D01*
X161096571Y-83411134D01*
X160992841Y-83364943D01*
X160894487Y-83312509D01*
X160801675Y-83254158D01*
X160714572Y-83190215D01*
X160633344Y-83121003D01*
X160558159Y-83046849D01*
X160489182Y-82968076D01*
X160426581Y-82885010D01*
X160370523Y-82797975D01*
X160321173Y-82707296D01*
X160278698Y-82613297D01*
X160243266Y-82516305D01*
X160215043Y-82416642D01*
X160194195Y-82314635D01*
X160180890Y-82210608D01*
X160175293Y-82104886D01*
X160143645Y-82156241D01*
X160110055Y-82205905D01*
X160074577Y-82253842D01*
X160037267Y-82300016D01*
X159998178Y-82344392D01*
X159957366Y-82386934D01*
X159914885Y-82427606D01*
X159870790Y-82466373D01*
X159825135Y-82503199D01*
X159777976Y-82538048D01*
X159729366Y-82570885D01*
X159679360Y-82601674D01*
X159628013Y-82630380D01*
X159575380Y-82656966D01*
X159521515Y-82681397D01*
X159466473Y-82703638D01*
X158305464Y-82703638D01*
X158343582Y-82687763D01*
X158252096Y-82648626D01*
X158164568Y-82604290D01*
X158081146Y-82554974D01*
X158001980Y-82500896D01*
X157927221Y-82442279D01*
X157857017Y-82379340D01*
X157791518Y-82312299D01*
X157730874Y-82241377D01*
X157675234Y-82166794D01*
X157624748Y-82088768D01*
X157579565Y-82007520D01*
X157539836Y-81923270D01*
X157505710Y-81836236D01*
X157477336Y-81746640D01*
X157454864Y-81654701D01*
X157438443Y-81560638D01*
X157408422Y-81626017D01*
X157375366Y-81689351D01*
X157339361Y-81750566D01*
X157300492Y-81809590D01*
X157258842Y-81866349D01*
X157214498Y-81920769D01*
X157167544Y-81972778D01*
X157118065Y-82022302D01*
X157066146Y-82069269D01*
X157011872Y-82113604D01*
X156955327Y-82155234D01*
X156896596Y-82194087D01*
X156835765Y-82230089D01*
X156772919Y-82263167D01*
X156708141Y-82293247D01*
X156641518Y-82320256D01*
X155503984Y-82320256D01*
X155519156Y-82313906D01*
X155439755Y-82280775D01*
X155363161Y-82243484D01*
X155289498Y-82202173D01*
X155218887Y-82156979D01*
X155151451Y-82108042D01*
X155087312Y-82055499D01*
X155026594Y-81999489D01*
X154969417Y-81940149D01*
X154915906Y-81877620D01*
X154866182Y-81812038D01*
X154820368Y-81743542D01*
X154778587Y-81672271D01*
X154740960Y-81598363D01*
X154707610Y-81521956D01*
X154678660Y-81443189D01*
X154654233Y-81362200D01*
X154629792Y-81443369D01*
X154600803Y-81522282D01*
X154567384Y-81598803D01*
X154529656Y-81672796D01*
X154487739Y-81744126D01*
X154441753Y-81812656D01*
X154391819Y-81878252D01*
X154338056Y-81940778D01*
X154280585Y-82000097D01*
X154219526Y-82056075D01*
X154154999Y-82108575D01*
X154087124Y-82157463D01*
X154016021Y-82202602D01*
X153941811Y-82243857D01*
X153864613Y-82281091D01*
X153784548Y-82314171D01*
X152648899Y-82314171D01*
X152596353Y-82292625D01*
X152532066Y-82262465D01*
X152469673Y-82229322D01*
X152409260Y-82193269D01*
X152350912Y-82154380D01*
X152294714Y-82112730D01*
X152240752Y-82068393D01*
X152189110Y-82021442D01*
X152139875Y-81971952D01*
X152093130Y-81919997D01*
X152048963Y-81865650D01*
X152007457Y-81808986D01*
X151968699Y-81750079D01*
X151932772Y-81689002D01*
X151899764Y-81625831D01*
X151869758Y-81560638D01*
X151853377Y-81654736D01*
X151830922Y-81746684D01*
X151802539Y-81836268D01*
X151768373Y-81923274D01*
X151728570Y-82007486D01*
X151683276Y-82088689D01*
X151632637Y-82166669D01*
X151576798Y-82241212D01*
X151515905Y-82312102D01*
X151450104Y-82379125D01*
X151379540Y-82442066D01*
X151304360Y-82500710D01*
X151224709Y-82554843D01*
X151140732Y-82604250D01*
X151052575Y-82648716D01*
X150960385Y-82688027D01*
X149802139Y-82688027D01*
X149784375Y-82680775D01*
X149730821Y-82656264D01*
X149678475Y-82629612D01*
X149627394Y-82600855D01*
X149577632Y-82570031D01*
X149529244Y-82537174D01*
X149482287Y-82502323D01*
X149436815Y-82465513D01*
X149392885Y-82426780D01*
X149350550Y-82386161D01*
X149309868Y-82343693D01*
X149270893Y-82299412D01*
X149233680Y-82253354D01*
X149198286Y-82205556D01*
X149164765Y-82156055D01*
X149133173Y-82104886D01*
X149133173Y-82104621D01*
X149131374Y-82157644D01*
X149127625Y-82210274D01*
X149121948Y-82262471D01*
X149114362Y-82314198D01*
X149104887Y-82365413D01*
X149093544Y-82416078D01*
X149080353Y-82466154D01*
X149065332Y-82515601D01*
X149048504Y-82564380D01*
X149029887Y-82612452D01*
X149009502Y-82659776D01*
X148987368Y-82706314D01*
X148963507Y-82752027D01*
X148937937Y-82796875D01*
X148910679Y-82840819D01*
X148881753Y-82883819D01*
X148851179Y-82925836D01*
X148818977Y-82966831D01*
X148785168Y-83006764D01*
X148749770Y-83045597D01*
X148712805Y-83083289D01*
X148674292Y-83119802D01*
X148634252Y-83155096D01*
X148592704Y-83189131D01*
X148549668Y-83221869D01*
X148505165Y-83253270D01*
X148459215Y-83283295D01*
X148411837Y-83311904D01*
X148363052Y-83339058D01*
X148312880Y-83364718D01*
X148261341Y-83388844D01*
X148208454Y-83411398D01*
X147031695Y-83411398D01*
X147013578Y-83403735D01*
X146944756Y-83370073D01*
X146877909Y-83332702D01*
X146813170Y-83291686D01*
X146750674Y-83247091D01*
X146690557Y-83198981D01*
X146632951Y-83147421D01*
X146577993Y-83092476D01*
X146525815Y-83034210D01*
X146476553Y-82972687D01*
X146430342Y-82907974D01*
X146387315Y-82840134D01*
X146347607Y-82769232D01*
X146311353Y-82695333D01*
X146278687Y-82618501D01*
X146249744Y-82538802D01*
X146226768Y-82463986D01*
X146207663Y-82389273D01*
X146192379Y-82314761D01*
X146180864Y-82240547D01*
X146173069Y-82166728D01*
X146168941Y-82093401D01*
X146168486Y-82028660D01*
X146448153Y-82028660D01*
X146448549Y-82087515D01*
X146451871Y-82146831D01*
X146458161Y-82206527D01*
X146467457Y-82266524D01*
X146479802Y-82326742D01*
X146495235Y-82387101D01*
X146513798Y-82447521D01*
X146514063Y-82447521D01*
X146535173Y-82506169D01*
X146558764Y-82562924D01*
X146584755Y-82617747D01*
X146613064Y-82670598D01*
X146643611Y-82721436D01*
X146676315Y-82770222D01*
X146711096Y-82816916D01*
X146747872Y-82861478D01*
X146786562Y-82903868D01*
X146827086Y-82944046D01*
X146869363Y-82981973D01*
X146913313Y-83017607D01*
X146958853Y-83050910D01*
X147005905Y-83081841D01*
X147054386Y-83110361D01*
X147104216Y-83136430D01*
X147155314Y-83160007D01*
X147207599Y-83181053D01*
X147260991Y-83199528D01*
X147315409Y-83215391D01*
X147370772Y-83228604D01*
X147426998Y-83239126D01*
X147484008Y-83246917D01*
X147541721Y-83251937D01*
X147600055Y-83254146D01*
X147658930Y-83253505D01*
X147718265Y-83249974D01*
X147777979Y-83243512D01*
X147837992Y-83234079D01*
X147898222Y-83221636D01*
X147958589Y-83206144D01*
X148019013Y-83187561D01*
X148079344Y-83165894D01*
X148137728Y-83141825D01*
X148194125Y-83115432D01*
X148248495Y-83086792D01*
X148300799Y-83055984D01*
X148350997Y-83023086D01*
X148399052Y-82988174D01*
X148444921Y-82951329D01*
X148488568Y-82912627D01*
X148529951Y-82872146D01*
X148569033Y-82829965D01*
X148605772Y-82786162D01*
X148640131Y-82740814D01*
X148672069Y-82693999D01*
X148701547Y-82645796D01*
X148728526Y-82596283D01*
X148752966Y-82545537D01*
X148774829Y-82493637D01*
X148794074Y-82440660D01*
X148810662Y-82386684D01*
X148824554Y-82331789D01*
X148835711Y-82276050D01*
X148844092Y-82219547D01*
X148849659Y-82162358D01*
X148852373Y-82104560D01*
X148852194Y-82046232D01*
X148849082Y-81987451D01*
X148842998Y-81928296D01*
X148833903Y-81868844D01*
X148821757Y-81809174D01*
X148806521Y-81749363D01*
X148788156Y-81689490D01*
X148766754Y-81630016D01*
X148742881Y-81572471D01*
X148716618Y-81516894D01*
X148688043Y-81463324D01*
X148657236Y-81411803D01*
X148624274Y-81362369D01*
X148599633Y-81329098D01*
X149203199Y-81329098D01*
X149204893Y-81389790D01*
X149209584Y-81451085D01*
X149217322Y-81512910D01*
X149228158Y-81575190D01*
X149241760Y-81636014D01*
X149258056Y-81695274D01*
X149276974Y-81752920D01*
X149298436Y-81808901D01*
X149322369Y-81863168D01*
X149348697Y-81915672D01*
X149377346Y-81966362D01*
X149408240Y-82015188D01*
X149441305Y-82062100D01*
X149476465Y-82107050D01*
X149513645Y-82149986D01*
X149552771Y-82190859D01*
X149593767Y-82229619D01*
X149636559Y-82266217D01*
X149681071Y-82300602D01*
X149727228Y-82332725D01*
X149774956Y-82362535D01*
X149824180Y-82389984D01*
X149874824Y-82415020D01*
X149926813Y-82437594D01*
X149980073Y-82457657D01*
X150034528Y-82475159D01*
X150090104Y-82490049D01*
X150146725Y-82502277D01*
X150204317Y-82511795D01*
X150262804Y-82518552D01*
X150322112Y-82522498D01*
X150382165Y-82523583D01*
X150442889Y-82521758D01*
X150504208Y-82516972D01*
X150566048Y-82509177D01*
X150628333Y-82498321D01*
X150690887Y-82484406D01*
X150751814Y-82467861D01*
X150811064Y-82448760D01*
X150868589Y-82427174D01*
X150924339Y-82403176D01*
X150978266Y-82376839D01*
X151030320Y-82348235D01*
X151080452Y-82317437D01*
X151128614Y-82284517D01*
X151174755Y-82249549D01*
X151218828Y-82212604D01*
X151260783Y-82173755D01*
X151300570Y-82133075D01*
X151338142Y-82090636D01*
X151373448Y-82046511D01*
X151406439Y-82000772D01*
X151437068Y-81953492D01*
X151465284Y-81904744D01*
X151491038Y-81854601D01*
X151514281Y-81803133D01*
X151534965Y-81750416D01*
X151553040Y-81696520D01*
X151568458Y-81641518D01*
X151581168Y-81585484D01*
X151591122Y-81528489D01*
X151598271Y-81470606D01*
X151602566Y-81411908D01*
X151603958Y-81352467D01*
X151602397Y-81292357D01*
X151597835Y-81231648D01*
X151590222Y-81170415D01*
X151579510Y-81108729D01*
X151565738Y-81047031D01*
X151549275Y-80986936D01*
X151547948Y-80982872D01*
X152028266Y-80982872D01*
X152031153Y-81046023D01*
X152036953Y-81108117D01*
X152045626Y-81168995D01*
X152057103Y-81228599D01*
X152071317Y-81286870D01*
X152088199Y-81343750D01*
X152107681Y-81399179D01*
X152129695Y-81453099D01*
X152154172Y-81505451D01*
X152181046Y-81556177D01*
X152210246Y-81605217D01*
X152241706Y-81652513D01*
X152275357Y-81698007D01*
X152311131Y-81741638D01*
X152348960Y-81783349D01*
X152388775Y-81823081D01*
X152430509Y-81860774D01*
X152474093Y-81896371D01*
X152519459Y-81929813D01*
X152566539Y-81961040D01*
X152615265Y-81989994D01*
X152665569Y-82016616D01*
X152717381Y-82040848D01*
X152770636Y-82062630D01*
X152825263Y-82081904D01*
X152881195Y-82098611D01*
X152938364Y-82112693D01*
X152996702Y-82124090D01*
X153056140Y-82132744D01*
X153116611Y-82138596D01*
X153178046Y-82141587D01*
X153240376Y-82141659D01*
X153303535Y-82138752D01*
X153367331Y-82132858D01*
X153429847Y-82124149D01*
X153491023Y-82112692D01*
X153550803Y-82098551D01*
X153609128Y-82081793D01*
X153665940Y-82062484D01*
X153721182Y-82040688D01*
X153774795Y-82016473D01*
X153826722Y-81989904D01*
X153876904Y-81961047D01*
X153925285Y-81929967D01*
X153971806Y-81896730D01*
X154016408Y-81861402D01*
X154059035Y-81824049D01*
X154099628Y-81784737D01*
X154138130Y-81743531D01*
X154174482Y-81700497D01*
X154208627Y-81655701D01*
X154240506Y-81609210D01*
X154270062Y-81561087D01*
X154297238Y-81511400D01*
X154321974Y-81460214D01*
X154344213Y-81407596D01*
X154363898Y-81353609D01*
X154380970Y-81298322D01*
X154395372Y-81241799D01*
X154407045Y-81184105D01*
X154415932Y-81125308D01*
X154421974Y-81065473D01*
X154425115Y-81004664D01*
X154425295Y-80942950D01*
X154425294Y-80942934D01*
X154883193Y-80942934D01*
X154883390Y-81004403D01*
X154886539Y-81064997D01*
X154892581Y-81124649D01*
X154901457Y-81183291D01*
X154913107Y-81240856D01*
X154927473Y-81297277D01*
X154944494Y-81352485D01*
X154964111Y-81406413D01*
X154986265Y-81458995D01*
X155010898Y-81510161D01*
X155037948Y-81559845D01*
X155067357Y-81607979D01*
X155099066Y-81654496D01*
X155133015Y-81699327D01*
X155169146Y-81742406D01*
X155207397Y-81783665D01*
X155247711Y-81823037D01*
X155290028Y-81860453D01*
X155334288Y-81895847D01*
X155380433Y-81929151D01*
X155428402Y-81960297D01*
X155478137Y-81989217D01*
X155529578Y-82015845D01*
X155582666Y-82040113D01*
X155637341Y-82061952D01*
X155693545Y-82081296D01*
X155751217Y-82098078D01*
X155810299Y-82112229D01*
X155870730Y-82123682D01*
X155932453Y-82132369D01*
X155995406Y-82138223D01*
X156059429Y-82141211D01*
X156122569Y-82141233D01*
X156184759Y-82138346D01*
X156245933Y-82132607D01*
X156306026Y-82124075D01*
X156364970Y-82112805D01*
X156422699Y-82098856D01*
X156479147Y-82082284D01*
X156534248Y-82063147D01*
X156587936Y-82041502D01*
X156640144Y-82017406D01*
X156690805Y-81990916D01*
X156739855Y-81962089D01*
X156787226Y-81930984D01*
X156832852Y-81897656D01*
X156876667Y-81862163D01*
X156918605Y-81824563D01*
X156958598Y-81784913D01*
X156996582Y-81743269D01*
X157032490Y-81699689D01*
X157066255Y-81654231D01*
X157097812Y-81606951D01*
X157127093Y-81557906D01*
X157154033Y-81507155D01*
X157178565Y-81454753D01*
X157200624Y-81400759D01*
X157217800Y-81351893D01*
X157704454Y-81351893D01*
X157705865Y-81411194D01*
X157710164Y-81469778D01*
X157717301Y-81527568D01*
X157727224Y-81584491D01*
X157739884Y-81640473D01*
X157755230Y-81695438D01*
X157773213Y-81749312D01*
X157793781Y-81802021D01*
X157816884Y-81853490D01*
X157842472Y-81903645D01*
X157870495Y-81952411D01*
X157900902Y-81999714D01*
X157933644Y-82045478D01*
X157968668Y-82089630D01*
X158005926Y-82132096D01*
X158045367Y-82172800D01*
X158086941Y-82211668D01*
X158130597Y-82248625D01*
X158176285Y-82283598D01*
X158223954Y-82316511D01*
X158273555Y-82347290D01*
X158325037Y-82375861D01*
X158378349Y-82402148D01*
X158433442Y-82426078D01*
X158490265Y-82447576D01*
X158548767Y-82466568D01*
X158608898Y-82482978D01*
X158670608Y-82496733D01*
X158733733Y-82507766D01*
X158796357Y-82515746D01*
X158858408Y-82520720D01*
X158919811Y-82522737D01*
X158980494Y-82521846D01*
X159040385Y-82518095D01*
X159099409Y-82511532D01*
X159157495Y-82502207D01*
X159214568Y-82490167D01*
X159270557Y-82475461D01*
X159325388Y-82458137D01*
X159378988Y-82438244D01*
X159431283Y-82415830D01*
X159482202Y-82390944D01*
X159531671Y-82363634D01*
X159579616Y-82333948D01*
X159625966Y-82301936D01*
X159670647Y-82267645D01*
X159713585Y-82231124D01*
X159754709Y-82192421D01*
X159793945Y-82151585D01*
X159831219Y-82108664D01*
X159835351Y-82103394D01*
X160456188Y-82103394D01*
X160458885Y-82161122D01*
X160464416Y-82218259D01*
X160472739Y-82274725D01*
X160483814Y-82330439D01*
X160497600Y-82385322D01*
X160514057Y-82439292D01*
X160533145Y-82492270D01*
X160554822Y-82544175D01*
X160579047Y-82594927D01*
X160605782Y-82644446D01*
X160634984Y-82692651D01*
X160666613Y-82739463D01*
X160700629Y-82784800D01*
X160736990Y-82828583D01*
X160775658Y-82870732D01*
X160816589Y-82911165D01*
X160859745Y-82949804D01*
X160905085Y-82986566D01*
X160952568Y-83021374D01*
X161002153Y-83054145D01*
X161053799Y-83084799D01*
X161107467Y-83113258D01*
X161163116Y-83139439D01*
X161220705Y-83163263D01*
X161280192Y-83184650D01*
X161341454Y-83203531D01*
X161402601Y-83219320D01*
X161463556Y-83232057D01*
X161524239Y-83241780D01*
X161584572Y-83248528D01*
X161644477Y-83252339D01*
X161703876Y-83253253D01*
X161762689Y-83251309D01*
X161820838Y-83246544D01*
X161878244Y-83238999D01*
X161934830Y-83228710D01*
X161990516Y-83215718D01*
X162045224Y-83200061D01*
X162098876Y-83181778D01*
X162151392Y-83160908D01*
X162202695Y-83137488D01*
X162252706Y-83111559D01*
X162301346Y-83083159D01*
X162348537Y-83052326D01*
X162394199Y-83019100D01*
X162438256Y-82983519D01*
X162480628Y-82945621D01*
X162521236Y-82905446D01*
X162560003Y-82863033D01*
X162596849Y-82818419D01*
X162631696Y-82771645D01*
X162664466Y-82722748D01*
X162695079Y-82671768D01*
X162723459Y-82618743D01*
X162749525Y-82563711D01*
X162773199Y-82506713D01*
X162794403Y-82447786D01*
X162812965Y-82387365D01*
X162828394Y-82327006D01*
X162840730Y-82266786D01*
X162850012Y-82206786D01*
X162856279Y-82147084D01*
X162859570Y-82087761D01*
X162859924Y-82028894D01*
X162857382Y-81970564D01*
X162851981Y-81912850D01*
X162843762Y-81855831D01*
X162832764Y-81799587D01*
X162819025Y-81744196D01*
X162802585Y-81689738D01*
X162783483Y-81636293D01*
X162761759Y-81583940D01*
X162737451Y-81532757D01*
X162710600Y-81482825D01*
X162681244Y-81434223D01*
X162649422Y-81387029D01*
X162615174Y-81341324D01*
X162578539Y-81297186D01*
X162539556Y-81254695D01*
X162498264Y-81213930D01*
X162454703Y-81174970D01*
X162408912Y-81137896D01*
X162360930Y-81102785D01*
X162310797Y-81069718D01*
X162258551Y-81038774D01*
X162204232Y-81010031D01*
X162147879Y-80983570D01*
X162089531Y-80959469D01*
X162029228Y-80937809D01*
X161968779Y-80919234D01*
X161908382Y-80903768D01*
X161848118Y-80891369D01*
X161788067Y-80882000D01*
X161728311Y-80875621D01*
X161668929Y-80872192D01*
X161610002Y-80871674D01*
X161551610Y-80874027D01*
X161493834Y-80879214D01*
X161436755Y-80887193D01*
X161380452Y-80897926D01*
X161325007Y-80911373D01*
X161270499Y-80927495D01*
X161217009Y-80946253D01*
X161164618Y-80967608D01*
X161113407Y-80991519D01*
X161063455Y-81017948D01*
X161014843Y-81046855D01*
X160967651Y-81078202D01*
X160921961Y-81111948D01*
X160877852Y-81148054D01*
X160835405Y-81186481D01*
X160794700Y-81227190D01*
X160755818Y-81270142D01*
X160718840Y-81315296D01*
X160683845Y-81362614D01*
X160650915Y-81412056D01*
X160620130Y-81463583D01*
X160591570Y-81517156D01*
X160565315Y-81572735D01*
X160541447Y-81630281D01*
X160520045Y-81689754D01*
X160520045Y-81689490D01*
X160501774Y-81749108D01*
X160486620Y-81808697D01*
X160474542Y-81868176D01*
X160465501Y-81927466D01*
X160459455Y-81986485D01*
X160456364Y-82045155D01*
X160456188Y-82103394D01*
X159835351Y-82103394D01*
X159866459Y-82063707D01*
X159899593Y-82016763D01*
X159930546Y-81967878D01*
X159959246Y-81917103D01*
X159985620Y-81864485D01*
X160009595Y-81810073D01*
X160031098Y-81753916D01*
X160050055Y-81696061D01*
X160066395Y-81636558D01*
X160080043Y-81575454D01*
X160090855Y-81513174D01*
X160098569Y-81451349D01*
X160103233Y-81390053D01*
X160104897Y-81329359D01*
X160103608Y-81269340D01*
X160099417Y-81210072D01*
X160092371Y-81151627D01*
X160082519Y-81094078D01*
X160069911Y-81037500D01*
X160054594Y-80981966D01*
X160036619Y-80927550D01*
X160016033Y-80874325D01*
X159992885Y-80822365D01*
X159967225Y-80771744D01*
X159939100Y-80722535D01*
X159908560Y-80674813D01*
X159875653Y-80628649D01*
X159840429Y-80584119D01*
X159802936Y-80541296D01*
X159763223Y-80500254D01*
X159721338Y-80461065D01*
X159677331Y-80423805D01*
X159631250Y-80388546D01*
X159583144Y-80355361D01*
X159533061Y-80324326D01*
X159481051Y-80295513D01*
X159427163Y-80268996D01*
X159371445Y-80244848D01*
X159313945Y-80223144D01*
X159254714Y-80203957D01*
X159193798Y-80187360D01*
X159131248Y-80173427D01*
X159068962Y-80162580D01*
X159007117Y-80154811D01*
X158945790Y-80150070D01*
X158885054Y-80148309D01*
X158824985Y-80149478D01*
X158765658Y-80153528D01*
X158707148Y-80160410D01*
X158649529Y-80170074D01*
X158592876Y-80182473D01*
X158537264Y-80197555D01*
X158482768Y-80215273D01*
X158429463Y-80235577D01*
X158377424Y-80258418D01*
X158326725Y-80283746D01*
X158277441Y-80311513D01*
X158229647Y-80341669D01*
X158183419Y-80374166D01*
X158138830Y-80408953D01*
X158095956Y-80445982D01*
X158054872Y-80485204D01*
X158015652Y-80526569D01*
X157978371Y-80570029D01*
X157943105Y-80615534D01*
X157909927Y-80663035D01*
X157878913Y-80712482D01*
X157850138Y-80763827D01*
X157823677Y-80817021D01*
X157799604Y-80872014D01*
X157777994Y-80928756D01*
X157758922Y-80987200D01*
X157742463Y-81047296D01*
X157728692Y-81108994D01*
X157718049Y-81170423D01*
X157710496Y-81231433D01*
X157705981Y-81291947D01*
X157704454Y-81351893D01*
X157217800Y-81351893D01*
X157220142Y-81345230D01*
X157237054Y-81288222D01*
X157251294Y-81229793D01*
X157262794Y-81170000D01*
X157271489Y-81108901D01*
X157277312Y-81046552D01*
X157280176Y-80983401D01*
X157280025Y-80921093D01*
X157276916Y-80859693D01*
X157270907Y-80799269D01*
X157262056Y-80739888D01*
X157250420Y-80681618D01*
X157236057Y-80624524D01*
X157219025Y-80568674D01*
X157199381Y-80514134D01*
X157177183Y-80460972D01*
X157152488Y-80409255D01*
X157125354Y-80359050D01*
X157095838Y-80310423D01*
X157063999Y-80263442D01*
X157029894Y-80218173D01*
X156993579Y-80174684D01*
X156955114Y-80133041D01*
X156914556Y-80093312D01*
X156871961Y-80055562D01*
X156827389Y-80019861D01*
X156780895Y-79986273D01*
X156732539Y-79954866D01*
X156682377Y-79925708D01*
X156630468Y-79898864D01*
X156576868Y-79874403D01*
X156521636Y-79852390D01*
X156464828Y-79832894D01*
X156406504Y-79815980D01*
X156346719Y-79801717D01*
X156285532Y-79790170D01*
X156223001Y-79781407D01*
X156159183Y-79775494D01*
X156096048Y-79772620D01*
X156033737Y-79772741D01*
X155972320Y-79775798D01*
X155911863Y-79781733D01*
X155852436Y-79790488D01*
X155794106Y-79802006D01*
X155736941Y-79816227D01*
X155681011Y-79833095D01*
X155626382Y-79852550D01*
X155573123Y-79874535D01*
X155521302Y-79898991D01*
X155470988Y-79925862D01*
X155422248Y-79955087D01*
X155375151Y-79986610D01*
X155329765Y-80020373D01*
X155286157Y-80056316D01*
X155244397Y-80094383D01*
X155204553Y-80134515D01*
X155166691Y-80176653D01*
X155130882Y-80220741D01*
X155097192Y-80266719D01*
X155065690Y-80314530D01*
X155036444Y-80364116D01*
X155009523Y-80415418D01*
X154984994Y-80468378D01*
X154962926Y-80522939D01*
X154943387Y-80579042D01*
X154926445Y-80636630D01*
X154912167Y-80695643D01*
X154900624Y-80756024D01*
X154891881Y-80817716D01*
X154886008Y-80880659D01*
X154883193Y-80942934D01*
X154425294Y-80942934D01*
X154422458Y-80880394D01*
X154416585Y-80817450D01*
X154407840Y-80755757D01*
X154396291Y-80695372D01*
X154382002Y-80636355D01*
X154365042Y-80578763D01*
X154345475Y-80522655D01*
X154323369Y-80468090D01*
X154298790Y-80415124D01*
X154271804Y-80363818D01*
X154242477Y-80314228D01*
X154210876Y-80266414D01*
X154177068Y-80220434D01*
X154141118Y-80176346D01*
X154103094Y-80134209D01*
X154063060Y-80094080D01*
X154021085Y-80056018D01*
X153977234Y-80020082D01*
X153931573Y-79986330D01*
X153884169Y-79954820D01*
X153835088Y-79925610D01*
X153784397Y-79898759D01*
X153732162Y-79874325D01*
X153678449Y-79852366D01*
X153623325Y-79832942D01*
X153566857Y-79816109D01*
X153509109Y-79801927D01*
X153450150Y-79790453D01*
X153390045Y-79781747D01*
X153328860Y-79775866D01*
X153266662Y-79772869D01*
X153203518Y-79772813D01*
X153139493Y-79775759D01*
X153139757Y-79775494D01*
X153076804Y-79781359D01*
X153015082Y-79790077D01*
X152954651Y-79801581D01*
X152895570Y-79815806D01*
X152837899Y-79832683D01*
X152781698Y-79852145D01*
X152727026Y-79874126D01*
X152673942Y-79898558D01*
X152622506Y-79925375D01*
X152572778Y-79954509D01*
X152524817Y-79985893D01*
X152478682Y-80019461D01*
X152434433Y-80055144D01*
X152392129Y-80092877D01*
X152351831Y-80132591D01*
X152313596Y-80174221D01*
X152277486Y-80217699D01*
X152243559Y-80262957D01*
X152211875Y-80309930D01*
X152182493Y-80358549D01*
X152155473Y-80408748D01*
X152130875Y-80460460D01*
X152108757Y-80513617D01*
X152089180Y-80568153D01*
X152072203Y-80624000D01*
X152057884Y-80681092D01*
X152046285Y-80739361D01*
X152037464Y-80798741D01*
X152031481Y-80859164D01*
X152028395Y-80920564D01*
X152028266Y-80982872D01*
X151547948Y-80982872D01*
X151530194Y-80928493D01*
X151508569Y-80871753D01*
X151484472Y-80816763D01*
X151457978Y-80763575D01*
X151429159Y-80712237D01*
X151398089Y-80662799D01*
X151364840Y-80615311D01*
X151329486Y-80569821D01*
X151292101Y-80526380D01*
X151252758Y-80485037D01*
X151211529Y-80445842D01*
X151168489Y-80408844D01*
X151123709Y-80374092D01*
X151077265Y-80341636D01*
X151029228Y-80311526D01*
X150979672Y-80283811D01*
X150928671Y-80258541D01*
X150876297Y-80235765D01*
X150822624Y-80215532D01*
X150767726Y-80197893D01*
X150711674Y-80182896D01*
X150654543Y-80170591D01*
X150596406Y-80161028D01*
X150537336Y-80154257D01*
X150477407Y-80150326D01*
X150416691Y-80149285D01*
X150355262Y-80151184D01*
X150293193Y-80156072D01*
X150230558Y-80163999D01*
X150167429Y-80175015D01*
X150105720Y-80188779D01*
X150045594Y-80205218D01*
X149987100Y-80224258D01*
X149930289Y-80245825D01*
X149875213Y-80269844D01*
X149821920Y-80296242D01*
X149770463Y-80324945D01*
X149720891Y-80355878D01*
X149673255Y-80388969D01*
X149627605Y-80424142D01*
X149583992Y-80461324D01*
X149542467Y-80500441D01*
X149503080Y-80541420D01*
X149465881Y-80584185D01*
X149430922Y-80628663D01*
X149398252Y-80674780D01*
X149367923Y-80722462D01*
X149339984Y-80771635D01*
X149314486Y-80822225D01*
X149291480Y-80874158D01*
X149271016Y-80927361D01*
X149253145Y-80981758D01*
X149237918Y-81037277D01*
X149225384Y-81093842D01*
X149215595Y-81151381D01*
X149208601Y-81209820D01*
X149204452Y-81269083D01*
X149203199Y-81329098D01*
X148599633Y-81329098D01*
X148589238Y-81315062D01*
X148552206Y-81269923D01*
X148513257Y-81226991D01*
X148472469Y-81186306D01*
X148429923Y-81147908D01*
X148385697Y-81111837D01*
X148339870Y-81078132D01*
X148292520Y-81046835D01*
X148243728Y-81017983D01*
X148193571Y-80991618D01*
X148142130Y-80967779D01*
X148089481Y-80946507D01*
X148035706Y-80927840D01*
X147980883Y-80911819D01*
X147925090Y-80898484D01*
X147868406Y-80887874D01*
X147810912Y-80880030D01*
X147752685Y-80874991D01*
X147693804Y-80872797D01*
X147634349Y-80873488D01*
X147574399Y-80877104D01*
X147514031Y-80883685D01*
X147453327Y-80893271D01*
X147392364Y-80905901D01*
X147331221Y-80921616D01*
X147269977Y-80940454D01*
X147210468Y-80961851D01*
X147152866Y-80985703D01*
X147097213Y-81011933D01*
X147043548Y-81040459D01*
X146991913Y-81071202D01*
X146942348Y-81104082D01*
X146894894Y-81139019D01*
X146849591Y-81175934D01*
X146806482Y-81214746D01*
X146765605Y-81255376D01*
X146727003Y-81297744D01*
X146690715Y-81341769D01*
X146656783Y-81387373D01*
X146625246Y-81434476D01*
X146596147Y-81482997D01*
X146569526Y-81532856D01*
X146545423Y-81583975D01*
X146523879Y-81636272D01*
X146504935Y-81689669D01*
X146488632Y-81744085D01*
X146475010Y-81799440D01*
X146464111Y-81855655D01*
X146455974Y-81912650D01*
X146450641Y-81970345D01*
X146448153Y-82028660D01*
X146168486Y-82028660D01*
X146168430Y-82020665D01*
X146171485Y-81948616D01*
X146178056Y-81877351D01*
X146188091Y-81806968D01*
X146201539Y-81737564D01*
X146218350Y-81669237D01*
X146238473Y-81602083D01*
X146261857Y-81536199D01*
X146288451Y-81471684D01*
X146318205Y-81408635D01*
X146351066Y-81347148D01*
X146386985Y-81287320D01*
X146425911Y-81229251D01*
X146467792Y-81173035D01*
X146512579Y-81118772D01*
X146560219Y-81066558D01*
X146610662Y-81016490D01*
X146663858Y-80968665D01*
X146719755Y-80923182D01*
X146778302Y-80880137D01*
X146839450Y-80839627D01*
X146903146Y-80801751D01*
X146969339Y-80766604D01*
X147037980Y-80734284D01*
X147109017Y-80704890D01*
X147182400Y-80678517D01*
X147247966Y-80658130D01*
X147313454Y-80640654D01*
X147378799Y-80626057D01*
X147443939Y-80614309D01*
X147508808Y-80605377D01*
X147573343Y-80599230D01*
X147637479Y-80595836D01*
X147701153Y-80595165D01*
X147764300Y-80597184D01*
X147826856Y-80601862D01*
X147888757Y-80609168D01*
X147949939Y-80619069D01*
X148010338Y-80631536D01*
X148069890Y-80646535D01*
X148128531Y-80664036D01*
X148186196Y-80684007D01*
X148242822Y-80706417D01*
X148298344Y-80731233D01*
X148352698Y-80758426D01*
X148405821Y-80787962D01*
X148457648Y-80819812D01*
X148508115Y-80853942D01*
X148557158Y-80890322D01*
X148604713Y-80928920D01*
X148650716Y-80969705D01*
X148695102Y-81012645D01*
X148737808Y-81057709D01*
X148778769Y-81104865D01*
X148817922Y-81154082D01*
X148855202Y-81205328D01*
X148890545Y-81258571D01*
X148923887Y-81313781D01*
X148925598Y-81249383D01*
X148930009Y-81185707D01*
X148937078Y-81122812D01*
X148946764Y-81060758D01*
X148959027Y-80999604D01*
X148973825Y-80939408D01*
X148991116Y-80880229D01*
X149010861Y-80822128D01*
X149033016Y-80765162D01*
X149057542Y-80709390D01*
X149084398Y-80654872D01*
X149113541Y-80601667D01*
X149144931Y-80549833D01*
X149178526Y-80499430D01*
X149214286Y-80450517D01*
X149252169Y-80403152D01*
X149292134Y-80357395D01*
X149334140Y-80313304D01*
X149378146Y-80270939D01*
X149424110Y-80230359D01*
X149471991Y-80191623D01*
X149521749Y-80154789D01*
X149573341Y-80119917D01*
X149626728Y-80087066D01*
X149681867Y-80056294D01*
X149738717Y-80027661D01*
X149797238Y-80001226D01*
X149857388Y-79977048D01*
X149919125Y-79955185D01*
X149982410Y-79935697D01*
X150047199Y-79918643D01*
X150113454Y-79904081D01*
X150181067Y-79892090D01*
X150248237Y-79882976D01*
X150314903Y-79876701D01*
X150381006Y-79873227D01*
X150446486Y-79872512D01*
X150511284Y-79874518D01*
X150575340Y-79879206D01*
X150638594Y-79886536D01*
X150700986Y-79896469D01*
X150762458Y-79908966D01*
X150822950Y-79923987D01*
X150882402Y-79941493D01*
X150940754Y-79961445D01*
X150997947Y-79983802D01*
X151053922Y-80008527D01*
X151108618Y-80035579D01*
X151161976Y-80064920D01*
X151213936Y-80096509D01*
X151264440Y-80130308D01*
X151313427Y-80166277D01*
X151360837Y-80204377D01*
X151406612Y-80244569D01*
X151450692Y-80286813D01*
X151493016Y-80331069D01*
X151533526Y-80377300D01*
X151572161Y-80425464D01*
X151608863Y-80475523D01*
X151643571Y-80527438D01*
X151676227Y-80581169D01*
X151706769Y-80636676D01*
X151735140Y-80693921D01*
X151761279Y-80752865D01*
X151770979Y-80689007D01*
X151783278Y-80626206D01*
X151798128Y-80564516D01*
X151815480Y-80503990D01*
X151835286Y-80444682D01*
X151857497Y-80386646D01*
X151882065Y-80329936D01*
X151908941Y-80274606D01*
X151938077Y-80220708D01*
X151969423Y-80168298D01*
X152002932Y-80117428D01*
X152038555Y-80068153D01*
X152076243Y-80020526D01*
X152115948Y-79974602D01*
X152157621Y-79930433D01*
X152201215Y-79888074D01*
X152246679Y-79847579D01*
X152293966Y-79809000D01*
X152343027Y-79772393D01*
X152393814Y-79737810D01*
X152446277Y-79705307D01*
X152500370Y-79674935D01*
X152556042Y-79646749D01*
X152613245Y-79620804D01*
X152671932Y-79597152D01*
X152732052Y-79575847D01*
X152793559Y-79556944D01*
X152856403Y-79540495D01*
X152920535Y-79526556D01*
X152985908Y-79515179D01*
X153052472Y-79506418D01*
X153120179Y-79500327D01*
X153189585Y-79496939D01*
X153258167Y-79496415D01*
X153325868Y-79498709D01*
X153392631Y-79503771D01*
X153458401Y-79511553D01*
X153523122Y-79522008D01*
X153586738Y-79535087D01*
X153649193Y-79550743D01*
X153710430Y-79568927D01*
X153770393Y-79589590D01*
X153829028Y-79612686D01*
X153886276Y-79638165D01*
X153942083Y-79665981D01*
X153996393Y-79696083D01*
X154049149Y-79728426D01*
X154100295Y-79762959D01*
X154149775Y-79799636D01*
X154197534Y-79838408D01*
X154243514Y-79879228D01*
X154287661Y-79922046D01*
X154329917Y-79966815D01*
X154370228Y-80013486D01*
X154408536Y-80062013D01*
X154444787Y-80112346D01*
X154478923Y-80164437D01*
X154510889Y-80218239D01*
X154540628Y-80273702D01*
X154568085Y-80330780D01*
X154593204Y-80389424D01*
X154615929Y-80449586D01*
X154636202Y-80511217D01*
X154653969Y-80574271D01*
X154671733Y-80511241D01*
X154691996Y-80449632D01*
X154714701Y-80389491D01*
X154739791Y-80330866D01*
X154767208Y-80273806D01*
X154796895Y-80218358D01*
X154828795Y-80164570D01*
X154862850Y-80112490D01*
X154899004Y-80062167D01*
X154937199Y-80013649D01*
X154977377Y-79966983D01*
X155019482Y-79922218D01*
X155063457Y-79879401D01*
X155109243Y-79838581D01*
X155206023Y-79763124D01*
X155256902Y-79728583D01*
X155309364Y-79696231D01*
X155363351Y-79666116D01*
X155418807Y-79638287D01*
X155475674Y-79612790D01*
X155533895Y-79589675D01*
X155593413Y-79568989D01*
X155654169Y-79550780D01*
X155716108Y-79535097D01*
X155779172Y-79521987D01*
X155843304Y-79511498D01*
X155908445Y-79503680D01*
X155974540Y-79498579D01*
X156041531Y-79496244D01*
X156109360Y-79496722D01*
G37*
G36*
X161686621Y-83943656D02*
G01*
X161726750Y-83946023D01*
X161767009Y-83950356D01*
X161807339Y-83956672D01*
X161847681Y-83964985D01*
X161887973Y-83975309D01*
X161928157Y-83987660D01*
X161928155Y-83987660D01*
X161967702Y-84001896D01*
X162006098Y-84017829D01*
X162043305Y-84035410D01*
X162079288Y-84054591D01*
X162114007Y-84075322D01*
X162147426Y-84097554D01*
X162179507Y-84121238D01*
X162210213Y-84146324D01*
X162239506Y-84172762D01*
X162267350Y-84200505D01*
X162293705Y-84229502D01*
X162318536Y-84259704D01*
X162341804Y-84291062D01*
X162363472Y-84323527D01*
X162383502Y-84357049D01*
X162401858Y-84391580D01*
X162418502Y-84427069D01*
X162433395Y-84463468D01*
X162446502Y-84500727D01*
X162457784Y-84538797D01*
X162467204Y-84577629D01*
X162474724Y-84617174D01*
X162480307Y-84657381D01*
X162483916Y-84698203D01*
X162485513Y-84739589D01*
X162485061Y-84781491D01*
X162482521Y-84823859D01*
X162477858Y-84866644D01*
X162471033Y-84909796D01*
X162462009Y-84953267D01*
X162450748Y-84997007D01*
X162437213Y-85040966D01*
X162421734Y-85083975D01*
X162404557Y-85125479D01*
X162385743Y-85165459D01*
X162365351Y-85203895D01*
X162343441Y-85240771D01*
X162320074Y-85276067D01*
X162295309Y-85309763D01*
X162269208Y-85341843D01*
X162241829Y-85372287D01*
X162213233Y-85401076D01*
X162183481Y-85428192D01*
X162152631Y-85453616D01*
X162120746Y-85477329D01*
X162087883Y-85499313D01*
X162054105Y-85519550D01*
X162019470Y-85538019D01*
X161984039Y-85554704D01*
X161947873Y-85569585D01*
X161911030Y-85582643D01*
X161873572Y-85593860D01*
X161835558Y-85603218D01*
X161797048Y-85610697D01*
X161758104Y-85616279D01*
X161718784Y-85619945D01*
X161679149Y-85621677D01*
X161639259Y-85621456D01*
X161599174Y-85619263D01*
X161558954Y-85615080D01*
X161518660Y-85608888D01*
X161478351Y-85600668D01*
X161438088Y-85590402D01*
X161397931Y-85578071D01*
X161358397Y-85563841D01*
X161319988Y-85547923D01*
X161282745Y-85530364D01*
X161246706Y-85511214D01*
X161211912Y-85490519D01*
X161178400Y-85468328D01*
X161146210Y-85444690D01*
X161115381Y-85419651D01*
X161085954Y-85393261D01*
X161057966Y-85365567D01*
X161031458Y-85336617D01*
X161006467Y-85306459D01*
X160983035Y-85275142D01*
X160961199Y-85242713D01*
X160941000Y-85209221D01*
X160922476Y-85174713D01*
X160905666Y-85139238D01*
X160890611Y-85102844D01*
X160877348Y-85065578D01*
X160865918Y-85027489D01*
X160856359Y-84988625D01*
X160848712Y-84949034D01*
X160843014Y-84908764D01*
X160839306Y-84867863D01*
X160838391Y-84845278D01*
X161217883Y-84845278D01*
X161218850Y-84868876D01*
X161220884Y-84892073D01*
X161223973Y-84914845D01*
X161228101Y-84937165D01*
X161233254Y-84959008D01*
X161239419Y-84980348D01*
X161246581Y-85001161D01*
X161254727Y-85021420D01*
X161263841Y-85041101D01*
X161273910Y-85060176D01*
X161284919Y-85078622D01*
X161296856Y-85096412D01*
X161309704Y-85113520D01*
X161323451Y-85129922D01*
X161338081Y-85145592D01*
X161353582Y-85160504D01*
X161369938Y-85174633D01*
X161387136Y-85187953D01*
X161405161Y-85200439D01*
X161424000Y-85212065D01*
X161443638Y-85222805D01*
X161464061Y-85232634D01*
X161485255Y-85241527D01*
X161507205Y-85249458D01*
X161529524Y-85256255D01*
X161551814Y-85261775D01*
X161574049Y-85266035D01*
X161596200Y-85269052D01*
X161618242Y-85270844D01*
X161640146Y-85271428D01*
X161661886Y-85270822D01*
X161683434Y-85269042D01*
X161704764Y-85266105D01*
X161725848Y-85262030D01*
X161746660Y-85256834D01*
X161767171Y-85250533D01*
X161787355Y-85243145D01*
X161807185Y-85234687D01*
X161826634Y-85225177D01*
X161845674Y-85214633D01*
X161864278Y-85203070D01*
X161882420Y-85190507D01*
X161900071Y-85176960D01*
X161917206Y-85162448D01*
X161933797Y-85146987D01*
X161949816Y-85130595D01*
X161965237Y-85113289D01*
X161980032Y-85095086D01*
X161994175Y-85076004D01*
X162007638Y-85056060D01*
X162020394Y-85035271D01*
X162032415Y-85013654D01*
X162043676Y-84991227D01*
X162054148Y-84968008D01*
X162063805Y-84944012D01*
X162072620Y-84919258D01*
X162080199Y-84894960D01*
X162086717Y-84870654D01*
X162092181Y-84846377D01*
X162096597Y-84822164D01*
X162099971Y-84798049D01*
X162102310Y-84774068D01*
X162103618Y-84750257D01*
X162103903Y-84726650D01*
X162103171Y-84703282D01*
X162101427Y-84680190D01*
X162098678Y-84657407D01*
X162094930Y-84634969D01*
X162090190Y-84612911D01*
X162084463Y-84591269D01*
X162077755Y-84570077D01*
X162070073Y-84549371D01*
X162061423Y-84529186D01*
X162051811Y-84509557D01*
X162041244Y-84490519D01*
X162029726Y-84472107D01*
X162017265Y-84454358D01*
X162003866Y-84437305D01*
X161989537Y-84420983D01*
X161974282Y-84405429D01*
X161958108Y-84390678D01*
X161941022Y-84376763D01*
X161923029Y-84363722D01*
X161904135Y-84351588D01*
X161884347Y-84340397D01*
X161863671Y-84330184D01*
X161842113Y-84320984D01*
X161819679Y-84312833D01*
X161797631Y-84306126D01*
X161775560Y-84300680D01*
X161753496Y-84296477D01*
X161731468Y-84293504D01*
X161709507Y-84291743D01*
X161687642Y-84291179D01*
X161665902Y-84291797D01*
X161644318Y-84293581D01*
X161622919Y-84296514D01*
X161601735Y-84300582D01*
X161580796Y-84305768D01*
X161560132Y-84312056D01*
X161539771Y-84319432D01*
X161519745Y-84327879D01*
X161500082Y-84337381D01*
X161480813Y-84347924D01*
X161461967Y-84359490D01*
X161443575Y-84372064D01*
X161425664Y-84385631D01*
X161408267Y-84400174D01*
X161391411Y-84415679D01*
X161375128Y-84432128D01*
X161359446Y-84449508D01*
X161344395Y-84467800D01*
X161330006Y-84486991D01*
X161316308Y-84507065D01*
X161303330Y-84528004D01*
X161291103Y-84549795D01*
X161279656Y-84572421D01*
X161269020Y-84595865D01*
X161259222Y-84620114D01*
X161250294Y-84645150D01*
X161242208Y-84671031D01*
X161235303Y-84696716D01*
X161229565Y-84722179D01*
X161224979Y-84747395D01*
X161221533Y-84772339D01*
X161219210Y-84796984D01*
X161217999Y-84821306D01*
X161217883Y-84845278D01*
X160838391Y-84845278D01*
X160837626Y-84826379D01*
X160838014Y-84784360D01*
X160840509Y-84741854D01*
X160845150Y-84698910D01*
X160851977Y-84655575D01*
X160861029Y-84611897D01*
X160872344Y-84567925D01*
X160885963Y-84523706D01*
X160901613Y-84480165D01*
X160918954Y-84438202D01*
X160937927Y-84397834D01*
X160958472Y-84359075D01*
X160980529Y-84321940D01*
X161004037Y-84286444D01*
X161028937Y-84252601D01*
X161055169Y-84220427D01*
X161082672Y-84189937D01*
X161111387Y-84161145D01*
X161141253Y-84134067D01*
X161172211Y-84108717D01*
X161204201Y-84085111D01*
X161237162Y-84063263D01*
X161271034Y-84043187D01*
X161305758Y-84024900D01*
X161341274Y-84008416D01*
X161377520Y-83993750D01*
X161414438Y-83980917D01*
X161451968Y-83969931D01*
X161490049Y-83960808D01*
X161528621Y-83953563D01*
X161567624Y-83948210D01*
X161606999Y-83944765D01*
X161646684Y-83943242D01*
X161686621Y-83943656D01*
G37*
G36*
X159250713Y-83301000D02*
G01*
X158937498Y-84879959D01*
X158579352Y-84808914D01*
X158892566Y-83229956D01*
X159250713Y-83301000D01*
G37*
G36*
X156113410Y-82869796D02*
G01*
X156113411Y-82869796D01*
X156162621Y-82874270D01*
X156209903Y-82880664D01*
X156255276Y-82888928D01*
X156298758Y-82899010D01*
X156340366Y-82910861D01*
X156380119Y-82924429D01*
X156418035Y-82939665D01*
X156454132Y-82956517D01*
X156488428Y-82974936D01*
X156520940Y-82994870D01*
X156551688Y-83016269D01*
X156580689Y-83039083D01*
X156607961Y-83063261D01*
X156633523Y-83088753D01*
X156657392Y-83115507D01*
X156679586Y-83143474D01*
X156700124Y-83172603D01*
X156719023Y-83202844D01*
X156736302Y-83234145D01*
X156751979Y-83266457D01*
X156766072Y-83299728D01*
X156778598Y-83333909D01*
X156789576Y-83368948D01*
X156799025Y-83404796D01*
X156813404Y-83478714D01*
X156821880Y-83555259D01*
X156824597Y-83634026D01*
X156821700Y-83714611D01*
X156817824Y-83758954D01*
X156812409Y-83802317D01*
X156805473Y-83844666D01*
X156797032Y-83885966D01*
X156787105Y-83926183D01*
X156775709Y-83965282D01*
X156762862Y-84003229D01*
X156748580Y-84039990D01*
X156732882Y-84075530D01*
X156715784Y-84109814D01*
X156697305Y-84142809D01*
X156677462Y-84174480D01*
X156656272Y-84204792D01*
X156633754Y-84233712D01*
X156609923Y-84261204D01*
X156584799Y-84287235D01*
X156558397Y-84311769D01*
X156530737Y-84334774D01*
X156501835Y-84356213D01*
X156471708Y-84376053D01*
X156440375Y-84394260D01*
X156407853Y-84410798D01*
X156374159Y-84425634D01*
X156339311Y-84438734D01*
X156303326Y-84450062D01*
X156266221Y-84459584D01*
X156228015Y-84467267D01*
X156188725Y-84473075D01*
X156148368Y-84476974D01*
X156106962Y-84478930D01*
X156064523Y-84478909D01*
X156021071Y-84476875D01*
X155362258Y-84431102D01*
X155384007Y-84117571D01*
X155750136Y-84117571D01*
X155994083Y-84134504D01*
X156029020Y-84136108D01*
X156064727Y-84135877D01*
X156100833Y-84133388D01*
X156136966Y-84128220D01*
X156172754Y-84119952D01*
X156190403Y-84114524D01*
X156207827Y-84108162D01*
X156224980Y-84100814D01*
X156241814Y-84092427D01*
X156258284Y-84082949D01*
X156274342Y-84072327D01*
X156289944Y-84060508D01*
X156305041Y-84047440D01*
X156319589Y-84033069D01*
X156333540Y-84017344D01*
X156346848Y-84000210D01*
X156359466Y-83981617D01*
X156371349Y-83961510D01*
X156382449Y-83939837D01*
X156392721Y-83916546D01*
X156402118Y-83891584D01*
X156410594Y-83864898D01*
X156418101Y-83836435D01*
X156424594Y-83806143D01*
X156430027Y-83773968D01*
X156434352Y-83739859D01*
X156437524Y-83703763D01*
X156439540Y-83661126D01*
X156439553Y-83621023D01*
X156437661Y-83583374D01*
X156433963Y-83548098D01*
X156428558Y-83515118D01*
X156421544Y-83484353D01*
X156413021Y-83455725D01*
X156403087Y-83429154D01*
X156391840Y-83404561D01*
X156379379Y-83381866D01*
X156365804Y-83360990D01*
X156351213Y-83341855D01*
X156335704Y-83324379D01*
X156319377Y-83308485D01*
X156302329Y-83294093D01*
X156284661Y-83281124D01*
X156266470Y-83269498D01*
X156247855Y-83259136D01*
X156228916Y-83249958D01*
X156209750Y-83241887D01*
X156171134Y-83228742D01*
X156132799Y-83219067D01*
X156095533Y-83212227D01*
X156060126Y-83207589D01*
X155998051Y-83202377D01*
X155814430Y-83189677D01*
X155750136Y-84117571D01*
X155384007Y-84117571D01*
X155473647Y-82825346D01*
X156113410Y-82869796D01*
G37*
G36*
X153798305Y-82827992D02*
G01*
X153864716Y-83784461D01*
X153867391Y-83831863D01*
X153868630Y-83883182D01*
X153867629Y-83937524D01*
X153863583Y-83993994D01*
X153855690Y-84051699D01*
X153850050Y-84080735D01*
X153843145Y-84109743D01*
X153834877Y-84138613D01*
X153825145Y-84167233D01*
X153813848Y-84195490D01*
X153800885Y-84223272D01*
X153786157Y-84250469D01*
X153769563Y-84276968D01*
X153751001Y-84302657D01*
X153730373Y-84327425D01*
X153707577Y-84351160D01*
X153682513Y-84373749D01*
X153655080Y-84395082D01*
X153625177Y-84415046D01*
X153592706Y-84433529D01*
X153557564Y-84450420D01*
X153519651Y-84465607D01*
X153478868Y-84478978D01*
X153435113Y-84490421D01*
X153388286Y-84499824D01*
X153338287Y-84507076D01*
X153285014Y-84512065D01*
X153231852Y-84514472D01*
X153181601Y-84514185D01*
X153134176Y-84511328D01*
X153089495Y-84506028D01*
X153047473Y-84498407D01*
X153008028Y-84488591D01*
X152971076Y-84476705D01*
X152936534Y-84462873D01*
X152904317Y-84447220D01*
X152874344Y-84429870D01*
X152846530Y-84410948D01*
X152820792Y-84390579D01*
X152797046Y-84368888D01*
X152775210Y-84345998D01*
X152755199Y-84322036D01*
X152736930Y-84297124D01*
X152720321Y-84271389D01*
X152705286Y-84244954D01*
X152691744Y-84217945D01*
X152679610Y-84190485D01*
X152659234Y-84134715D01*
X152643491Y-84078640D01*
X152631714Y-84023259D01*
X152623235Y-83969567D01*
X152617387Y-83918564D01*
X152613502Y-83871244D01*
X152547092Y-82914776D01*
X152911423Y-82889376D01*
X152975452Y-83814094D01*
X152978525Y-83850617D01*
X152982712Y-83886308D01*
X152988200Y-83920932D01*
X152995180Y-83954253D01*
X153003841Y-83986034D01*
X153008860Y-84001274D01*
X153014371Y-84016040D01*
X153020396Y-84030303D01*
X153026960Y-84044034D01*
X153034085Y-84057203D01*
X153041797Y-84069781D01*
X153050117Y-84081737D01*
X153059070Y-84093044D01*
X153068680Y-84103670D01*
X153078970Y-84113587D01*
X153089964Y-84122766D01*
X153101686Y-84131175D01*
X153114158Y-84138787D01*
X153127406Y-84145571D01*
X153141452Y-84151499D01*
X153156319Y-84156540D01*
X153172033Y-84160665D01*
X153188616Y-84163845D01*
X153206091Y-84166049D01*
X153224484Y-84167250D01*
X153243816Y-84167416D01*
X153264113Y-84166519D01*
X153284050Y-84164611D01*
X153302903Y-84161782D01*
X153320698Y-84158058D01*
X153337463Y-84153464D01*
X153353224Y-84148028D01*
X153368008Y-84141775D01*
X153381843Y-84134731D01*
X153394755Y-84126922D01*
X153406771Y-84118375D01*
X153417919Y-84109115D01*
X153428225Y-84099168D01*
X153437716Y-84088561D01*
X153446420Y-84077319D01*
X153454362Y-84065469D01*
X153461571Y-84053037D01*
X153468074Y-84040048D01*
X153473896Y-84026529D01*
X153479065Y-84012506D01*
X153487554Y-83983052D01*
X153493755Y-83951894D01*
X153497884Y-83919241D01*
X153500158Y-83885301D01*
X153500792Y-83850283D01*
X153500002Y-83814395D01*
X153498004Y-83777846D01*
X153433975Y-82853127D01*
X153798305Y-82827727D01*
X153798305Y-82827992D01*
G37*
G36*
X150941864Y-83471458D02*
G01*
X150493396Y-83560623D01*
X150740517Y-84806281D01*
X150382270Y-84877190D01*
X150135150Y-83631531D01*
X149686681Y-83720431D01*
X149620535Y-83387321D01*
X150875719Y-83138348D01*
X150941864Y-83471458D01*
G37*
G36*
X147630361Y-83947204D02*
G01*
X147655373Y-83948407D01*
X147679868Y-83950574D01*
X147703829Y-83953671D01*
X147727238Y-83957664D01*
X147750078Y-83962516D01*
X147772333Y-83968194D01*
X147793984Y-83974663D01*
X147815016Y-83981887D01*
X147835410Y-83989833D01*
X147855150Y-83998464D01*
X147874218Y-84007747D01*
X147892598Y-84017646D01*
X147910271Y-84028127D01*
X147927222Y-84039154D01*
X147943433Y-84050693D01*
X147958886Y-84062710D01*
X147973564Y-84075169D01*
X147987452Y-84088035D01*
X148000530Y-84101274D01*
X148012782Y-84114850D01*
X148024192Y-84128730D01*
X148034741Y-84142878D01*
X148044413Y-84157258D01*
X147767394Y-84390092D01*
X147752763Y-84373617D01*
X147737832Y-84358442D01*
X147722588Y-84344597D01*
X147707015Y-84332111D01*
X147691100Y-84321012D01*
X147674827Y-84311329D01*
X147658184Y-84303092D01*
X147641154Y-84296330D01*
X147623725Y-84291072D01*
X147605882Y-84287346D01*
X147596800Y-84286067D01*
X147587609Y-84285182D01*
X147578308Y-84284695D01*
X147568894Y-84284610D01*
X147559366Y-84284929D01*
X147549722Y-84285657D01*
X147530077Y-84288354D01*
X147509947Y-84292728D01*
X147489317Y-84298810D01*
X147479044Y-84302417D01*
X147469163Y-84306238D01*
X147459673Y-84310264D01*
X147450574Y-84314488D01*
X147441867Y-84318902D01*
X147433552Y-84323498D01*
X147425629Y-84328267D01*
X147418098Y-84333202D01*
X147410960Y-84338295D01*
X147404215Y-84343537D01*
X147397863Y-84348921D01*
X147391904Y-84354439D01*
X147386339Y-84360083D01*
X147381167Y-84365845D01*
X147376390Y-84371716D01*
X147372007Y-84377689D01*
X147368019Y-84383756D01*
X147364425Y-84389909D01*
X147361226Y-84396139D01*
X147358423Y-84402440D01*
X147356015Y-84408802D01*
X147354003Y-84415218D01*
X147352387Y-84421680D01*
X147351167Y-84428179D01*
X147350344Y-84434709D01*
X147349917Y-84441260D01*
X147349887Y-84447825D01*
X147350255Y-84454396D01*
X147351020Y-84460965D01*
X147352183Y-84467524D01*
X147353743Y-84474065D01*
X147355702Y-84480579D01*
X147358917Y-84489093D01*
X147362698Y-84497132D01*
X147367028Y-84504709D01*
X147371893Y-84511838D01*
X147377276Y-84518531D01*
X147383161Y-84524801D01*
X147389534Y-84530663D01*
X147396378Y-84536129D01*
X147403677Y-84541213D01*
X147411415Y-84545927D01*
X147428149Y-84554300D01*
X147446452Y-84561355D01*
X147466199Y-84567197D01*
X147487263Y-84571932D01*
X147509520Y-84575666D01*
X147532842Y-84578505D01*
X147557104Y-84580554D01*
X147582180Y-84581920D01*
X147607944Y-84582707D01*
X147661031Y-84582973D01*
X147843858Y-84579004D01*
X147843594Y-84579005D01*
X147901415Y-84578655D01*
X147933745Y-84579675D01*
X147967774Y-84582060D01*
X148003065Y-84586235D01*
X148039182Y-84592627D01*
X148075687Y-84601661D01*
X148093950Y-84607303D01*
X148112146Y-84613764D01*
X148130221Y-84621099D01*
X148148121Y-84629361D01*
X148165790Y-84638603D01*
X148183175Y-84648879D01*
X148200221Y-84660241D01*
X148216873Y-84672743D01*
X148233077Y-84686437D01*
X148248778Y-84701378D01*
X148263922Y-84717619D01*
X148278454Y-84735212D01*
X148292320Y-84754212D01*
X148305464Y-84774671D01*
X148317833Y-84796642D01*
X148329372Y-84820179D01*
X148340027Y-84845335D01*
X148349742Y-84872163D01*
X148357739Y-84898181D01*
X148364417Y-84924271D01*
X148369774Y-84950398D01*
X148373807Y-84976528D01*
X148376516Y-85002624D01*
X148377897Y-85028652D01*
X148377949Y-85054578D01*
X148376671Y-85080365D01*
X148374061Y-85105980D01*
X148370116Y-85131387D01*
X148364835Y-85156551D01*
X148358215Y-85181437D01*
X148350257Y-85206010D01*
X148340956Y-85230236D01*
X148330312Y-85254079D01*
X148318322Y-85277504D01*
X148304986Y-85300477D01*
X148290300Y-85322962D01*
X148274263Y-85344924D01*
X148256874Y-85366329D01*
X148238130Y-85387141D01*
X148218030Y-85407325D01*
X148196571Y-85426847D01*
X148173752Y-85445672D01*
X148149572Y-85463764D01*
X148124027Y-85481088D01*
X148097117Y-85497610D01*
X148068840Y-85513295D01*
X148039193Y-85528107D01*
X148008175Y-85542011D01*
X147975784Y-85554974D01*
X147942019Y-85566958D01*
X147911638Y-85576509D01*
X147881527Y-85584830D01*
X147851699Y-85591930D01*
X147822170Y-85597822D01*
X147792953Y-85602516D01*
X147764063Y-85606024D01*
X147735516Y-85608356D01*
X147707325Y-85609523D01*
X147679505Y-85609538D01*
X147652072Y-85608410D01*
X147625039Y-85606150D01*
X147598421Y-85602770D01*
X147572233Y-85598281D01*
X147546489Y-85592694D01*
X147521205Y-85586020D01*
X147496394Y-85578270D01*
X147472072Y-85569454D01*
X147448252Y-85559585D01*
X147424950Y-85548672D01*
X147402181Y-85536728D01*
X147379958Y-85523763D01*
X147358297Y-85509788D01*
X147337212Y-85494814D01*
X147316717Y-85478853D01*
X147296828Y-85461914D01*
X147277559Y-85444010D01*
X147258925Y-85425152D01*
X147240940Y-85405350D01*
X147223619Y-85384616D01*
X147206976Y-85362960D01*
X147191027Y-85340393D01*
X147175785Y-85316928D01*
X147462065Y-85101027D01*
X147473950Y-85118160D01*
X147485889Y-85134205D01*
X147497872Y-85149191D01*
X147509893Y-85163147D01*
X147521944Y-85176103D01*
X147534017Y-85188086D01*
X147546105Y-85199125D01*
X147558199Y-85209250D01*
X147570293Y-85218489D01*
X147582378Y-85226870D01*
X147594447Y-85234423D01*
X147606493Y-85241177D01*
X147618507Y-85247159D01*
X147630482Y-85252400D01*
X147642410Y-85256927D01*
X147654284Y-85260769D01*
X147666096Y-85263956D01*
X147677839Y-85266516D01*
X147689504Y-85268477D01*
X147701084Y-85269870D01*
X147712571Y-85270721D01*
X147723958Y-85271061D01*
X147746401Y-85270319D01*
X147768350Y-85267876D01*
X147789746Y-85263960D01*
X147810526Y-85258803D01*
X147830629Y-85252634D01*
X147853183Y-85244401D01*
X147874458Y-85235218D01*
X147884594Y-85230286D01*
X147894382Y-85225136D01*
X147903813Y-85219776D01*
X147912877Y-85214211D01*
X147921567Y-85208449D01*
X147929871Y-85202495D01*
X147937781Y-85196357D01*
X147945287Y-85190042D01*
X147952381Y-85183556D01*
X147959052Y-85176905D01*
X147965291Y-85170097D01*
X147971090Y-85163138D01*
X147976438Y-85156035D01*
X147981326Y-85148794D01*
X147985746Y-85141423D01*
X147989687Y-85133927D01*
X147993140Y-85126315D01*
X147996096Y-85118591D01*
X147998545Y-85110763D01*
X148000479Y-85102838D01*
X148001888Y-85094822D01*
X148002762Y-85086722D01*
X148003092Y-85078545D01*
X148002869Y-85070297D01*
X148002084Y-85061986D01*
X148000726Y-85053617D01*
X147998788Y-85045197D01*
X147996258Y-85036733D01*
X147992793Y-85027417D01*
X147988809Y-85018654D01*
X147984318Y-85010428D01*
X147979337Y-85002724D01*
X147973879Y-84995524D01*
X147967961Y-84988811D01*
X147961595Y-84982571D01*
X147954797Y-84976785D01*
X147947582Y-84971437D01*
X147939964Y-84966511D01*
X147923579Y-84957859D01*
X147905759Y-84950696D01*
X147886622Y-84944890D01*
X147866284Y-84940309D01*
X147844864Y-84936820D01*
X147822480Y-84934291D01*
X147799247Y-84932591D01*
X147775284Y-84931587D01*
X147750709Y-84931147D01*
X147700190Y-84931429D01*
X147551494Y-84937515D01*
X147519603Y-84937939D01*
X147485256Y-84937475D01*
X147448912Y-84935748D01*
X147411029Y-84932384D01*
X147372065Y-84927010D01*
X147332479Y-84919251D01*
X147292730Y-84908733D01*
X147272937Y-84902322D01*
X147253275Y-84895082D01*
X147233802Y-84886965D01*
X147214574Y-84877925D01*
X147195650Y-84867914D01*
X147177085Y-84856887D01*
X147158938Y-84844795D01*
X147141266Y-84831594D01*
X147124127Y-84817235D01*
X147107577Y-84801672D01*
X147091673Y-84784858D01*
X147076474Y-84766747D01*
X147062037Y-84747292D01*
X147048418Y-84726446D01*
X147035675Y-84704162D01*
X147023866Y-84680394D01*
X147013048Y-84655094D01*
X147003277Y-84628217D01*
X146995367Y-84602271D01*
X146988935Y-84576441D01*
X146983963Y-84550753D01*
X146980430Y-84525234D01*
X146978316Y-84499910D01*
X146977602Y-84474807D01*
X146978267Y-84449951D01*
X146980291Y-84425368D01*
X146983655Y-84401085D01*
X146988339Y-84377127D01*
X146994322Y-84353522D01*
X147001584Y-84330295D01*
X147010106Y-84307472D01*
X147019868Y-84285080D01*
X147030850Y-84263145D01*
X147043031Y-84241693D01*
X147056392Y-84220750D01*
X147070913Y-84200343D01*
X147086573Y-84180498D01*
X147103354Y-84161240D01*
X147121234Y-84142596D01*
X147140195Y-84124593D01*
X147160215Y-84107256D01*
X147181276Y-84090612D01*
X147203356Y-84074687D01*
X147226437Y-84059507D01*
X147250498Y-84045099D01*
X147275519Y-84031488D01*
X147301480Y-84018700D01*
X147328362Y-84006763D01*
X147356144Y-83995702D01*
X147384806Y-83985544D01*
X147413702Y-83976496D01*
X147442234Y-83968726D01*
X147470387Y-83962200D01*
X147498142Y-83956882D01*
X147525483Y-83952739D01*
X147552393Y-83949734D01*
X147578853Y-83947833D01*
X147604849Y-83947001D01*
X147630361Y-83947204D01*
G37*
G36*
X162123421Y-81367492D02*
G01*
X162180571Y-83083315D01*
X161810155Y-82959754D01*
X161805635Y-82862202D01*
X161802183Y-82764128D01*
X161797189Y-82567113D01*
X161242888Y-82382433D01*
X161242888Y-82382698D01*
X161121146Y-82537479D01*
X161000000Y-82689879D01*
X160638580Y-82569494D01*
X161026688Y-82086365D01*
X161478895Y-82086365D01*
X161786076Y-82188759D01*
X161783100Y-82014167D01*
X161774963Y-81719917D01*
X161772053Y-81718859D01*
X161478895Y-82086365D01*
X161026688Y-82086365D01*
X161713847Y-81230967D01*
X162123421Y-81367492D01*
G37*
G36*
X159692958Y-80670050D02*
G01*
X159626813Y-81003161D01*
X159178343Y-80914261D01*
X158931487Y-82159919D01*
X158573241Y-82089010D01*
X158820362Y-80843088D01*
X158371893Y-80754188D01*
X158438039Y-80421077D01*
X159692958Y-80670050D01*
G37*
G36*
X156329983Y-80166065D02*
G01*
X156218535Y-81771928D01*
X155854286Y-81746648D01*
X155965734Y-80140787D01*
X156329983Y-80166065D01*
G37*
G36*
X153686388Y-80457325D02*
G01*
X153002176Y-80504686D01*
X153024136Y-80821392D01*
X153667073Y-80776677D01*
X153691943Y-81134659D01*
X153049007Y-81179373D01*
X153090017Y-81771775D01*
X153090018Y-81772040D01*
X152725686Y-81797175D01*
X152614296Y-80191154D01*
X153662840Y-80118394D01*
X153686388Y-80457325D01*
G37*
G36*
X151360965Y-81964392D02*
G01*
X150977848Y-82040327D01*
X150925671Y-81957893D01*
X150874164Y-81874367D01*
X150772266Y-81705629D01*
X150199179Y-81819400D01*
X150169744Y-82014034D01*
X150139912Y-82206485D01*
X149766321Y-82280569D01*
X149900473Y-81445279D01*
X150257652Y-81445279D01*
X150575416Y-81382308D01*
X150486483Y-81232058D01*
X150419854Y-81121450D01*
X150333852Y-80980406D01*
X150330677Y-80980936D01*
X150257652Y-81445279D01*
X149900473Y-81445279D01*
X150038577Y-80585383D01*
X150462175Y-80501510D01*
X151360965Y-81964392D01*
G37*
G36*
X147799739Y-81232753D02*
G01*
X147828277Y-81237261D01*
X147857041Y-81243443D01*
X147885887Y-81251453D01*
X147914670Y-81261439D01*
X147943246Y-81273554D01*
X147971471Y-81287949D01*
X147999200Y-81304775D01*
X148026289Y-81324183D01*
X148052593Y-81346324D01*
X148077969Y-81371349D01*
X148102272Y-81399410D01*
X148125357Y-81430657D01*
X148147080Y-81465242D01*
X148167296Y-81503316D01*
X148185862Y-81545030D01*
X148202633Y-81590535D01*
X148211186Y-81617854D01*
X148218417Y-81644498D01*
X148224369Y-81670476D01*
X148229085Y-81695795D01*
X148232608Y-81720462D01*
X148234981Y-81744483D01*
X148236246Y-81767866D01*
X148236446Y-81790618D01*
X148235625Y-81812746D01*
X148233824Y-81834258D01*
X148231086Y-81855159D01*
X148227455Y-81875458D01*
X148222973Y-81895160D01*
X148217683Y-81914275D01*
X148211628Y-81932807D01*
X148204849Y-81950766D01*
X148197392Y-81968156D01*
X148189297Y-81984987D01*
X148180607Y-82001264D01*
X148171367Y-82016995D01*
X148161617Y-82032187D01*
X148151402Y-82046847D01*
X148140764Y-82060982D01*
X148129745Y-82074599D01*
X148106738Y-82100307D01*
X148082722Y-82124029D01*
X148058041Y-82145821D01*
X148033036Y-82165739D01*
X148034094Y-82168650D01*
X148588396Y-82596481D01*
X148196813Y-82726921D01*
X147675583Y-82318140D01*
X147564194Y-82355181D01*
X147563929Y-82355710D01*
X147738554Y-82879850D01*
X147392215Y-82995208D01*
X146950008Y-81668588D01*
X147335329Y-81668588D01*
X147461800Y-82048000D01*
X147657592Y-81982648D01*
X147686857Y-81971989D01*
X147704015Y-81964723D01*
X147722196Y-81956062D01*
X147740902Y-81945926D01*
X147759637Y-81934237D01*
X147777904Y-81920917D01*
X147786708Y-81913620D01*
X147795208Y-81905886D01*
X147803343Y-81897704D01*
X147811052Y-81889066D01*
X147818270Y-81879961D01*
X147824938Y-81870378D01*
X147830992Y-81860310D01*
X147836371Y-81849744D01*
X147841013Y-81838673D01*
X147844855Y-81827085D01*
X147847835Y-81814972D01*
X147849892Y-81802323D01*
X147850963Y-81789128D01*
X147850986Y-81775377D01*
X147849900Y-81761062D01*
X147847641Y-81746171D01*
X147844149Y-81730695D01*
X147839361Y-81714625D01*
X147833731Y-81699382D01*
X147827439Y-81685279D01*
X147820526Y-81672277D01*
X147813035Y-81660336D01*
X147805007Y-81649419D01*
X147796486Y-81639487D01*
X147787513Y-81630501D01*
X147778130Y-81622422D01*
X147768381Y-81615211D01*
X147758306Y-81608831D01*
X147747950Y-81603241D01*
X147737353Y-81598404D01*
X147726558Y-81594281D01*
X147715608Y-81590833D01*
X147704544Y-81588021D01*
X147693410Y-81585806D01*
X147682247Y-81584150D01*
X147671097Y-81583015D01*
X147649008Y-81582150D01*
X147627481Y-81582901D01*
X147606854Y-81584959D01*
X147587466Y-81588013D01*
X147569654Y-81591755D01*
X147553759Y-81595874D01*
X147540117Y-81600061D01*
X147335329Y-81668323D01*
X147335329Y-81668588D01*
X146950008Y-81668588D01*
X146949920Y-81668323D01*
X146883156Y-81468033D01*
X147491698Y-81265098D01*
X147527477Y-81254295D01*
X147558561Y-81246550D01*
X147596903Y-81238855D01*
X147641347Y-81232418D01*
X147690737Y-81228449D01*
X147743920Y-81228158D01*
X147799739Y-81232753D01*
G37*
D11*
X161323333Y-104784819D02*
X160990000Y-104308628D01*
X160751905Y-104784819D02*
X160751905Y-103784819D01*
X160751905Y-103784819D02*
X161132857Y-103784819D01*
X161132857Y-103784819D02*
X161228095Y-103832438D01*
X161228095Y-103832438D02*
X161275714Y-103880057D01*
X161275714Y-103880057D02*
X161323333Y-103975295D01*
X161323333Y-103975295D02*
X161323333Y-104118152D01*
X161323333Y-104118152D02*
X161275714Y-104213390D01*
X161275714Y-104213390D02*
X161228095Y-104261009D01*
X161228095Y-104261009D02*
X161132857Y-104308628D01*
X161132857Y-104308628D02*
X160751905Y-104308628D01*
X162180476Y-104118152D02*
X162180476Y-104784819D01*
X161942381Y-103737200D02*
X161704286Y-104451485D01*
X161704286Y-104451485D02*
X162323333Y-104451485D01*
X144284819Y-108738094D02*
X143284819Y-108738094D01*
X143284819Y-108738094D02*
X143284819Y-108499999D01*
X143284819Y-108499999D02*
X143332438Y-108357142D01*
X143332438Y-108357142D02*
X143427676Y-108261904D01*
X143427676Y-108261904D02*
X143522914Y-108214285D01*
X143522914Y-108214285D02*
X143713390Y-108166666D01*
X143713390Y-108166666D02*
X143856247Y-108166666D01*
X143856247Y-108166666D02*
X144046723Y-108214285D01*
X144046723Y-108214285D02*
X144141961Y-108261904D01*
X144141961Y-108261904D02*
X144237200Y-108357142D01*
X144237200Y-108357142D02*
X144284819Y-108499999D01*
X144284819Y-108499999D02*
X144284819Y-108738094D01*
X143380057Y-107785713D02*
X143332438Y-107738094D01*
X143332438Y-107738094D02*
X143284819Y-107642856D01*
X143284819Y-107642856D02*
X143284819Y-107404761D01*
X143284819Y-107404761D02*
X143332438Y-107309523D01*
X143332438Y-107309523D02*
X143380057Y-107261904D01*
X143380057Y-107261904D02*
X143475295Y-107214285D01*
X143475295Y-107214285D02*
X143570533Y-107214285D01*
X143570533Y-107214285D02*
X143713390Y-107261904D01*
X143713390Y-107261904D02*
X144284819Y-107833332D01*
X144284819Y-107833332D02*
X144284819Y-107214285D01*
X123853333Y-92199580D02*
X123805714Y-92247200D01*
X123805714Y-92247200D02*
X123662857Y-92294819D01*
X123662857Y-92294819D02*
X123567619Y-92294819D01*
X123567619Y-92294819D02*
X123424762Y-92247200D01*
X123424762Y-92247200D02*
X123329524Y-92151961D01*
X123329524Y-92151961D02*
X123281905Y-92056723D01*
X123281905Y-92056723D02*
X123234286Y-91866247D01*
X123234286Y-91866247D02*
X123234286Y-91723390D01*
X123234286Y-91723390D02*
X123281905Y-91532914D01*
X123281905Y-91532914D02*
X123329524Y-91437676D01*
X123329524Y-91437676D02*
X123424762Y-91342438D01*
X123424762Y-91342438D02*
X123567619Y-91294819D01*
X123567619Y-91294819D02*
X123662857Y-91294819D01*
X123662857Y-91294819D02*
X123805714Y-91342438D01*
X123805714Y-91342438D02*
X123853333Y-91390057D01*
X124186667Y-91294819D02*
X124805714Y-91294819D01*
X124805714Y-91294819D02*
X124472381Y-91675771D01*
X124472381Y-91675771D02*
X124615238Y-91675771D01*
X124615238Y-91675771D02*
X124710476Y-91723390D01*
X124710476Y-91723390D02*
X124758095Y-91771009D01*
X124758095Y-91771009D02*
X124805714Y-91866247D01*
X124805714Y-91866247D02*
X124805714Y-92104342D01*
X124805714Y-92104342D02*
X124758095Y-92199580D01*
X124758095Y-92199580D02*
X124710476Y-92247200D01*
X124710476Y-92247200D02*
X124615238Y-92294819D01*
X124615238Y-92294819D02*
X124329524Y-92294819D01*
X124329524Y-92294819D02*
X124234286Y-92247200D01*
X124234286Y-92247200D02*
X124186667Y-92199580D01*
X153666666Y-87554819D02*
X153666666Y-88269104D01*
X153666666Y-88269104D02*
X153619047Y-88411961D01*
X153619047Y-88411961D02*
X153523809Y-88507200D01*
X153523809Y-88507200D02*
X153380952Y-88554819D01*
X153380952Y-88554819D02*
X153285714Y-88554819D01*
X154047619Y-87554819D02*
X154666666Y-87554819D01*
X154666666Y-87554819D02*
X154333333Y-87935771D01*
X154333333Y-87935771D02*
X154476190Y-87935771D01*
X154476190Y-87935771D02*
X154571428Y-87983390D01*
X154571428Y-87983390D02*
X154619047Y-88031009D01*
X154619047Y-88031009D02*
X154666666Y-88126247D01*
X154666666Y-88126247D02*
X154666666Y-88364342D01*
X154666666Y-88364342D02*
X154619047Y-88459580D01*
X154619047Y-88459580D02*
X154571428Y-88507200D01*
X154571428Y-88507200D02*
X154476190Y-88554819D01*
X154476190Y-88554819D02*
X154190476Y-88554819D01*
X154190476Y-88554819D02*
X154095238Y-88507200D01*
X154095238Y-88507200D02*
X154047619Y-88459580D01*
X167833333Y-104954819D02*
X167500000Y-104478628D01*
X167261905Y-104954819D02*
X167261905Y-103954819D01*
X167261905Y-103954819D02*
X167642857Y-103954819D01*
X167642857Y-103954819D02*
X167738095Y-104002438D01*
X167738095Y-104002438D02*
X167785714Y-104050057D01*
X167785714Y-104050057D02*
X167833333Y-104145295D01*
X167833333Y-104145295D02*
X167833333Y-104288152D01*
X167833333Y-104288152D02*
X167785714Y-104383390D01*
X167785714Y-104383390D02*
X167738095Y-104431009D01*
X167738095Y-104431009D02*
X167642857Y-104478628D01*
X167642857Y-104478628D02*
X167261905Y-104478628D01*
X168738095Y-103954819D02*
X168261905Y-103954819D01*
X168261905Y-103954819D02*
X168214286Y-104431009D01*
X168214286Y-104431009D02*
X168261905Y-104383390D01*
X168261905Y-104383390D02*
X168357143Y-104335771D01*
X168357143Y-104335771D02*
X168595238Y-104335771D01*
X168595238Y-104335771D02*
X168690476Y-104383390D01*
X168690476Y-104383390D02*
X168738095Y-104431009D01*
X168738095Y-104431009D02*
X168785714Y-104526247D01*
X168785714Y-104526247D02*
X168785714Y-104764342D01*
X168785714Y-104764342D02*
X168738095Y-104859580D01*
X168738095Y-104859580D02*
X168690476Y-104907200D01*
X168690476Y-104907200D02*
X168595238Y-104954819D01*
X168595238Y-104954819D02*
X168357143Y-104954819D01*
X168357143Y-104954819D02*
X168261905Y-104907200D01*
X168261905Y-104907200D02*
X168214286Y-104859580D01*
X123893333Y-84199580D02*
X123845714Y-84247200D01*
X123845714Y-84247200D02*
X123702857Y-84294819D01*
X123702857Y-84294819D02*
X123607619Y-84294819D01*
X123607619Y-84294819D02*
X123464762Y-84247200D01*
X123464762Y-84247200D02*
X123369524Y-84151961D01*
X123369524Y-84151961D02*
X123321905Y-84056723D01*
X123321905Y-84056723D02*
X123274286Y-83866247D01*
X123274286Y-83866247D02*
X123274286Y-83723390D01*
X123274286Y-83723390D02*
X123321905Y-83532914D01*
X123321905Y-83532914D02*
X123369524Y-83437676D01*
X123369524Y-83437676D02*
X123464762Y-83342438D01*
X123464762Y-83342438D02*
X123607619Y-83294819D01*
X123607619Y-83294819D02*
X123702857Y-83294819D01*
X123702857Y-83294819D02*
X123845714Y-83342438D01*
X123845714Y-83342438D02*
X123893333Y-83390057D01*
X124845714Y-84294819D02*
X124274286Y-84294819D01*
X124560000Y-84294819D02*
X124560000Y-83294819D01*
X124560000Y-83294819D02*
X124464762Y-83437676D01*
X124464762Y-83437676D02*
X124369524Y-83532914D01*
X124369524Y-83532914D02*
X124274286Y-83580533D01*
X123853333Y-88199580D02*
X123805714Y-88247200D01*
X123805714Y-88247200D02*
X123662857Y-88294819D01*
X123662857Y-88294819D02*
X123567619Y-88294819D01*
X123567619Y-88294819D02*
X123424762Y-88247200D01*
X123424762Y-88247200D02*
X123329524Y-88151961D01*
X123329524Y-88151961D02*
X123281905Y-88056723D01*
X123281905Y-88056723D02*
X123234286Y-87866247D01*
X123234286Y-87866247D02*
X123234286Y-87723390D01*
X123234286Y-87723390D02*
X123281905Y-87532914D01*
X123281905Y-87532914D02*
X123329524Y-87437676D01*
X123329524Y-87437676D02*
X123424762Y-87342438D01*
X123424762Y-87342438D02*
X123567619Y-87294819D01*
X123567619Y-87294819D02*
X123662857Y-87294819D01*
X123662857Y-87294819D02*
X123805714Y-87342438D01*
X123805714Y-87342438D02*
X123853333Y-87390057D01*
X124234286Y-87390057D02*
X124281905Y-87342438D01*
X124281905Y-87342438D02*
X124377143Y-87294819D01*
X124377143Y-87294819D02*
X124615238Y-87294819D01*
X124615238Y-87294819D02*
X124710476Y-87342438D01*
X124710476Y-87342438D02*
X124758095Y-87390057D01*
X124758095Y-87390057D02*
X124805714Y-87485295D01*
X124805714Y-87485295D02*
X124805714Y-87580533D01*
X124805714Y-87580533D02*
X124758095Y-87723390D01*
X124758095Y-87723390D02*
X124186667Y-88294819D01*
X124186667Y-88294819D02*
X124805714Y-88294819D01*
X118539580Y-104716666D02*
X118587200Y-104764285D01*
X118587200Y-104764285D02*
X118634819Y-104907142D01*
X118634819Y-104907142D02*
X118634819Y-105002380D01*
X118634819Y-105002380D02*
X118587200Y-105145237D01*
X118587200Y-105145237D02*
X118491961Y-105240475D01*
X118491961Y-105240475D02*
X118396723Y-105288094D01*
X118396723Y-105288094D02*
X118206247Y-105335713D01*
X118206247Y-105335713D02*
X118063390Y-105335713D01*
X118063390Y-105335713D02*
X117872914Y-105288094D01*
X117872914Y-105288094D02*
X117777676Y-105240475D01*
X117777676Y-105240475D02*
X117682438Y-105145237D01*
X117682438Y-105145237D02*
X117634819Y-105002380D01*
X117634819Y-105002380D02*
X117634819Y-104907142D01*
X117634819Y-104907142D02*
X117682438Y-104764285D01*
X117682438Y-104764285D02*
X117730057Y-104716666D01*
X117634819Y-103859523D02*
X117634819Y-104049999D01*
X117634819Y-104049999D02*
X117682438Y-104145237D01*
X117682438Y-104145237D02*
X117730057Y-104192856D01*
X117730057Y-104192856D02*
X117872914Y-104288094D01*
X117872914Y-104288094D02*
X118063390Y-104335713D01*
X118063390Y-104335713D02*
X118444342Y-104335713D01*
X118444342Y-104335713D02*
X118539580Y-104288094D01*
X118539580Y-104288094D02*
X118587200Y-104240475D01*
X118587200Y-104240475D02*
X118634819Y-104145237D01*
X118634819Y-104145237D02*
X118634819Y-103954761D01*
X118634819Y-103954761D02*
X118587200Y-103859523D01*
X118587200Y-103859523D02*
X118539580Y-103811904D01*
X118539580Y-103811904D02*
X118444342Y-103764285D01*
X118444342Y-103764285D02*
X118206247Y-103764285D01*
X118206247Y-103764285D02*
X118111009Y-103811904D01*
X118111009Y-103811904D02*
X118063390Y-103859523D01*
X118063390Y-103859523D02*
X118015771Y-103954761D01*
X118015771Y-103954761D02*
X118015771Y-104145237D01*
X118015771Y-104145237D02*
X118063390Y-104240475D01*
X118063390Y-104240475D02*
X118111009Y-104288094D01*
X118111009Y-104288094D02*
X118206247Y-104335713D01*
X140284819Y-108738094D02*
X139284819Y-108738094D01*
X139284819Y-108738094D02*
X139284819Y-108499999D01*
X139284819Y-108499999D02*
X139332438Y-108357142D01*
X139332438Y-108357142D02*
X139427676Y-108261904D01*
X139427676Y-108261904D02*
X139522914Y-108214285D01*
X139522914Y-108214285D02*
X139713390Y-108166666D01*
X139713390Y-108166666D02*
X139856247Y-108166666D01*
X139856247Y-108166666D02*
X140046723Y-108214285D01*
X140046723Y-108214285D02*
X140141961Y-108261904D01*
X140141961Y-108261904D02*
X140237200Y-108357142D01*
X140237200Y-108357142D02*
X140284819Y-108499999D01*
X140284819Y-108499999D02*
X140284819Y-108738094D01*
X140284819Y-107214285D02*
X140284819Y-107785713D01*
X140284819Y-107499999D02*
X139284819Y-107499999D01*
X139284819Y-107499999D02*
X139427676Y-107595237D01*
X139427676Y-107595237D02*
X139522914Y-107690475D01*
X139522914Y-107690475D02*
X139570533Y-107785713D01*
X160841666Y-106294819D02*
X160841666Y-107009104D01*
X160841666Y-107009104D02*
X160794047Y-107151961D01*
X160794047Y-107151961D02*
X160698809Y-107247200D01*
X160698809Y-107247200D02*
X160555952Y-107294819D01*
X160555952Y-107294819D02*
X160460714Y-107294819D01*
X161270238Y-106390057D02*
X161317857Y-106342438D01*
X161317857Y-106342438D02*
X161413095Y-106294819D01*
X161413095Y-106294819D02*
X161651190Y-106294819D01*
X161651190Y-106294819D02*
X161746428Y-106342438D01*
X161746428Y-106342438D02*
X161794047Y-106390057D01*
X161794047Y-106390057D02*
X161841666Y-106485295D01*
X161841666Y-106485295D02*
X161841666Y-106580533D01*
X161841666Y-106580533D02*
X161794047Y-106723390D01*
X161794047Y-106723390D02*
X161222619Y-107294819D01*
X161222619Y-107294819D02*
X161841666Y-107294819D01*
X123853333Y-100199580D02*
X123805714Y-100247200D01*
X123805714Y-100247200D02*
X123662857Y-100294819D01*
X123662857Y-100294819D02*
X123567619Y-100294819D01*
X123567619Y-100294819D02*
X123424762Y-100247200D01*
X123424762Y-100247200D02*
X123329524Y-100151961D01*
X123329524Y-100151961D02*
X123281905Y-100056723D01*
X123281905Y-100056723D02*
X123234286Y-99866247D01*
X123234286Y-99866247D02*
X123234286Y-99723390D01*
X123234286Y-99723390D02*
X123281905Y-99532914D01*
X123281905Y-99532914D02*
X123329524Y-99437676D01*
X123329524Y-99437676D02*
X123424762Y-99342438D01*
X123424762Y-99342438D02*
X123567619Y-99294819D01*
X123567619Y-99294819D02*
X123662857Y-99294819D01*
X123662857Y-99294819D02*
X123805714Y-99342438D01*
X123805714Y-99342438D02*
X123853333Y-99390057D01*
X124758095Y-99294819D02*
X124281905Y-99294819D01*
X124281905Y-99294819D02*
X124234286Y-99771009D01*
X124234286Y-99771009D02*
X124281905Y-99723390D01*
X124281905Y-99723390D02*
X124377143Y-99675771D01*
X124377143Y-99675771D02*
X124615238Y-99675771D01*
X124615238Y-99675771D02*
X124710476Y-99723390D01*
X124710476Y-99723390D02*
X124758095Y-99771009D01*
X124758095Y-99771009D02*
X124805714Y-99866247D01*
X124805714Y-99866247D02*
X124805714Y-100104342D01*
X124805714Y-100104342D02*
X124758095Y-100199580D01*
X124758095Y-100199580D02*
X124710476Y-100247200D01*
X124710476Y-100247200D02*
X124615238Y-100294819D01*
X124615238Y-100294819D02*
X124377143Y-100294819D01*
X124377143Y-100294819D02*
X124281905Y-100247200D01*
X124281905Y-100247200D02*
X124234286Y-100199580D01*
X153261905Y-97454819D02*
X153261905Y-96454819D01*
X153261905Y-96454819D02*
X153500000Y-96454819D01*
X153500000Y-96454819D02*
X153642857Y-96502438D01*
X153642857Y-96502438D02*
X153738095Y-96597676D01*
X153738095Y-96597676D02*
X153785714Y-96692914D01*
X153785714Y-96692914D02*
X153833333Y-96883390D01*
X153833333Y-96883390D02*
X153833333Y-97026247D01*
X153833333Y-97026247D02*
X153785714Y-97216723D01*
X153785714Y-97216723D02*
X153738095Y-97311961D01*
X153738095Y-97311961D02*
X153642857Y-97407200D01*
X153642857Y-97407200D02*
X153500000Y-97454819D01*
X153500000Y-97454819D02*
X153261905Y-97454819D01*
X154166667Y-96454819D02*
X154785714Y-96454819D01*
X154785714Y-96454819D02*
X154452381Y-96835771D01*
X154452381Y-96835771D02*
X154595238Y-96835771D01*
X154595238Y-96835771D02*
X154690476Y-96883390D01*
X154690476Y-96883390D02*
X154738095Y-96931009D01*
X154738095Y-96931009D02*
X154785714Y-97026247D01*
X154785714Y-97026247D02*
X154785714Y-97264342D01*
X154785714Y-97264342D02*
X154738095Y-97359580D01*
X154738095Y-97359580D02*
X154690476Y-97407200D01*
X154690476Y-97407200D02*
X154595238Y-97454819D01*
X154595238Y-97454819D02*
X154309524Y-97454819D01*
X154309524Y-97454819D02*
X154214286Y-97407200D01*
X154214286Y-97407200D02*
X154166667Y-97359580D01*
X135833333Y-111539580D02*
X135785714Y-111587200D01*
X135785714Y-111587200D02*
X135642857Y-111634819D01*
X135642857Y-111634819D02*
X135547619Y-111634819D01*
X135547619Y-111634819D02*
X135404762Y-111587200D01*
X135404762Y-111587200D02*
X135309524Y-111491961D01*
X135309524Y-111491961D02*
X135261905Y-111396723D01*
X135261905Y-111396723D02*
X135214286Y-111206247D01*
X135214286Y-111206247D02*
X135214286Y-111063390D01*
X135214286Y-111063390D02*
X135261905Y-110872914D01*
X135261905Y-110872914D02*
X135309524Y-110777676D01*
X135309524Y-110777676D02*
X135404762Y-110682438D01*
X135404762Y-110682438D02*
X135547619Y-110634819D01*
X135547619Y-110634819D02*
X135642857Y-110634819D01*
X135642857Y-110634819D02*
X135785714Y-110682438D01*
X135785714Y-110682438D02*
X135833333Y-110730057D01*
X136166667Y-110634819D02*
X136833333Y-110634819D01*
X136833333Y-110634819D02*
X136404762Y-111634819D01*
X155823333Y-103784819D02*
X155490000Y-103308628D01*
X155251905Y-103784819D02*
X155251905Y-102784819D01*
X155251905Y-102784819D02*
X155632857Y-102784819D01*
X155632857Y-102784819D02*
X155728095Y-102832438D01*
X155728095Y-102832438D02*
X155775714Y-102880057D01*
X155775714Y-102880057D02*
X155823333Y-102975295D01*
X155823333Y-102975295D02*
X155823333Y-103118152D01*
X155823333Y-103118152D02*
X155775714Y-103213390D01*
X155775714Y-103213390D02*
X155728095Y-103261009D01*
X155728095Y-103261009D02*
X155632857Y-103308628D01*
X155632857Y-103308628D02*
X155251905Y-103308628D01*
X156204286Y-102880057D02*
X156251905Y-102832438D01*
X156251905Y-102832438D02*
X156347143Y-102784819D01*
X156347143Y-102784819D02*
X156585238Y-102784819D01*
X156585238Y-102784819D02*
X156680476Y-102832438D01*
X156680476Y-102832438D02*
X156728095Y-102880057D01*
X156728095Y-102880057D02*
X156775714Y-102975295D01*
X156775714Y-102975295D02*
X156775714Y-103070533D01*
X156775714Y-103070533D02*
X156728095Y-103213390D01*
X156728095Y-103213390D02*
X156156667Y-103784819D01*
X156156667Y-103784819D02*
X156775714Y-103784819D01*
X135833333Y-104784819D02*
X135500000Y-104308628D01*
X135261905Y-104784819D02*
X135261905Y-103784819D01*
X135261905Y-103784819D02*
X135642857Y-103784819D01*
X135642857Y-103784819D02*
X135738095Y-103832438D01*
X135738095Y-103832438D02*
X135785714Y-103880057D01*
X135785714Y-103880057D02*
X135833333Y-103975295D01*
X135833333Y-103975295D02*
X135833333Y-104118152D01*
X135833333Y-104118152D02*
X135785714Y-104213390D01*
X135785714Y-104213390D02*
X135738095Y-104261009D01*
X135738095Y-104261009D02*
X135642857Y-104308628D01*
X135642857Y-104308628D02*
X135261905Y-104308628D01*
X136166667Y-103784819D02*
X136785714Y-103784819D01*
X136785714Y-103784819D02*
X136452381Y-104165771D01*
X136452381Y-104165771D02*
X136595238Y-104165771D01*
X136595238Y-104165771D02*
X136690476Y-104213390D01*
X136690476Y-104213390D02*
X136738095Y-104261009D01*
X136738095Y-104261009D02*
X136785714Y-104356247D01*
X136785714Y-104356247D02*
X136785714Y-104594342D01*
X136785714Y-104594342D02*
X136738095Y-104689580D01*
X136738095Y-104689580D02*
X136690476Y-104737200D01*
X136690476Y-104737200D02*
X136595238Y-104784819D01*
X136595238Y-104784819D02*
X136309524Y-104784819D01*
X136309524Y-104784819D02*
X136214286Y-104737200D01*
X136214286Y-104737200D02*
X136166667Y-104689580D01*
X126138095Y-104379819D02*
X126138095Y-105189342D01*
X126138095Y-105189342D02*
X126185714Y-105284580D01*
X126185714Y-105284580D02*
X126233333Y-105332200D01*
X126233333Y-105332200D02*
X126328571Y-105379819D01*
X126328571Y-105379819D02*
X126519047Y-105379819D01*
X126519047Y-105379819D02*
X126614285Y-105332200D01*
X126614285Y-105332200D02*
X126661904Y-105284580D01*
X126661904Y-105284580D02*
X126709523Y-105189342D01*
X126709523Y-105189342D02*
X126709523Y-104379819D01*
X127138095Y-104475057D02*
X127185714Y-104427438D01*
X127185714Y-104427438D02*
X127280952Y-104379819D01*
X127280952Y-104379819D02*
X127519047Y-104379819D01*
X127519047Y-104379819D02*
X127614285Y-104427438D01*
X127614285Y-104427438D02*
X127661904Y-104475057D01*
X127661904Y-104475057D02*
X127709523Y-104570295D01*
X127709523Y-104570295D02*
X127709523Y-104665533D01*
X127709523Y-104665533D02*
X127661904Y-104808390D01*
X127661904Y-104808390D02*
X127090476Y-105379819D01*
X127090476Y-105379819D02*
X127709523Y-105379819D01*
X151823333Y-103784819D02*
X151490000Y-103308628D01*
X151251905Y-103784819D02*
X151251905Y-102784819D01*
X151251905Y-102784819D02*
X151632857Y-102784819D01*
X151632857Y-102784819D02*
X151728095Y-102832438D01*
X151728095Y-102832438D02*
X151775714Y-102880057D01*
X151775714Y-102880057D02*
X151823333Y-102975295D01*
X151823333Y-102975295D02*
X151823333Y-103118152D01*
X151823333Y-103118152D02*
X151775714Y-103213390D01*
X151775714Y-103213390D02*
X151728095Y-103261009D01*
X151728095Y-103261009D02*
X151632857Y-103308628D01*
X151632857Y-103308628D02*
X151251905Y-103308628D01*
X152775714Y-103784819D02*
X152204286Y-103784819D01*
X152490000Y-103784819D02*
X152490000Y-102784819D01*
X152490000Y-102784819D02*
X152394762Y-102927676D01*
X152394762Y-102927676D02*
X152299524Y-103022914D01*
X152299524Y-103022914D02*
X152204286Y-103070533D01*
X123853333Y-96199580D02*
X123805714Y-96247200D01*
X123805714Y-96247200D02*
X123662857Y-96294819D01*
X123662857Y-96294819D02*
X123567619Y-96294819D01*
X123567619Y-96294819D02*
X123424762Y-96247200D01*
X123424762Y-96247200D02*
X123329524Y-96151961D01*
X123329524Y-96151961D02*
X123281905Y-96056723D01*
X123281905Y-96056723D02*
X123234286Y-95866247D01*
X123234286Y-95866247D02*
X123234286Y-95723390D01*
X123234286Y-95723390D02*
X123281905Y-95532914D01*
X123281905Y-95532914D02*
X123329524Y-95437676D01*
X123329524Y-95437676D02*
X123424762Y-95342438D01*
X123424762Y-95342438D02*
X123567619Y-95294819D01*
X123567619Y-95294819D02*
X123662857Y-95294819D01*
X123662857Y-95294819D02*
X123805714Y-95342438D01*
X123805714Y-95342438D02*
X123853333Y-95390057D01*
X124710476Y-95628152D02*
X124710476Y-96294819D01*
X124472381Y-95247200D02*
X124234286Y-95961485D01*
X124234286Y-95961485D02*
X124853333Y-95961485D01*
X135358095Y-89011319D02*
X135358095Y-89820842D01*
X135358095Y-89820842D02*
X135405714Y-89916080D01*
X135405714Y-89916080D02*
X135453333Y-89963700D01*
X135453333Y-89963700D02*
X135548571Y-90011319D01*
X135548571Y-90011319D02*
X135739047Y-90011319D01*
X135739047Y-90011319D02*
X135834285Y-89963700D01*
X135834285Y-89963700D02*
X135881904Y-89916080D01*
X135881904Y-89916080D02*
X135929523Y-89820842D01*
X135929523Y-89820842D02*
X135929523Y-89011319D01*
X136929523Y-90011319D02*
X136358095Y-90011319D01*
X136643809Y-90011319D02*
X136643809Y-89011319D01*
X136643809Y-89011319D02*
X136548571Y-89154176D01*
X136548571Y-89154176D02*
X136453333Y-89249414D01*
X136453333Y-89249414D02*
X136358095Y-89297033D01*
D12*
%TO.C,R4*%
X161336359Y-105880000D02*
X161643641Y-105880000D01*
X161336359Y-105120000D02*
X161643641Y-105120000D01*
D13*
%TO.C,D2*%
X145050000Y-109090000D02*
G75*
G02*
X144950000Y-109090000I-50000J0D01*
G01*
X144950000Y-109090000D02*
G75*
G02*
X145050000Y-109090000I50000J0D01*
G01*
D12*
%TO.C,C3*%
X123912164Y-92640000D02*
X124127836Y-92640000D01*
X123912164Y-93360000D02*
X124127836Y-93360000D01*
%TO.C,J3*%
X150640000Y-88890000D02*
X150640000Y-90140000D01*
X150940000Y-90500000D02*
X151550000Y-90500000D01*
X150940000Y-91800000D02*
X151550000Y-91800000D01*
X151550000Y-89800000D02*
X151550000Y-93300000D01*
X151550000Y-93300000D02*
X156450000Y-93300000D01*
X151890000Y-88890000D02*
X150640000Y-88890000D01*
X152400000Y-88990000D02*
X152400000Y-89190000D01*
X152700000Y-88990000D02*
X152400000Y-88990000D01*
X152700000Y-89090000D02*
X152400000Y-89090000D01*
X152700000Y-89190000D02*
X152700000Y-88990000D01*
X153500000Y-89190000D02*
X153500000Y-89800000D01*
X153500000Y-89800000D02*
X151550000Y-89800000D01*
X153900000Y-92800000D02*
X154100000Y-92800000D01*
X153900000Y-93300000D02*
X153900000Y-92800000D01*
X154000000Y-93300000D02*
X154000000Y-92800000D01*
X154100000Y-92800000D02*
X154100000Y-93300000D01*
X154500000Y-89800000D02*
X154500000Y-89190000D01*
X156450000Y-89800000D02*
X154500000Y-89800000D01*
X156450000Y-93300000D02*
X156450000Y-89800000D01*
X157060000Y-90500000D02*
X156450000Y-90500000D01*
X157060000Y-91800000D02*
X156450000Y-91800000D01*
X150940000Y-89190000D02*
X157060000Y-89190000D01*
X157060000Y-93910000D01*
X150940000Y-93910000D01*
X150940000Y-89190000D01*
%TO.C,R5*%
X167836359Y-105120000D02*
X168143641Y-105120000D01*
X167836359Y-105880000D02*
X168143641Y-105880000D01*
%TO.C,C1*%
X123952164Y-84640000D02*
X124167836Y-84640000D01*
X123952164Y-85360000D02*
X124167836Y-85360000D01*
%TO.C,C2*%
X123912164Y-88640000D02*
X124127836Y-88640000D01*
X123912164Y-89360000D02*
X124127836Y-89360000D01*
%TO.C,C6*%
X115765000Y-104288748D02*
X115765000Y-104811252D01*
X117235000Y-104288748D02*
X117235000Y-104811252D01*
D13*
%TO.C,D1*%
X141050000Y-109090000D02*
G75*
G02*
X140950000Y-109090000I-50000J0D01*
G01*
X140950000Y-109090000D02*
G75*
G02*
X141050000Y-109090000I50000J0D01*
G01*
D12*
%TO.C,J2*%
X156580000Y-111040000D02*
X156580000Y-111940000D01*
X156580000Y-114640000D02*
X156580000Y-117370000D01*
X156580000Y-117370000D02*
X165770000Y-117370000D01*
X156700000Y-107960000D02*
X165650000Y-107960000D01*
X165770000Y-111040000D02*
X165770000Y-111940000D01*
X165770000Y-114640000D02*
X165770000Y-117370000D01*
%TO.C,C5*%
X123912164Y-100640000D02*
X124127836Y-100640000D01*
X123912164Y-101360000D02*
X124127836Y-101360000D01*
%TO.C,D3*%
X150490000Y-97850000D02*
X150490000Y-101150000D01*
X150490000Y-97850000D02*
X156000000Y-97850000D01*
X150490000Y-101150000D02*
X156000000Y-101150000D01*
%TO.C,C7*%
X136261252Y-108765000D02*
X135738748Y-108765000D01*
X136261252Y-110235000D02*
X135738748Y-110235000D01*
%TO.C,R2*%
X155836359Y-104120000D02*
X156143641Y-104120000D01*
X155836359Y-104880000D02*
X156143641Y-104880000D01*
%TO.C,R3*%
X135846359Y-105120000D02*
X136153641Y-105120000D01*
X135846359Y-105880000D02*
X136153641Y-105880000D01*
%TO.C,U2*%
X124840000Y-105765000D02*
X128960000Y-105765000D01*
X124840000Y-105860000D02*
X124840000Y-105765000D01*
X124840000Y-110885000D02*
X124840000Y-110790000D01*
X128960000Y-105765000D02*
X128960000Y-105860000D01*
X128960000Y-110790000D02*
X128960000Y-110885000D01*
X128960000Y-110885000D02*
X124840000Y-110885000D01*
X124300000Y-105855000D02*
X124060000Y-105525000D01*
X124540000Y-105525000D01*
X124300000Y-105855000D01*
G36*
X124300000Y-105855000D02*
G01*
X124060000Y-105525000D01*
X124540000Y-105525000D01*
X124300000Y-105855000D01*
G37*
%TO.C,R1*%
X151836359Y-104120000D02*
X152143641Y-104120000D01*
X151836359Y-104880000D02*
X152143641Y-104880000D01*
%TO.C,C4*%
X123912164Y-96640000D02*
X124127836Y-96640000D01*
X123912164Y-97360000D02*
X124127836Y-97360000D01*
D14*
%TO.C,U1*%
X127230000Y-79079000D02*
X145010000Y-79079000D01*
X127230000Y-100034000D02*
X127230000Y-79079000D01*
X145010000Y-79079000D02*
X145010000Y-100034000D01*
X145010000Y-100034000D02*
X127230000Y-100034000D01*
D15*
X126720000Y-81873000D02*
G75*
G02*
X126520000Y-81873000I-100000J0D01*
G01*
X126520000Y-81873000D02*
G75*
G02*
X126720000Y-81873000I100000J0D01*
G01*
%TD*%
M02*
