%TF.GenerationSoftware,KiCad,Pcbnew,9.0.7*%
%TF.CreationDate,2026-04-14T12:30:23-04:00*%
%TF.ProjectId,camara-diy,63616d61-7261-42d6-9469-792e6b696361,rev?*%
%TF.SameCoordinates,Original*%
%TF.FileFunction,Legend,Bot*%
%TF.FilePolarity,Positive*%
%FSLAX46Y46*%
G04 Gerber Fmt 4.6, Leading zero omitted, Abs format (unit mm)*
G04 Created by KiCad (PCBNEW 9.0.7) date 2026-04-14 12:30:23*
%MOMM*%
%LPD*%
G01*
G04 APERTURE LIST*
%ADD10C,0.000000*%
%ADD11C,0.150000*%
%ADD12C,0.120000*%
G04 APERTURE END LIST*
D10*
G36*
X116016529Y-115472853D02*
G01*
X116023371Y-115472960D01*
X116030146Y-115473278D01*
X116036852Y-115473811D01*
X116043489Y-115474558D01*
X116050057Y-115475519D01*
X116056553Y-115476696D01*
X116062979Y-115478089D01*
X116069333Y-115479700D01*
X116075614Y-115481528D01*
X116081822Y-115483574D01*
X116087956Y-115485839D01*
X116094016Y-115488324D01*
X116100000Y-115491030D01*
X116105908Y-115493957D01*
X116111740Y-115497105D01*
X116117494Y-115500476D01*
X116123178Y-115504020D01*
X116128801Y-115507688D01*
X116134363Y-115511479D01*
X116139863Y-115515396D01*
X116145302Y-115519438D01*
X116150679Y-115523607D01*
X116155995Y-115527902D01*
X116161250Y-115532325D01*
X116166443Y-115536877D01*
X116171575Y-115541557D01*
X116176645Y-115546367D01*
X116181654Y-115551308D01*
X116186602Y-115556380D01*
X116191488Y-115561584D01*
X116196313Y-115566920D01*
X116201076Y-115572390D01*
X116202896Y-115566066D01*
X116204871Y-115559956D01*
X116207002Y-115554058D01*
X116209288Y-115548373D01*
X116211729Y-115542901D01*
X116214324Y-115537643D01*
X116217074Y-115532600D01*
X116219978Y-115527771D01*
X116223035Y-115523157D01*
X116226245Y-115518758D01*
X116229608Y-115514575D01*
X116233123Y-115510607D01*
X116236790Y-115506856D01*
X116240610Y-115503322D01*
X116244580Y-115500004D01*
X116248702Y-115496904D01*
X116252952Y-115494005D01*
X116257308Y-115491290D01*
X116261771Y-115488760D01*
X116266342Y-115486415D01*
X116271019Y-115484256D01*
X116275805Y-115482283D01*
X116280698Y-115480496D01*
X116285700Y-115478896D01*
X116290811Y-115477482D01*
X116296031Y-115476256D01*
X116301361Y-115475218D01*
X116306800Y-115474368D01*
X116312350Y-115473706D01*
X116318010Y-115473232D01*
X116323782Y-115472948D01*
X116329664Y-115472853D01*
X116336523Y-115472962D01*
X116343260Y-115473288D01*
X116349876Y-115473831D01*
X116356371Y-115474591D01*
X116362746Y-115475567D01*
X116369002Y-115476759D01*
X116375140Y-115478166D01*
X116381159Y-115479789D01*
X116387061Y-115481626D01*
X116392847Y-115483678D01*
X116398517Y-115485945D01*
X116404071Y-115488425D01*
X116409512Y-115491118D01*
X116414838Y-115494025D01*
X116420052Y-115497144D01*
X116425153Y-115500476D01*
X116430196Y-115504017D01*
X116435232Y-115507765D01*
X116440262Y-115511718D01*
X116445286Y-115515876D01*
X116450303Y-115520240D01*
X116455312Y-115524808D01*
X116460313Y-115529581D01*
X116465307Y-115534558D01*
X116470292Y-115539738D01*
X116475268Y-115545122D01*
X116480236Y-115550709D01*
X116485193Y-115556499D01*
X116490142Y-115562491D01*
X116495080Y-115568685D01*
X116500007Y-115575080D01*
X116504924Y-115581677D01*
X116521593Y-115500476D01*
X116704711Y-115500476D01*
X116704711Y-116338438D01*
X116487780Y-116338438D01*
X116487780Y-115720504D01*
X116484629Y-115716611D01*
X116481517Y-115712879D01*
X116478442Y-115709309D01*
X116475405Y-115705900D01*
X116472403Y-115702651D01*
X116469438Y-115699562D01*
X116466507Y-115696633D01*
X116463610Y-115693863D01*
X116460747Y-115691253D01*
X116457917Y-115688801D01*
X116455118Y-115686507D01*
X116452351Y-115684372D01*
X116449615Y-115682394D01*
X116446909Y-115680574D01*
X116444232Y-115678910D01*
X116441583Y-115677403D01*
X116438955Y-115676019D01*
X116436337Y-115674724D01*
X116433730Y-115673519D01*
X116431135Y-115672402D01*
X116428551Y-115671376D01*
X116425978Y-115670438D01*
X116423416Y-115669590D01*
X116420866Y-115668831D01*
X116418326Y-115668161D01*
X116415798Y-115667580D01*
X116413281Y-115667089D01*
X116410775Y-115666687D01*
X116408281Y-115666375D01*
X116405797Y-115666152D01*
X116403325Y-115666018D01*
X116400864Y-115665973D01*
X116397761Y-115666043D01*
X116396260Y-115666130D01*
X116394792Y-115666252D01*
X116393357Y-115666410D01*
X116391957Y-115666602D01*
X116390589Y-115666830D01*
X116389255Y-115667093D01*
X116387955Y-115667391D01*
X116386688Y-115667724D01*
X116385455Y-115668093D01*
X116384255Y-115668497D01*
X116383088Y-115668936D01*
X116381955Y-115669411D01*
X116380856Y-115669922D01*
X116379790Y-115670468D01*
X116378757Y-115671049D01*
X116377758Y-115671666D01*
X116376793Y-115672319D01*
X116375861Y-115673007D01*
X116374962Y-115673732D01*
X116374097Y-115674492D01*
X116373266Y-115675288D01*
X116372468Y-115676119D01*
X116371703Y-115676987D01*
X116370972Y-115677891D01*
X116370274Y-115678830D01*
X116369610Y-115679806D01*
X116368979Y-115680818D01*
X116368382Y-115681866D01*
X116367819Y-115682950D01*
X116367288Y-115684071D01*
X116366292Y-115686448D01*
X116365358Y-115689027D01*
X116364486Y-115691808D01*
X116363676Y-115694790D01*
X116362929Y-115697975D01*
X116362245Y-115701362D01*
X116361068Y-115708746D01*
X116360148Y-115716945D01*
X116359487Y-115725962D01*
X116359089Y-115735799D01*
X116358955Y-115746459D01*
X116358955Y-116338200D01*
X116183696Y-116338200D01*
X116183696Y-115720266D01*
X116180545Y-115716373D01*
X116177433Y-115712641D01*
X116174358Y-115709071D01*
X116171320Y-115705662D01*
X116168319Y-115702413D01*
X116165353Y-115699324D01*
X116162422Y-115696395D01*
X116159525Y-115693625D01*
X116156662Y-115691015D01*
X116153832Y-115688563D01*
X116151033Y-115686270D01*
X116148266Y-115684134D01*
X116145530Y-115682156D01*
X116142824Y-115680336D01*
X116140147Y-115678672D01*
X116137498Y-115677165D01*
X116134869Y-115675781D01*
X116132252Y-115674486D01*
X116129645Y-115673281D01*
X116127050Y-115672164D01*
X116124466Y-115671138D01*
X116121893Y-115670200D01*
X116119332Y-115669352D01*
X116116781Y-115668593D01*
X116114242Y-115667923D01*
X116111714Y-115667342D01*
X116109197Y-115666851D01*
X116106691Y-115666449D01*
X116104196Y-115666137D01*
X116101713Y-115665914D01*
X116099240Y-115665780D01*
X116096779Y-115665735D01*
X116093676Y-115665805D01*
X116092175Y-115665892D01*
X116090707Y-115666015D01*
X116089273Y-115666172D01*
X116087872Y-115666364D01*
X116086505Y-115666592D01*
X116085171Y-115666855D01*
X116083871Y-115667153D01*
X116082604Y-115667486D01*
X116081370Y-115667855D01*
X116080170Y-115668259D01*
X116079004Y-115668698D01*
X116077871Y-115669173D01*
X116076772Y-115669684D01*
X116075706Y-115670230D01*
X116074673Y-115670811D01*
X116073674Y-115671428D01*
X116072708Y-115672081D01*
X116071776Y-115672769D01*
X116070878Y-115673494D01*
X116070013Y-115674254D01*
X116069181Y-115675050D01*
X116068383Y-115675881D01*
X116067619Y-115676749D01*
X116066888Y-115677653D01*
X116066190Y-115678592D01*
X116065526Y-115679568D01*
X116064895Y-115680580D01*
X116064298Y-115681628D01*
X116063735Y-115682712D01*
X116063205Y-115683833D01*
X116062208Y-115686210D01*
X116061274Y-115688789D01*
X116060402Y-115691570D01*
X116059592Y-115694552D01*
X116058845Y-115697737D01*
X116058161Y-115701124D01*
X116056984Y-115708508D01*
X116056063Y-115716707D01*
X116055402Y-115725724D01*
X116055004Y-115735561D01*
X116054870Y-115746221D01*
X116054870Y-116337962D01*
X115841035Y-116337962D01*
X115841035Y-115717646D01*
X115841205Y-115701760D01*
X115841715Y-115686427D01*
X115842564Y-115671648D01*
X115843751Y-115657423D01*
X115845276Y-115643754D01*
X115847138Y-115630640D01*
X115849336Y-115618084D01*
X115851869Y-115606085D01*
X115854738Y-115594644D01*
X115857940Y-115583761D01*
X115861477Y-115573439D01*
X115865345Y-115563676D01*
X115869546Y-115554474D01*
X115874079Y-115545834D01*
X115878941Y-115537757D01*
X115884134Y-115530242D01*
X115889674Y-115523193D01*
X115895576Y-115516601D01*
X115901840Y-115510467D01*
X115908468Y-115504788D01*
X115915458Y-115499567D01*
X115922811Y-115494801D01*
X115930527Y-115490490D01*
X115938606Y-115486635D01*
X115947047Y-115483235D01*
X115955851Y-115480289D01*
X115965018Y-115477797D01*
X115974548Y-115475760D01*
X115984440Y-115474175D01*
X115994695Y-115473044D01*
X116005313Y-115472365D01*
X116016294Y-115472139D01*
X116016529Y-115472853D01*
G37*
G36*
X117219651Y-115472141D02*
G01*
X117219540Y-115472139D01*
X117219777Y-115472139D01*
X117219651Y-115472141D01*
G37*
G36*
X117626550Y-115943975D02*
G01*
X117625287Y-115969310D01*
X117623182Y-115993913D01*
X117620237Y-116017784D01*
X117616451Y-116040922D01*
X117611827Y-116063328D01*
X117606364Y-116085000D01*
X117600063Y-116105939D01*
X117592925Y-116126143D01*
X117584950Y-116145614D01*
X117576140Y-116164350D01*
X117566495Y-116182351D01*
X117556015Y-116199616D01*
X117544702Y-116216146D01*
X117532556Y-116231940D01*
X117519577Y-116246998D01*
X117505848Y-116261230D01*
X117491449Y-116274546D01*
X117476381Y-116286946D01*
X117460645Y-116298429D01*
X117444240Y-116308996D01*
X117427167Y-116318646D01*
X117409427Y-116327379D01*
X117391019Y-116335194D01*
X117371945Y-116342090D01*
X117352203Y-116348069D01*
X117331796Y-116353128D01*
X117310722Y-116357268D01*
X117288983Y-116360489D01*
X117266579Y-116362790D01*
X117243510Y-116364171D01*
X117219777Y-116364632D01*
X117196043Y-116364168D01*
X117172974Y-116362778D01*
X117150570Y-116360459D01*
X117128832Y-116357213D01*
X117107758Y-116353036D01*
X117087351Y-116347930D01*
X117067610Y-116341894D01*
X117048535Y-116334926D01*
X117030127Y-116327026D01*
X117012387Y-116318193D01*
X116995314Y-116308426D01*
X116978910Y-116297726D01*
X116963173Y-116286091D01*
X116948106Y-116273520D01*
X116933707Y-116260013D01*
X116919978Y-116245569D01*
X116906960Y-116230305D01*
X116894784Y-116214337D01*
X116883450Y-116197664D01*
X116872959Y-116180286D01*
X116863308Y-116162202D01*
X116854499Y-116143411D01*
X116846530Y-116123913D01*
X116839401Y-116103706D01*
X116833113Y-116082791D01*
X116827664Y-116061167D01*
X116823054Y-116038832D01*
X116819283Y-116015786D01*
X116816351Y-115992029D01*
X116814257Y-115967559D01*
X116813001Y-115942377D01*
X116812582Y-115916481D01*
X116812582Y-115916480D01*
X117069997Y-115916480D01*
X117070140Y-115933762D01*
X117070567Y-115950426D01*
X117071279Y-115966472D01*
X117072278Y-115981901D01*
X117073562Y-115996716D01*
X117075133Y-116010916D01*
X117076990Y-116024503D01*
X117079135Y-116037478D01*
X117081567Y-116049841D01*
X117084286Y-116061595D01*
X117087294Y-116072739D01*
X117090590Y-116083276D01*
X117094176Y-116093205D01*
X117098050Y-116102529D01*
X117102214Y-116111248D01*
X117106668Y-116119363D01*
X117111381Y-116126931D01*
X117116412Y-116134008D01*
X117121759Y-116140595D01*
X117127422Y-116146691D01*
X117133401Y-116152298D01*
X117139694Y-116157416D01*
X117146301Y-116162044D01*
X117153221Y-116166184D01*
X117160454Y-116169836D01*
X117167999Y-116172999D01*
X117175855Y-116175675D01*
X117184021Y-116177864D01*
X117192497Y-116179565D01*
X117201282Y-116180780D01*
X117210375Y-116181509D01*
X117219777Y-116181752D01*
X117229175Y-116181509D01*
X117233758Y-116181205D01*
X117238262Y-116180780D01*
X117242688Y-116180233D01*
X117247037Y-116179565D01*
X117251307Y-116178775D01*
X117255500Y-116177864D01*
X117259614Y-116176830D01*
X117263652Y-116175675D01*
X117267611Y-116174398D01*
X117271493Y-116172999D01*
X117275297Y-116171478D01*
X117279023Y-116169836D01*
X117282672Y-116168071D01*
X117286244Y-116166184D01*
X117289738Y-116164175D01*
X117293155Y-116162044D01*
X117296494Y-116159791D01*
X117299756Y-116157416D01*
X117302941Y-116154918D01*
X117306048Y-116152298D01*
X117309079Y-116149556D01*
X117312032Y-116146691D01*
X117314908Y-116143704D01*
X117317707Y-116140595D01*
X117320429Y-116137363D01*
X117323074Y-116134008D01*
X117325643Y-116130531D01*
X117328134Y-116126931D01*
X117330549Y-116123208D01*
X117332886Y-116119363D01*
X117337340Y-116111274D01*
X117341504Y-116102552D01*
X117345378Y-116093203D01*
X117348963Y-116083235D01*
X117352260Y-116072656D01*
X117355268Y-116061473D01*
X117357987Y-116049695D01*
X117360419Y-116037329D01*
X117362564Y-116024382D01*
X117364421Y-116010863D01*
X117365992Y-115996778D01*
X117367277Y-115982136D01*
X117368988Y-115951210D01*
X117369557Y-115918147D01*
X117369415Y-115901379D01*
X117368988Y-115885186D01*
X117368275Y-115869567D01*
X117367277Y-115854523D01*
X117365992Y-115840054D01*
X117364422Y-115826160D01*
X117362564Y-115812841D01*
X117360420Y-115800097D01*
X117357988Y-115787927D01*
X117355268Y-115776333D01*
X117352260Y-115765313D01*
X117348964Y-115754868D01*
X117345379Y-115744998D01*
X117341504Y-115735703D01*
X117337340Y-115726982D01*
X117332886Y-115718837D01*
X117328173Y-115711266D01*
X117323143Y-115704181D01*
X117317795Y-115697583D01*
X117312132Y-115691471D01*
X117306154Y-115685846D01*
X117299860Y-115680708D01*
X117293253Y-115676058D01*
X117286333Y-115671896D01*
X117279100Y-115668223D01*
X117271555Y-115665038D01*
X117263699Y-115662342D01*
X117255533Y-115660135D01*
X117247057Y-115658418D01*
X117238272Y-115657192D01*
X117229178Y-115656455D01*
X117219777Y-115656210D01*
X117219777Y-115655972D01*
X117210378Y-115656214D01*
X117205796Y-115656518D01*
X117201292Y-115656943D01*
X117196865Y-115657490D01*
X117192517Y-115658158D01*
X117188247Y-115658948D01*
X117184054Y-115659860D01*
X117179939Y-115660893D01*
X117175902Y-115662048D01*
X117171943Y-115663325D01*
X117168061Y-115664724D01*
X117164257Y-115666245D01*
X117160531Y-115667888D01*
X117156881Y-115669652D01*
X117153310Y-115671539D01*
X117149816Y-115673548D01*
X117146399Y-115675679D01*
X117143060Y-115677932D01*
X117139798Y-115680307D01*
X117136613Y-115682805D01*
X117133506Y-115685425D01*
X117130475Y-115688167D01*
X117127522Y-115691032D01*
X117124646Y-115694019D01*
X117121847Y-115697129D01*
X117119125Y-115700361D01*
X117116480Y-115703715D01*
X117113912Y-115707193D01*
X117111420Y-115710792D01*
X117109006Y-115714515D01*
X117106668Y-115718360D01*
X117102214Y-115726422D01*
X117098051Y-115734990D01*
X117094176Y-115744078D01*
X117090591Y-115753703D01*
X117087295Y-115763879D01*
X117084287Y-115774622D01*
X117081567Y-115785945D01*
X117079135Y-115797864D01*
X117076991Y-115810395D01*
X117075133Y-115823552D01*
X117073562Y-115837350D01*
X117072278Y-115851804D01*
X117071280Y-115866929D01*
X117070567Y-115882740D01*
X117069997Y-115916480D01*
X116812582Y-115916480D01*
X116812769Y-115899827D01*
X116813330Y-115883441D01*
X116814266Y-115867324D01*
X116815578Y-115851476D01*
X116817264Y-115835897D01*
X116819326Y-115820588D01*
X116821764Y-115805549D01*
X116824578Y-115790780D01*
X116827770Y-115776282D01*
X116831338Y-115762055D01*
X116835283Y-115748099D01*
X116839607Y-115734415D01*
X116844308Y-115721004D01*
X116849388Y-115707864D01*
X116854847Y-115694997D01*
X116860684Y-115682404D01*
X116866837Y-115670120D01*
X116873330Y-115658182D01*
X116880162Y-115646590D01*
X116887332Y-115635344D01*
X116894840Y-115624444D01*
X116902685Y-115613891D01*
X116910866Y-115603683D01*
X116919383Y-115593821D01*
X116928234Y-115584305D01*
X116937420Y-115575136D01*
X116946939Y-115566312D01*
X116956791Y-115557834D01*
X116966974Y-115549703D01*
X116977490Y-115541917D01*
X116988336Y-115534478D01*
X116999512Y-115527384D01*
X117011006Y-115520681D01*
X117022806Y-115514413D01*
X117034912Y-115508580D01*
X117047322Y-115503181D01*
X117060037Y-115498216D01*
X117073056Y-115493684D01*
X117086377Y-115489586D01*
X117100000Y-115485921D01*
X117113925Y-115482688D01*
X117128150Y-115479887D01*
X117142675Y-115477518D01*
X117157500Y-115475581D01*
X117172623Y-115474075D01*
X117188044Y-115472999D01*
X117203762Y-115472354D01*
X117219651Y-115472141D01*
X117235382Y-115472357D01*
X117250939Y-115473011D01*
X117266210Y-115474100D01*
X117281196Y-115475626D01*
X117295896Y-115477588D01*
X117310309Y-115479988D01*
X117324436Y-115482825D01*
X117338276Y-115486100D01*
X117351828Y-115489812D01*
X117365092Y-115493964D01*
X117378069Y-115498554D01*
X117390757Y-115503583D01*
X117403156Y-115509052D01*
X117415265Y-115514961D01*
X117427086Y-115521309D01*
X117438616Y-115528099D01*
X117449876Y-115535279D01*
X117460796Y-115542800D01*
X117471377Y-115550663D01*
X117481619Y-115558869D01*
X117491524Y-115567418D01*
X117501093Y-115576311D01*
X117510324Y-115585548D01*
X117519221Y-115595131D01*
X117527782Y-115605060D01*
X117536010Y-115615335D01*
X117543903Y-115625958D01*
X117551465Y-115636929D01*
X117558694Y-115648249D01*
X117565591Y-115659919D01*
X117572158Y-115671938D01*
X117578395Y-115684309D01*
X117584277Y-115696983D01*
X117589780Y-115709915D01*
X117594904Y-115723103D01*
X117599647Y-115736547D01*
X117604012Y-115750249D01*
X117607996Y-115764207D01*
X117611602Y-115778422D01*
X117614827Y-115792894D01*
X117617674Y-115807622D01*
X117620140Y-115822607D01*
X117622228Y-115837849D01*
X117623935Y-115853348D01*
X117625263Y-115869103D01*
X117626212Y-115885115D01*
X117626781Y-115901384D01*
X117626971Y-115917909D01*
X117626967Y-115918147D01*
X117626550Y-115943975D01*
G37*
G36*
X118373255Y-115318548D02*
G01*
X118373255Y-115500000D01*
X118549229Y-115500000D01*
X118549229Y-115671926D01*
X118373255Y-115671926D01*
X118373255Y-116052212D01*
X118372942Y-116070015D01*
X118372005Y-116087349D01*
X118370443Y-116104214D01*
X118368258Y-116120609D01*
X118365448Y-116136534D01*
X118362016Y-116151988D01*
X118357960Y-116166972D01*
X118353282Y-116181484D01*
X118347981Y-116195524D01*
X118342059Y-116209093D01*
X118335515Y-116222189D01*
X118328349Y-116234813D01*
X118320563Y-116246963D01*
X118312156Y-116258640D01*
X118303130Y-116269844D01*
X118293483Y-116280574D01*
X118283194Y-116290739D01*
X118272242Y-116300252D01*
X118260628Y-116309111D01*
X118248351Y-116317315D01*
X118235413Y-116324866D01*
X118221814Y-116331762D01*
X118207555Y-116338002D01*
X118192637Y-116343587D01*
X118177061Y-116348517D01*
X118160826Y-116352790D01*
X118143935Y-116356407D01*
X118126386Y-116359367D01*
X118108182Y-116361670D01*
X118089323Y-116363315D01*
X118069810Y-116364302D01*
X118049643Y-116364632D01*
X118028212Y-116364286D01*
X118007320Y-116363248D01*
X117986969Y-116361517D01*
X117967163Y-116359095D01*
X117947903Y-116355981D01*
X117938479Y-116354164D01*
X117929193Y-116352175D01*
X117920045Y-116350012D01*
X117911036Y-116347676D01*
X117902165Y-116345168D01*
X117893433Y-116342486D01*
X117876422Y-116336873D01*
X117860039Y-116330933D01*
X117844287Y-116324675D01*
X117829168Y-116318108D01*
X117814686Y-116311239D01*
X117800843Y-116304077D01*
X117787641Y-116296631D01*
X117775085Y-116288908D01*
X117775324Y-116288907D01*
X117858191Y-116130316D01*
X117865625Y-116134335D01*
X117873285Y-116138174D01*
X117881175Y-116141836D01*
X117889295Y-116145318D01*
X117897651Y-116148622D01*
X117906243Y-116151748D01*
X117915076Y-116154694D01*
X117924151Y-116157463D01*
X117933461Y-116159974D01*
X117942997Y-116162151D01*
X117952761Y-116163992D01*
X117962757Y-116165499D01*
X117972988Y-116166671D01*
X117983456Y-116167508D01*
X117994163Y-116168011D01*
X118005114Y-116168178D01*
X118012754Y-116168072D01*
X118020136Y-116167754D01*
X118027260Y-116167225D01*
X118034124Y-116166485D01*
X118040727Y-116165534D01*
X118047068Y-116164373D01*
X118053146Y-116163002D01*
X118058960Y-116161421D01*
X118064508Y-116159631D01*
X118069791Y-116157632D01*
X118074806Y-116155425D01*
X118079554Y-116153009D01*
X118084031Y-116150385D01*
X118088239Y-116147554D01*
X118092175Y-116144515D01*
X118095839Y-116141270D01*
X118099257Y-116137785D01*
X118102458Y-116134025D01*
X118105440Y-116129990D01*
X118108203Y-116125680D01*
X118110747Y-116121094D01*
X118113072Y-116116231D01*
X118115177Y-116111090D01*
X118117062Y-116105670D01*
X118118727Y-116099972D01*
X118120171Y-116093994D01*
X118121393Y-116087735D01*
X118122394Y-116081196D01*
X118123174Y-116074374D01*
X118123731Y-116067270D01*
X118124065Y-116059883D01*
X118124177Y-116052211D01*
X118124177Y-115671926D01*
X117878669Y-115671926D01*
X117854142Y-115500000D01*
X118123938Y-115500000D01*
X118123938Y-115288545D01*
X118373255Y-115318548D01*
G37*
G36*
X119000000Y-116089359D02*
G01*
X119003309Y-116094516D01*
X119006719Y-116099539D01*
X119010228Y-116104427D01*
X119013837Y-116109180D01*
X119017545Y-116113797D01*
X119021352Y-116118279D01*
X119025257Y-116122625D01*
X119029260Y-116126834D01*
X119033360Y-116130907D01*
X119037558Y-116134843D01*
X119041853Y-116138641D01*
X119046245Y-116142301D01*
X119050732Y-116145824D01*
X119055316Y-116149207D01*
X119059995Y-116152452D01*
X119064770Y-116155558D01*
X119069584Y-116158541D01*
X119074385Y-116161329D01*
X119079176Y-116163923D01*
X119083961Y-116166322D01*
X119088743Y-116168527D01*
X119093526Y-116170539D01*
X119098313Y-116172357D01*
X119103108Y-116173983D01*
X119107914Y-116175416D01*
X119112734Y-116176657D01*
X119117573Y-116177706D01*
X119122433Y-116178563D01*
X119127319Y-116179229D01*
X119132233Y-116179705D01*
X119137179Y-116179990D01*
X119142160Y-116180085D01*
X119147094Y-116179996D01*
X119151893Y-116179728D01*
X119156558Y-116179281D01*
X119161087Y-116178656D01*
X119165482Y-116177852D01*
X119169740Y-116176870D01*
X119173863Y-116175709D01*
X119177849Y-116174370D01*
X119181699Y-116172852D01*
X119185411Y-116171155D01*
X119188986Y-116169280D01*
X119192423Y-116167226D01*
X119195723Y-116164994D01*
X119198883Y-116162583D01*
X119201905Y-116159993D01*
X119204788Y-116157225D01*
X119207511Y-116154220D01*
X119210057Y-116150918D01*
X119212424Y-116147321D01*
X119214614Y-116143429D01*
X119216627Y-116139240D01*
X119218463Y-116134756D01*
X119220122Y-116129975D01*
X119221605Y-116124899D01*
X119222912Y-116119528D01*
X119224044Y-116113860D01*
X119225001Y-116107897D01*
X119225783Y-116101638D01*
X119226391Y-116095083D01*
X119226825Y-116088232D01*
X119227084Y-116081085D01*
X119227171Y-116073643D01*
X119227171Y-115500000D01*
X119227647Y-115500000D01*
X119476964Y-115500000D01*
X119476964Y-116104361D01*
X119476732Y-116119082D01*
X119476037Y-116133417D01*
X119474879Y-116147369D01*
X119473258Y-116160938D01*
X119471173Y-116174125D01*
X119468626Y-116186930D01*
X119465615Y-116199355D01*
X119462140Y-116211399D01*
X119458203Y-116223063D01*
X119453802Y-116234349D01*
X119448938Y-116245256D01*
X119443611Y-116255787D01*
X119437821Y-116265940D01*
X119431567Y-116275718D01*
X119424851Y-116285120D01*
X119417670Y-116294147D01*
X119410016Y-116302711D01*
X119401876Y-116310723D01*
X119393251Y-116318182D01*
X119384139Y-116325088D01*
X119374543Y-116331442D01*
X119364461Y-116337244D01*
X119353893Y-116342493D01*
X119342840Y-116347189D01*
X119331301Y-116351333D01*
X119319276Y-116354925D01*
X119306767Y-116357964D01*
X119293771Y-116360450D01*
X119280290Y-116362384D01*
X119266324Y-116363765D01*
X119251871Y-116364594D01*
X119236934Y-116364870D01*
X119227493Y-116364745D01*
X119218103Y-116364369D01*
X119208762Y-116363743D01*
X119199470Y-116362869D01*
X119190227Y-116361745D01*
X119181032Y-116360375D01*
X119171886Y-116358757D01*
X119162787Y-116356893D01*
X119153736Y-116354783D01*
X119144732Y-116352429D01*
X119135775Y-116349830D01*
X119126864Y-116346988D01*
X119117999Y-116343904D01*
X119109180Y-116340577D01*
X119100406Y-116337008D01*
X119091677Y-116333199D01*
X119083077Y-116329151D01*
X119074689Y-116324862D01*
X119066513Y-116320335D01*
X119058548Y-116315571D01*
X119050796Y-116310569D01*
X119043256Y-116305330D01*
X119035929Y-116299856D01*
X119028813Y-116294147D01*
X119021909Y-116288203D01*
X119015217Y-116282026D01*
X119008738Y-116275615D01*
X119002470Y-116268973D01*
X118996415Y-116262098D01*
X118990571Y-116254993D01*
X118984940Y-116247658D01*
X118979521Y-116240093D01*
X118968567Y-116337962D01*
X118750683Y-116337962D01*
X118750683Y-115500000D01*
X119000000Y-115500000D01*
X119000000Y-116089359D01*
G37*
G36*
X120423748Y-116337962D02*
G01*
X120202769Y-116337962D01*
X120193243Y-116262238D01*
X120183518Y-116274653D01*
X120173363Y-116286270D01*
X120162776Y-116297087D01*
X120151758Y-116307106D01*
X120140307Y-116316325D01*
X120128422Y-116324744D01*
X120116104Y-116332364D01*
X120103352Y-116339182D01*
X120090163Y-116345200D01*
X120076539Y-116350416D01*
X120062478Y-116354831D01*
X120047980Y-116358444D01*
X120033044Y-116361255D01*
X120017668Y-116363263D01*
X120001853Y-116364468D01*
X119985598Y-116364870D01*
X119972115Y-116364641D01*
X119958898Y-116363956D01*
X119945949Y-116362814D01*
X119933267Y-116361216D01*
X119920851Y-116359164D01*
X119908702Y-116356657D01*
X119896818Y-116353698D01*
X119885200Y-116350285D01*
X119873846Y-116346420D01*
X119862758Y-116342104D01*
X119851933Y-116337337D01*
X119841373Y-116332120D01*
X119831077Y-116326454D01*
X119821044Y-116320340D01*
X119811274Y-116313777D01*
X119801766Y-116306767D01*
X119792532Y-116299364D01*
X119783584Y-116291620D01*
X119774920Y-116283536D01*
X119766542Y-116275112D01*
X119758451Y-116266347D01*
X119750645Y-116257241D01*
X119743126Y-116247795D01*
X119735895Y-116238009D01*
X119728951Y-116227882D01*
X119722294Y-116217415D01*
X119715926Y-116206607D01*
X119709846Y-116195459D01*
X119704055Y-116183970D01*
X119698553Y-116172141D01*
X119693341Y-116159972D01*
X119688418Y-116147462D01*
X119683789Y-116134673D01*
X119679456Y-116121666D01*
X119675419Y-116108442D01*
X119671679Y-116095000D01*
X119668237Y-116081340D01*
X119665091Y-116067463D01*
X119662244Y-116053368D01*
X119659695Y-116039055D01*
X119657445Y-116024525D01*
X119655493Y-116009777D01*
X119652488Y-115979628D01*
X119650683Y-115948609D01*
X119650135Y-115919576D01*
X119907256Y-115919576D01*
X119907407Y-115936942D01*
X119907859Y-115953677D01*
X119908612Y-115969782D01*
X119909667Y-115985258D01*
X119911023Y-116000104D01*
X119912681Y-116014322D01*
X119914640Y-116027910D01*
X119916900Y-116040871D01*
X119919462Y-116053204D01*
X119922325Y-116064909D01*
X119925489Y-116075987D01*
X119928955Y-116086439D01*
X119932722Y-116096263D01*
X119936791Y-116105462D01*
X119941161Y-116114035D01*
X119945832Y-116121982D01*
X119950763Y-116129380D01*
X119955912Y-116136303D01*
X119961278Y-116142751D01*
X119966862Y-116148723D01*
X119972664Y-116154220D01*
X119978683Y-116159240D01*
X119984920Y-116163784D01*
X119991374Y-116167851D01*
X119998046Y-116171441D01*
X120004936Y-116174554D01*
X120012044Y-116177188D01*
X120019369Y-116179344D01*
X120026911Y-116181022D01*
X120034672Y-116182221D01*
X120042650Y-116182941D01*
X120050845Y-116183180D01*
X120055932Y-116183102D01*
X120060925Y-116182868D01*
X120065823Y-116182479D01*
X120070628Y-116181934D01*
X120075339Y-116181234D01*
X120079957Y-116180380D01*
X120084482Y-116179372D01*
X120088915Y-116178210D01*
X120093256Y-116176894D01*
X120097505Y-116175425D01*
X120101663Y-116173804D01*
X120105729Y-116172030D01*
X120109705Y-116170103D01*
X120113591Y-116168026D01*
X120117386Y-116165796D01*
X120121092Y-116163416D01*
X120124731Y-116160851D01*
X120128325Y-116158158D01*
X120131875Y-116155334D01*
X120135380Y-116152381D01*
X120138840Y-116149295D01*
X120142255Y-116146079D01*
X120145626Y-116142729D01*
X120148953Y-116139246D01*
X120152234Y-116135630D01*
X120155471Y-116131879D01*
X120158664Y-116127992D01*
X120161811Y-116123969D01*
X120164914Y-116119810D01*
X120167973Y-116115513D01*
X120170987Y-116111078D01*
X120173956Y-116106504D01*
X120173956Y-115752889D01*
X120170495Y-115747338D01*
X120166990Y-115741938D01*
X120163441Y-115736688D01*
X120159847Y-115731588D01*
X120156208Y-115726637D01*
X120152525Y-115721834D01*
X120148796Y-115717181D01*
X120145024Y-115712675D01*
X120141206Y-115708318D01*
X120137344Y-115704108D01*
X120133438Y-115700045D01*
X120129486Y-115696129D01*
X120125490Y-115692360D01*
X120121449Y-115688737D01*
X120117364Y-115685259D01*
X120113234Y-115681927D01*
X120109048Y-115678771D01*
X120104796Y-115675821D01*
X120100476Y-115673077D01*
X120096089Y-115670538D01*
X120091635Y-115668205D01*
X120087115Y-115666076D01*
X120082527Y-115664151D01*
X120077873Y-115662431D01*
X120073151Y-115660914D01*
X120068363Y-115659601D01*
X120063507Y-115658491D01*
X120058585Y-115657583D01*
X120053595Y-115656878D01*
X120048539Y-115656374D01*
X120043415Y-115656072D01*
X120038225Y-115655972D01*
X120033311Y-115656058D01*
X120028480Y-115656318D01*
X120023731Y-115656752D01*
X120019063Y-115657360D01*
X120014477Y-115658142D01*
X120009971Y-115659099D01*
X120005544Y-115660231D01*
X120001197Y-115661538D01*
X119996927Y-115663021D01*
X119992735Y-115664681D01*
X119988619Y-115666516D01*
X119984580Y-115668529D01*
X119980616Y-115670719D01*
X119976727Y-115673087D01*
X119972911Y-115675632D01*
X119969169Y-115678356D01*
X119965516Y-115681305D01*
X119961969Y-115684528D01*
X119958528Y-115688023D01*
X119955194Y-115691791D01*
X119951965Y-115695831D01*
X119948842Y-115700143D01*
X119945826Y-115704726D01*
X119942915Y-115709580D01*
X119940111Y-115714704D01*
X119937413Y-115720100D01*
X119934820Y-115725765D01*
X119932334Y-115731699D01*
X119929954Y-115737903D01*
X119927679Y-115744376D01*
X119925511Y-115751118D01*
X119923449Y-115758127D01*
X119919676Y-115773220D01*
X119916398Y-115789750D01*
X119913616Y-115807725D01*
X119911334Y-115827154D01*
X119909554Y-115848045D01*
X119908279Y-115870407D01*
X119907513Y-115894248D01*
X119907256Y-115919576D01*
X119650135Y-115919576D01*
X119650081Y-115916719D01*
X119650368Y-115891509D01*
X119651231Y-115866958D01*
X119652669Y-115843065D01*
X119654683Y-115819831D01*
X119657274Y-115797256D01*
X119660441Y-115775339D01*
X119664185Y-115754081D01*
X119668506Y-115733481D01*
X119673405Y-115713540D01*
X119678881Y-115694258D01*
X119684937Y-115675634D01*
X119691571Y-115657668D01*
X119698783Y-115640362D01*
X119706576Y-115623713D01*
X119714948Y-115607724D01*
X119723900Y-115592392D01*
X119733444Y-115577859D01*
X119743679Y-115564264D01*
X119754605Y-115551606D01*
X119766223Y-115539886D01*
X119778531Y-115529103D01*
X119791530Y-115519258D01*
X119805218Y-115510351D01*
X119819597Y-115502381D01*
X119834664Y-115495349D01*
X119850420Y-115489254D01*
X119866865Y-115484097D01*
X119883998Y-115479878D01*
X119901819Y-115476596D01*
X119920328Y-115474252D01*
X119939523Y-115472846D01*
X119959406Y-115472377D01*
X119967364Y-115472497D01*
X119975256Y-115472857D01*
X119983082Y-115473457D01*
X119990841Y-115474297D01*
X119998536Y-115475377D01*
X120006165Y-115476697D01*
X120013729Y-115478257D01*
X120021228Y-115480057D01*
X120028664Y-115482097D01*
X120036035Y-115484377D01*
X120043344Y-115486896D01*
X120050589Y-115489656D01*
X120057771Y-115492656D01*
X120064890Y-115495896D01*
X120071948Y-115499376D01*
X120078944Y-115503095D01*
X120085805Y-115507019D01*
X120092549Y-115511110D01*
X120099173Y-115515368D01*
X120105677Y-115519794D01*
X120112059Y-115524387D01*
X120118319Y-115529148D01*
X120124456Y-115534076D01*
X120130468Y-115539171D01*
X120136355Y-115544434D01*
X120142114Y-115549865D01*
X120147747Y-115555463D01*
X120153250Y-115561228D01*
X120158624Y-115567160D01*
X120163867Y-115573260D01*
X120168977Y-115579528D01*
X120173956Y-115585963D01*
X120174431Y-115585963D01*
X120174431Y-115140908D01*
X120423748Y-115166863D01*
X120423748Y-115752889D01*
X120423748Y-116337962D01*
G37*
G36*
X121214086Y-115318548D02*
G01*
X121214086Y-115500000D01*
X121390060Y-115500000D01*
X121390060Y-115671926D01*
X121214086Y-115671926D01*
X121214086Y-116052212D01*
X121213773Y-116070015D01*
X121212836Y-116087349D01*
X121211274Y-116104214D01*
X121209089Y-116120609D01*
X121206279Y-116136534D01*
X121202847Y-116151988D01*
X121198791Y-116166972D01*
X121194113Y-116181484D01*
X121188812Y-116195524D01*
X121182890Y-116209093D01*
X121176346Y-116222189D01*
X121169180Y-116234813D01*
X121161394Y-116246963D01*
X121152987Y-116258640D01*
X121143961Y-116269844D01*
X121134314Y-116280574D01*
X121124025Y-116290739D01*
X121113073Y-116300252D01*
X121101459Y-116309111D01*
X121089182Y-116317315D01*
X121076244Y-116324866D01*
X121062645Y-116331762D01*
X121048386Y-116338002D01*
X121033468Y-116343587D01*
X121017891Y-116348517D01*
X121001657Y-116352790D01*
X120984765Y-116356407D01*
X120967217Y-116359367D01*
X120949013Y-116361670D01*
X120930154Y-116363315D01*
X120910641Y-116364302D01*
X120890474Y-116364632D01*
X120869043Y-116364286D01*
X120848151Y-116363248D01*
X120827800Y-116361517D01*
X120807993Y-116359095D01*
X120788733Y-116355981D01*
X120779310Y-116354164D01*
X120770023Y-116352175D01*
X120760875Y-116350012D01*
X120751866Y-116347676D01*
X120742995Y-116345168D01*
X120734264Y-116342486D01*
X120717253Y-116336873D01*
X120700871Y-116330933D01*
X120685118Y-116324675D01*
X120670000Y-116318108D01*
X120655517Y-116311239D01*
X120641674Y-116304077D01*
X120628473Y-116296631D01*
X120615916Y-116288908D01*
X120616154Y-116288907D01*
X120699022Y-116130316D01*
X120706456Y-116134335D01*
X120714116Y-116138174D01*
X120722005Y-116141836D01*
X120730126Y-116145318D01*
X120738482Y-116148622D01*
X120747074Y-116151748D01*
X120755907Y-116154694D01*
X120764982Y-116157463D01*
X120774292Y-116159974D01*
X120783828Y-116162151D01*
X120793592Y-116163992D01*
X120803588Y-116165499D01*
X120813819Y-116166671D01*
X120824287Y-116167508D01*
X120834994Y-116168011D01*
X120845945Y-116168178D01*
X120853585Y-116168072D01*
X120860967Y-116167754D01*
X120868091Y-116167225D01*
X120874955Y-116166485D01*
X120881558Y-116165534D01*
X120887899Y-116164373D01*
X120893976Y-116163002D01*
X120899790Y-116161421D01*
X120905339Y-116159631D01*
X120910622Y-116157632D01*
X120915637Y-116155425D01*
X120920384Y-116153009D01*
X120924862Y-116150385D01*
X120929070Y-116147554D01*
X120933006Y-116144515D01*
X120936670Y-116141270D01*
X120940088Y-116137785D01*
X120943288Y-116134025D01*
X120946270Y-116129990D01*
X120949034Y-116125680D01*
X120951578Y-116121094D01*
X120953903Y-116116231D01*
X120956008Y-116111090D01*
X120957893Y-116105670D01*
X120959557Y-116099972D01*
X120961001Y-116093994D01*
X120962224Y-116087735D01*
X120963225Y-116081196D01*
X120964004Y-116074374D01*
X120964561Y-116067270D01*
X120964895Y-116059883D01*
X120965007Y-116052211D01*
X120965007Y-115671926D01*
X120719500Y-115671926D01*
X120694973Y-115500000D01*
X120964769Y-115500000D01*
X120964769Y-115288545D01*
X121214086Y-115318548D01*
G37*
G36*
X122363943Y-115949927D02*
G01*
X122362370Y-115982047D01*
X122359746Y-116013084D01*
X122358041Y-116028198D01*
X122356074Y-116043044D01*
X122353844Y-116057622D01*
X122351352Y-116071933D01*
X122348598Y-116085977D01*
X122345582Y-116099755D01*
X122342303Y-116113268D01*
X122338762Y-116126517D01*
X122334958Y-116139502D01*
X122330892Y-116152224D01*
X122326601Y-116164640D01*
X122322031Y-116176703D01*
X122317183Y-116188416D01*
X122312058Y-116199779D01*
X122306657Y-116210791D01*
X122300981Y-116221453D01*
X122295030Y-116231766D01*
X122288804Y-116241730D01*
X122282305Y-116251344D01*
X122275533Y-116260611D01*
X122268489Y-116269529D01*
X122261174Y-116278100D01*
X122253588Y-116286323D01*
X122245732Y-116294199D01*
X122237607Y-116301728D01*
X122229213Y-116308911D01*
X122220546Y-116315700D01*
X122211599Y-116322049D01*
X122202372Y-116327958D01*
X122192866Y-116333426D01*
X122183079Y-116338456D01*
X122173011Y-116343046D01*
X122162662Y-116347197D01*
X122152031Y-116350910D01*
X122141119Y-116354185D01*
X122129924Y-116357022D01*
X122118447Y-116359421D01*
X122106687Y-116361384D01*
X122094644Y-116362909D01*
X122082317Y-116363999D01*
X122069706Y-116364652D01*
X122056811Y-116364870D01*
X122046637Y-116364733D01*
X122036653Y-116364323D01*
X122026859Y-116363639D01*
X122017256Y-116362682D01*
X122007844Y-116361452D01*
X121998624Y-116359947D01*
X121989596Y-116358170D01*
X121980760Y-116356119D01*
X121972116Y-116353794D01*
X121963665Y-116351196D01*
X121955408Y-116348325D01*
X121947344Y-116345180D01*
X121939474Y-116341762D01*
X121931798Y-116338070D01*
X121924317Y-116334104D01*
X121917031Y-116329865D01*
X121909890Y-116325434D01*
X121902933Y-116320892D01*
X121896160Y-116316238D01*
X121889569Y-116311474D01*
X121883161Y-116306600D01*
X121876936Y-116301616D01*
X121870893Y-116296522D01*
X121865031Y-116291319D01*
X121859351Y-116286007D01*
X121853852Y-116280587D01*
X121848533Y-116275059D01*
X121843395Y-116269423D01*
X121838437Y-116263679D01*
X121833658Y-116257829D01*
X121829059Y-116251871D01*
X121824639Y-116245807D01*
X121820534Y-116250964D01*
X121816345Y-116255986D01*
X121812070Y-116260873D01*
X121807710Y-116265624D01*
X121803263Y-116270238D01*
X121798729Y-116274714D01*
X121794107Y-116279053D01*
X121789396Y-116283253D01*
X121784597Y-116287313D01*
X121779707Y-116291233D01*
X121774726Y-116295012D01*
X121769654Y-116298649D01*
X121764490Y-116302144D01*
X121759233Y-116305496D01*
X121753883Y-116308704D01*
X121748439Y-116311768D01*
X121737544Y-116317561D01*
X121726650Y-116322971D01*
X121715756Y-116327996D01*
X121704862Y-116332634D01*
X121693967Y-116336880D01*
X121683073Y-116340734D01*
X121672179Y-116344191D01*
X121661285Y-116347249D01*
X121650591Y-116349973D01*
X121640300Y-116352432D01*
X121630410Y-116354628D01*
X121620922Y-116356565D01*
X121611837Y-116358246D01*
X121603153Y-116359672D01*
X121594870Y-116360847D01*
X121586990Y-116361774D01*
X121535793Y-116197706D01*
X121539217Y-116196755D01*
X121542524Y-116195686D01*
X121545714Y-116194500D01*
X121548786Y-116193197D01*
X121551741Y-116191776D01*
X121554579Y-116190239D01*
X121557300Y-116188584D01*
X121559903Y-116186812D01*
X121562390Y-116184923D01*
X121564759Y-116182916D01*
X121567011Y-116180793D01*
X121569146Y-116178552D01*
X121571163Y-116176194D01*
X121573064Y-116173719D01*
X121574847Y-116171126D01*
X121576513Y-116168417D01*
X121578078Y-116165609D01*
X121579559Y-116162724D01*
X121580955Y-116159759D01*
X121582265Y-116156715D01*
X121583488Y-116153592D01*
X121584624Y-116150388D01*
X121585673Y-116147105D01*
X121586632Y-116143741D01*
X121587503Y-116140296D01*
X121588283Y-116136770D01*
X121588973Y-116133162D01*
X121589572Y-116129472D01*
X121590078Y-116125700D01*
X121590491Y-116121845D01*
X121590812Y-116117907D01*
X121591037Y-116113886D01*
X121591037Y-115723123D01*
X121840353Y-115723123D01*
X121840353Y-116084597D01*
X121843732Y-116090147D01*
X121847173Y-116095547D01*
X121850674Y-116100797D01*
X121854235Y-116105898D01*
X121857856Y-116110849D01*
X121861538Y-116115651D01*
X121865278Y-116120305D01*
X121869077Y-116124810D01*
X121872935Y-116129167D01*
X121876851Y-116133377D01*
X121880825Y-116137440D01*
X121884857Y-116141356D01*
X121888946Y-116145125D01*
X121893091Y-116148749D01*
X121897293Y-116152226D01*
X121901552Y-116155558D01*
X121905869Y-116158714D01*
X121910247Y-116161664D01*
X121914685Y-116164408D01*
X121919184Y-116166947D01*
X121923743Y-116169281D01*
X121928362Y-116171409D01*
X121933040Y-116173334D01*
X121937776Y-116175054D01*
X121942572Y-116176571D01*
X121947426Y-116177884D01*
X121952337Y-116178995D01*
X121957306Y-116179902D01*
X121962333Y-116180608D01*
X121967416Y-116181111D01*
X121972556Y-116181413D01*
X121977752Y-116181513D01*
X121982451Y-116181424D01*
X121987084Y-116181156D01*
X121991649Y-116180710D01*
X121996147Y-116180085D01*
X122000578Y-116179281D01*
X122004943Y-116178299D01*
X122009240Y-116177138D01*
X122013471Y-116175798D01*
X122017634Y-116174280D01*
X122021731Y-116172584D01*
X122025760Y-116170709D01*
X122029723Y-116168655D01*
X122033618Y-116166422D01*
X122037447Y-116164011D01*
X122041209Y-116161422D01*
X122044903Y-116158653D01*
X122048514Y-116155662D01*
X122052025Y-116152403D01*
X122055435Y-116148875D01*
X122058744Y-116145080D01*
X122061953Y-116141017D01*
X122065062Y-116136686D01*
X122068070Y-116132088D01*
X122070978Y-116127221D01*
X122073785Y-116122086D01*
X122076492Y-116116684D01*
X122079099Y-116111014D01*
X122081605Y-116105075D01*
X122084010Y-116098869D01*
X122086315Y-116092395D01*
X122088520Y-116085653D01*
X122090624Y-116078643D01*
X122094553Y-116063631D01*
X122097950Y-116047170D01*
X122100816Y-116029264D01*
X122103155Y-116009915D01*
X122104969Y-115989126D01*
X122106262Y-115966900D01*
X122107035Y-115943239D01*
X122107293Y-115918147D01*
X122107139Y-115900821D01*
X122106678Y-115884115D01*
X122105910Y-115868030D01*
X122104833Y-115852566D01*
X122103448Y-115837725D01*
X122101755Y-115823507D01*
X122099752Y-115809912D01*
X122097440Y-115796942D01*
X122094818Y-115784597D01*
X122091886Y-115772877D01*
X122088644Y-115761784D01*
X122085091Y-115751318D01*
X122081227Y-115741481D01*
X122077051Y-115732271D01*
X122072563Y-115723691D01*
X122067764Y-115715741D01*
X122062752Y-115708343D01*
X122057540Y-115701421D01*
X122052127Y-115694973D01*
X122046515Y-115689000D01*
X122040703Y-115683504D01*
X122034692Y-115678483D01*
X122028482Y-115673939D01*
X122022073Y-115669872D01*
X122015467Y-115666282D01*
X122008663Y-115663170D01*
X122001661Y-115660535D01*
X121994462Y-115658379D01*
X121987067Y-115656701D01*
X121979475Y-115655502D01*
X121971687Y-115654783D01*
X121963703Y-115654543D01*
X121963464Y-115654543D01*
X121958678Y-115654613D01*
X121953965Y-115654822D01*
X121949324Y-115655172D01*
X121944756Y-115655663D01*
X121940261Y-115656294D01*
X121935838Y-115657067D01*
X121931487Y-115657981D01*
X121927209Y-115659037D01*
X121923004Y-115660236D01*
X121918871Y-115661577D01*
X121914811Y-115663062D01*
X121910823Y-115664689D01*
X121906908Y-115666460D01*
X121903066Y-115668376D01*
X121899296Y-115670436D01*
X121895598Y-115672640D01*
X121891951Y-115674970D01*
X121888331Y-115677407D01*
X121884739Y-115679952D01*
X121881173Y-115682604D01*
X121877634Y-115685366D01*
X121874121Y-115688237D01*
X121870634Y-115691218D01*
X121867172Y-115694310D01*
X121863736Y-115697513D01*
X121860324Y-115700829D01*
X121856936Y-115704258D01*
X121853573Y-115707801D01*
X121850233Y-115711458D01*
X121846917Y-115715230D01*
X121843624Y-115719118D01*
X121840353Y-115723123D01*
X121591037Y-115723123D01*
X121591037Y-115500000D01*
X121812018Y-115500000D01*
X121812018Y-115500238D01*
X121824639Y-115550006D01*
X121829442Y-115545343D01*
X121834384Y-115540820D01*
X121839467Y-115536437D01*
X121844690Y-115532195D01*
X121850054Y-115528094D01*
X121855559Y-115524134D01*
X121861206Y-115520315D01*
X121866995Y-115516639D01*
X121872927Y-115513105D01*
X121879001Y-115509713D01*
X121885218Y-115506465D01*
X121891578Y-115503360D01*
X121898082Y-115500398D01*
X121904730Y-115497581D01*
X121911523Y-115494908D01*
X121918460Y-115492380D01*
X121932480Y-115487771D01*
X121946499Y-115483767D01*
X121960519Y-115480371D01*
X121967528Y-115478902D01*
X121974538Y-115477587D01*
X121981548Y-115476424D01*
X121988558Y-115475416D01*
X121995568Y-115474562D01*
X122002578Y-115473862D01*
X122009587Y-115473317D01*
X122016597Y-115472928D01*
X122023607Y-115472694D01*
X122030617Y-115472616D01*
X122043451Y-115472839D01*
X122056056Y-115473509D01*
X122068434Y-115474625D01*
X122080586Y-115476188D01*
X122092511Y-115478197D01*
X122104211Y-115480652D01*
X122115687Y-115483555D01*
X122126938Y-115486903D01*
X122137967Y-115490698D01*
X122148772Y-115494940D01*
X122159356Y-115499628D01*
X122169719Y-115504763D01*
X122179861Y-115510344D01*
X122189784Y-115516371D01*
X122199487Y-115522845D01*
X122208972Y-115529766D01*
X122218212Y-115537077D01*
X122227178Y-115544723D01*
X122235872Y-115552705D01*
X122244293Y-115561023D01*
X122252442Y-115569677D01*
X122260320Y-115578668D01*
X122267925Y-115587996D01*
X122275260Y-115597661D01*
X122282325Y-115607664D01*
X122289119Y-115618004D01*
X122295643Y-115628684D01*
X122301897Y-115639701D01*
X122307882Y-115651058D01*
X122313598Y-115662754D01*
X122319045Y-115674790D01*
X122324224Y-115687166D01*
X122329111Y-115699743D01*
X122333679Y-115712481D01*
X122337930Y-115725396D01*
X122341864Y-115738505D01*
X122345482Y-115751822D01*
X122348783Y-115765365D01*
X122351768Y-115779150D01*
X122354437Y-115793192D01*
X122356791Y-115807507D01*
X122358830Y-115822112D01*
X122360554Y-115837022D01*
X122361964Y-115852254D01*
X122363060Y-115867824D01*
X122363842Y-115883747D01*
X122364468Y-115916719D01*
X122364445Y-115918147D01*
X122363943Y-115949927D01*
G37*
G36*
X122644740Y-115472853D02*
G01*
X122651582Y-115472960D01*
X122658357Y-115473278D01*
X122665063Y-115473811D01*
X122671700Y-115474558D01*
X122678267Y-115475519D01*
X122684764Y-115476696D01*
X122691190Y-115478089D01*
X122697544Y-115479700D01*
X122703825Y-115481528D01*
X122710033Y-115483574D01*
X122716168Y-115485839D01*
X122722227Y-115488324D01*
X122728211Y-115491030D01*
X122734119Y-115493957D01*
X122739951Y-115497105D01*
X122745705Y-115500476D01*
X122751389Y-115504020D01*
X122757012Y-115507688D01*
X122762573Y-115511479D01*
X122768074Y-115515396D01*
X122773512Y-115519438D01*
X122778890Y-115523607D01*
X122784206Y-115527902D01*
X122789460Y-115532325D01*
X122794654Y-115536877D01*
X122799785Y-115541557D01*
X122804856Y-115546367D01*
X122809865Y-115551308D01*
X122814813Y-115556380D01*
X122819699Y-115561584D01*
X122824524Y-115566920D01*
X122829287Y-115572390D01*
X122831107Y-115566066D01*
X122833082Y-115559956D01*
X122835213Y-115554058D01*
X122837499Y-115548373D01*
X122839940Y-115542901D01*
X122842535Y-115537643D01*
X122845285Y-115532600D01*
X122848188Y-115527771D01*
X122851245Y-115523157D01*
X122854455Y-115518758D01*
X122857818Y-115514575D01*
X122861334Y-115510607D01*
X122865001Y-115506856D01*
X122868820Y-115503322D01*
X122872791Y-115500004D01*
X122876912Y-115496904D01*
X122881162Y-115494005D01*
X122885519Y-115491290D01*
X122889982Y-115488760D01*
X122894552Y-115486415D01*
X122899230Y-115484256D01*
X122904015Y-115482283D01*
X122908908Y-115480496D01*
X122913911Y-115478896D01*
X122919021Y-115477482D01*
X122924241Y-115476256D01*
X122929571Y-115475218D01*
X122935010Y-115474368D01*
X122940560Y-115473706D01*
X122946220Y-115473232D01*
X122951992Y-115472948D01*
X122957874Y-115472853D01*
X122964733Y-115472962D01*
X122971471Y-115473288D01*
X122978086Y-115473831D01*
X122984582Y-115474591D01*
X122990957Y-115475567D01*
X122997212Y-115476759D01*
X123003350Y-115478166D01*
X123009369Y-115479789D01*
X123015271Y-115481626D01*
X123021057Y-115483678D01*
X123026726Y-115485945D01*
X123032281Y-115488425D01*
X123037721Y-115491118D01*
X123043048Y-115494025D01*
X123048261Y-115497144D01*
X123053362Y-115500476D01*
X123058405Y-115504017D01*
X123063441Y-115507765D01*
X123068472Y-115511718D01*
X123073495Y-115515876D01*
X123078512Y-115520240D01*
X123083521Y-115524808D01*
X123088523Y-115529581D01*
X123093516Y-115534558D01*
X123098502Y-115539738D01*
X123103478Y-115545122D01*
X123108446Y-115550709D01*
X123113404Y-115556499D01*
X123118352Y-115562491D01*
X123123290Y-115568685D01*
X123128218Y-115575080D01*
X123133135Y-115581677D01*
X123149804Y-115500476D01*
X123332922Y-115500476D01*
X123332922Y-116338438D01*
X123115991Y-116338438D01*
X123115991Y-115720504D01*
X123112840Y-115716611D01*
X123109728Y-115712879D01*
X123106653Y-115709309D01*
X123103616Y-115705900D01*
X123100614Y-115702651D01*
X123097648Y-115699562D01*
X123094717Y-115696633D01*
X123091821Y-115693863D01*
X123088957Y-115691253D01*
X123086127Y-115688801D01*
X123083329Y-115686507D01*
X123080562Y-115684372D01*
X123077825Y-115682394D01*
X123075119Y-115680574D01*
X123072442Y-115678910D01*
X123069794Y-115677403D01*
X123067165Y-115676019D01*
X123064548Y-115674724D01*
X123061941Y-115673519D01*
X123059346Y-115672402D01*
X123056762Y-115671376D01*
X123054189Y-115670438D01*
X123051628Y-115669590D01*
X123049077Y-115668831D01*
X123046538Y-115668161D01*
X123044010Y-115667580D01*
X123041493Y-115667089D01*
X123038987Y-115666687D01*
X123036492Y-115666375D01*
X123034008Y-115666152D01*
X123031536Y-115666018D01*
X123029075Y-115665973D01*
X123025972Y-115666043D01*
X123024471Y-115666130D01*
X123023003Y-115666252D01*
X123021569Y-115666410D01*
X123020168Y-115666602D01*
X123018800Y-115666830D01*
X123017466Y-115667093D01*
X123016166Y-115667391D01*
X123014899Y-115667724D01*
X123013666Y-115668093D01*
X123012466Y-115668497D01*
X123011299Y-115668936D01*
X123010166Y-115669411D01*
X123009067Y-115669922D01*
X123008001Y-115670468D01*
X123006968Y-115671049D01*
X123005969Y-115671666D01*
X123005004Y-115672319D01*
X123004072Y-115673007D01*
X123003173Y-115673732D01*
X123002308Y-115674492D01*
X123001477Y-115675288D01*
X123000679Y-115676119D01*
X122999914Y-115676987D01*
X122999183Y-115677891D01*
X122998485Y-115678830D01*
X122997821Y-115679806D01*
X122997190Y-115680818D01*
X122996593Y-115681866D01*
X122996030Y-115682950D01*
X122995499Y-115684071D01*
X122994503Y-115686448D01*
X122993569Y-115689027D01*
X122992696Y-115691808D01*
X122991886Y-115694790D01*
X122991139Y-115697975D01*
X122990455Y-115701362D01*
X122989278Y-115708746D01*
X122988358Y-115716945D01*
X122987697Y-115725962D01*
X122987298Y-115735799D01*
X122987165Y-115746459D01*
X122987165Y-116338200D01*
X122811905Y-116338200D01*
X122811905Y-115720266D01*
X122808754Y-115716373D01*
X122805642Y-115712641D01*
X122802567Y-115709071D01*
X122799530Y-115705662D01*
X122796529Y-115702413D01*
X122793563Y-115699324D01*
X122790632Y-115696395D01*
X122787735Y-115693625D01*
X122784872Y-115691015D01*
X122782042Y-115688563D01*
X122779243Y-115686270D01*
X122776476Y-115684134D01*
X122773740Y-115682156D01*
X122771034Y-115680336D01*
X122768357Y-115678672D01*
X122765709Y-115677165D01*
X122763080Y-115675781D01*
X122760462Y-115674486D01*
X122757856Y-115673281D01*
X122755261Y-115672164D01*
X122752677Y-115671138D01*
X122750104Y-115670200D01*
X122747542Y-115669352D01*
X122744992Y-115668593D01*
X122742452Y-115667923D01*
X122739924Y-115667342D01*
X122737407Y-115666851D01*
X122734901Y-115666449D01*
X122732407Y-115666137D01*
X122729923Y-115665914D01*
X122727450Y-115665780D01*
X122724989Y-115665735D01*
X122721886Y-115665805D01*
X122720385Y-115665892D01*
X122718917Y-115666015D01*
X122717483Y-115666172D01*
X122716082Y-115666364D01*
X122714715Y-115666592D01*
X122713381Y-115666855D01*
X122712080Y-115667153D01*
X122710814Y-115667486D01*
X122709580Y-115667855D01*
X122708380Y-115668259D01*
X122707214Y-115668698D01*
X122706081Y-115669173D01*
X122704981Y-115669684D01*
X122703915Y-115670230D01*
X122702883Y-115670811D01*
X122701884Y-115671428D01*
X122700918Y-115672081D01*
X122699986Y-115672769D01*
X122699088Y-115673494D01*
X122698223Y-115674254D01*
X122697391Y-115675050D01*
X122696593Y-115675881D01*
X122695828Y-115676749D01*
X122695097Y-115677653D01*
X122694400Y-115678592D01*
X122693735Y-115679568D01*
X122693105Y-115680580D01*
X122692508Y-115681628D01*
X122691944Y-115682712D01*
X122691414Y-115683833D01*
X122690417Y-115686210D01*
X122689483Y-115688789D01*
X122688611Y-115691570D01*
X122687801Y-115694552D01*
X122687054Y-115697737D01*
X122686370Y-115701124D01*
X122685193Y-115708508D01*
X122684272Y-115716707D01*
X122683611Y-115725724D01*
X122683213Y-115735561D01*
X122683079Y-115746221D01*
X122683079Y-116337962D01*
X122469243Y-116337962D01*
X122469243Y-115717646D01*
X122469413Y-115701760D01*
X122469923Y-115686427D01*
X122470771Y-115671648D01*
X122471959Y-115657423D01*
X122473484Y-115643754D01*
X122475345Y-115630640D01*
X122477544Y-115618084D01*
X122480077Y-115606085D01*
X122482946Y-115594644D01*
X122486148Y-115583761D01*
X122489685Y-115573439D01*
X122493554Y-115563676D01*
X122497755Y-115554474D01*
X122502287Y-115545834D01*
X122507150Y-115537757D01*
X122512343Y-115530242D01*
X122517882Y-115523193D01*
X122523784Y-115516601D01*
X122530049Y-115510467D01*
X122536677Y-115504788D01*
X122543667Y-115499567D01*
X122551020Y-115494801D01*
X122558736Y-115490490D01*
X122566814Y-115486635D01*
X122575256Y-115483235D01*
X122584060Y-115480289D01*
X122593227Y-115477797D01*
X122602756Y-115475760D01*
X122612649Y-115474175D01*
X122622904Y-115473044D01*
X122633522Y-115472365D01*
X122644503Y-115472139D01*
X122644740Y-115472853D01*
G37*
G36*
X124111311Y-116046922D02*
G01*
X124110474Y-116068203D01*
X124109079Y-116088915D01*
X124107126Y-116109064D01*
X124104614Y-116128654D01*
X124101545Y-116147692D01*
X124097917Y-116166183D01*
X124093731Y-116184133D01*
X124091395Y-116192859D01*
X124088853Y-116201356D01*
X124086103Y-116209624D01*
X124083146Y-116217664D01*
X124079980Y-116225474D01*
X124076607Y-116233056D01*
X124073025Y-116240409D01*
X124069234Y-116247534D01*
X124065234Y-116254429D01*
X124061024Y-116261096D01*
X124056604Y-116267533D01*
X124051974Y-116273742D01*
X124047133Y-116279722D01*
X124042081Y-116285474D01*
X124036818Y-116290996D01*
X124031343Y-116296290D01*
X124025619Y-116301307D01*
X124019611Y-116306001D01*
X124013317Y-116310371D01*
X124006738Y-116314417D01*
X123999872Y-116318140D01*
X123992720Y-116321538D01*
X123985282Y-116324614D01*
X123977556Y-116327365D01*
X123969543Y-116329793D01*
X123961242Y-116331897D01*
X123952653Y-116333677D01*
X123943776Y-116335134D01*
X123934610Y-116336267D01*
X123925154Y-116337076D01*
X123915409Y-116337562D01*
X123905375Y-116337723D01*
X123896194Y-116337576D01*
X123887224Y-116337132D01*
X123878465Y-116336392D01*
X123869916Y-116335357D01*
X123861577Y-116334026D01*
X123853445Y-116332399D01*
X123845522Y-116330476D01*
X123837806Y-116328258D01*
X123830297Y-116325744D01*
X123822993Y-116322934D01*
X123815895Y-116319828D01*
X123809001Y-116316426D01*
X123802310Y-116312729D01*
X123795823Y-116308736D01*
X123789538Y-116304447D01*
X123783455Y-116299862D01*
X123777614Y-116295079D01*
X123771969Y-116290194D01*
X123766521Y-116285208D01*
X123761268Y-116280120D01*
X123756213Y-116274928D01*
X123751354Y-116269632D01*
X123746693Y-116264231D01*
X123742230Y-116258726D01*
X123737964Y-116253114D01*
X123733897Y-116247395D01*
X123730029Y-116241569D01*
X123726361Y-116235635D01*
X123722891Y-116229592D01*
X123719622Y-116223439D01*
X123716553Y-116217177D01*
X123713684Y-116210803D01*
X123708207Y-116210803D01*
X123706455Y-116223628D01*
X123704412Y-116236387D01*
X123702079Y-116249078D01*
X123699456Y-116261702D01*
X123696543Y-116274260D01*
X123693339Y-116286750D01*
X123689845Y-116299174D01*
X123686062Y-116311530D01*
X123683994Y-116317624D01*
X123681808Y-116323585D01*
X123679505Y-116329413D01*
X123677084Y-116335108D01*
X123674544Y-116340670D01*
X123671885Y-116346100D01*
X123669106Y-116351399D01*
X123666208Y-116356565D01*
X123663190Y-116361601D01*
X123660052Y-116366506D01*
X123656793Y-116371280D01*
X123653413Y-116375924D01*
X123649911Y-116380438D01*
X123646288Y-116384824D01*
X123642542Y-116389080D01*
X123638675Y-116393207D01*
X123634665Y-116397141D01*
X123630493Y-116400820D01*
X123626159Y-116404242D01*
X123621664Y-116407409D01*
X123617006Y-116410320D01*
X123612187Y-116412976D01*
X123607206Y-116415378D01*
X123602063Y-116417525D01*
X123596758Y-116419419D01*
X123591292Y-116421059D01*
X123585663Y-116422445D01*
X123579873Y-116423579D01*
X123573920Y-116424460D01*
X123567806Y-116425089D01*
X123561531Y-116425466D01*
X123555093Y-116425592D01*
X123555568Y-116425116D01*
X123548237Y-116424973D01*
X123541069Y-116424546D01*
X123534062Y-116423833D01*
X123527217Y-116422835D01*
X123520533Y-116421550D01*
X123514012Y-116419980D01*
X123507652Y-116418122D01*
X123501455Y-116415977D01*
X123495419Y-116413545D01*
X123489545Y-116410826D01*
X123483832Y-116407818D01*
X123478282Y-116404521D01*
X123472893Y-116400936D01*
X123467667Y-116397062D01*
X123462602Y-116392898D01*
X123457699Y-116388444D01*
X123452938Y-116383762D01*
X123448301Y-116378912D01*
X123443786Y-116373896D01*
X123439394Y-116368713D01*
X123435124Y-116363365D01*
X123430977Y-116357850D01*
X123426954Y-116352171D01*
X123423052Y-116346326D01*
X123419274Y-116340317D01*
X123415619Y-116334143D01*
X123412086Y-116327805D01*
X123408676Y-116321304D01*
X123405389Y-116314640D01*
X123402224Y-116307813D01*
X123399182Y-116300823D01*
X123396263Y-116293671D01*
X123390728Y-116279104D01*
X123385552Y-116264340D01*
X123380738Y-116249381D01*
X123376291Y-116234228D01*
X123372211Y-116218887D01*
X123368503Y-116203358D01*
X123365169Y-116187645D01*
X123362211Y-116171750D01*
X123359566Y-116155889D01*
X123357166Y-116140270D01*
X123355012Y-116124890D01*
X123353103Y-116109749D01*
X123351440Y-116094841D01*
X123350022Y-116080165D01*
X123348850Y-116065718D01*
X123347924Y-116051497D01*
X123346536Y-116024794D01*
X123345572Y-116001104D01*
X123345011Y-115980406D01*
X123344828Y-115962677D01*
X123345721Y-115907815D01*
X123348400Y-115854854D01*
X123350409Y-115829087D01*
X123352865Y-115803796D01*
X123355767Y-115778982D01*
X123359116Y-115754645D01*
X123362911Y-115730784D01*
X123367152Y-115707401D01*
X123371840Y-115684496D01*
X123376975Y-115662070D01*
X123382556Y-115640122D01*
X123388583Y-115618652D01*
X123395057Y-115597662D01*
X123401978Y-115577152D01*
X123409336Y-115557172D01*
X123417125Y-115537773D01*
X123425343Y-115518954D01*
X123433991Y-115500718D01*
X123443068Y-115483063D01*
X123452575Y-115465990D01*
X123462512Y-115449500D01*
X123472879Y-115433592D01*
X123483676Y-115418268D01*
X123494902Y-115403528D01*
X123506558Y-115389371D01*
X123518644Y-115375799D01*
X123531159Y-115362811D01*
X123544105Y-115350408D01*
X123557480Y-115338591D01*
X123571285Y-115327359D01*
X123585516Y-115316761D01*
X123600169Y-115306844D01*
X123615241Y-115297608D01*
X123630730Y-115289054D01*
X123646634Y-115281183D01*
X123662949Y-115273994D01*
X123679674Y-115267489D01*
X123696806Y-115261666D01*
X123714343Y-115256528D01*
X123732281Y-115252073D01*
X123750620Y-115248303D01*
X123769356Y-115245217D01*
X123788487Y-115242817D01*
X123808010Y-115241101D01*
X123827923Y-115240072D01*
X123848224Y-115239729D01*
X123868516Y-115240078D01*
X123888407Y-115241125D01*
X123907896Y-115242870D01*
X123926983Y-115245314D01*
X123945669Y-115248457D01*
X123963952Y-115252299D01*
X123981834Y-115256841D01*
X123999314Y-115262083D01*
X124016392Y-115268026D01*
X124033068Y-115274669D01*
X124049343Y-115282013D01*
X124065215Y-115290059D01*
X124080686Y-115298807D01*
X124095755Y-115308257D01*
X124110422Y-115318409D01*
X124124687Y-115329264D01*
X124138494Y-115340756D01*
X124151877Y-115352816D01*
X124164834Y-115365446D01*
X124177365Y-115378645D01*
X124189468Y-115392414D01*
X124201144Y-115406752D01*
X124212392Y-115421659D01*
X124223211Y-115437135D01*
X124233600Y-115453180D01*
X124243558Y-115469795D01*
X124253086Y-115486979D01*
X124262181Y-115504733D01*
X124270845Y-115523055D01*
X124279074Y-115541947D01*
X124286870Y-115561408D01*
X124294232Y-115581438D01*
X124307626Y-115622891D01*
X124319235Y-115665887D01*
X124329057Y-115710541D01*
X124337094Y-115756967D01*
X124343345Y-115805278D01*
X124347810Y-115855591D01*
X124350489Y-115908019D01*
X124351382Y-115962677D01*
X124350489Y-116017539D01*
X124347810Y-116070503D01*
X124345800Y-116096273D01*
X124343345Y-116121569D01*
X124340443Y-116146391D01*
X124337094Y-116170738D01*
X124333299Y-116194611D01*
X124329057Y-116218010D01*
X124324369Y-116240934D01*
X124319235Y-116263384D01*
X124313654Y-116285359D01*
X124307626Y-116306860D01*
X124301152Y-116327887D01*
X124294232Y-116348439D01*
X124286873Y-116368461D01*
X124279084Y-116387897D01*
X124270865Y-116406747D01*
X124262215Y-116425011D01*
X124253134Y-116442689D01*
X124243621Y-116459781D01*
X124233677Y-116476287D01*
X124223300Y-116492207D01*
X124212491Y-116507541D01*
X124201249Y-116522289D01*
X124189574Y-116536451D01*
X124177465Y-116550027D01*
X124164922Y-116563017D01*
X124151945Y-116575421D01*
X124138534Y-116587239D01*
X124124687Y-116598471D01*
X124110461Y-116609069D01*
X124095823Y-116618986D01*
X124080774Y-116628221D01*
X124065316Y-116636775D01*
X124049448Y-116644646D01*
X124033173Y-116651835D01*
X124016491Y-116658341D01*
X123999403Y-116664163D01*
X123981911Y-116669302D01*
X123964015Y-116673756D01*
X123945717Y-116677527D01*
X123927017Y-116680612D01*
X123907917Y-116683013D01*
X123888417Y-116684728D01*
X123868519Y-116685757D01*
X123848224Y-116686100D01*
X123831299Y-116685852D01*
X123814637Y-116685106D01*
X123798239Y-116683863D01*
X123782103Y-116682123D01*
X123766231Y-116679884D01*
X123750624Y-116677147D01*
X123735280Y-116673911D01*
X123720202Y-116670176D01*
X123705388Y-116665941D01*
X123690840Y-116661206D01*
X123676558Y-116655972D01*
X123662542Y-116650236D01*
X123648792Y-116644000D01*
X123635310Y-116637263D01*
X123622094Y-116630024D01*
X123609146Y-116622283D01*
X123698205Y-116454881D01*
X123705907Y-116458949D01*
X123713832Y-116462761D01*
X123721980Y-116466313D01*
X123730351Y-116469608D01*
X123738946Y-116472642D01*
X123747764Y-116475417D01*
X123756805Y-116477930D01*
X123766070Y-116480182D01*
X123775558Y-116482171D01*
X123785269Y-116483898D01*
X123795203Y-116485361D01*
X123805361Y-116486559D01*
X123815741Y-116487492D01*
X123826345Y-116488160D01*
X123837173Y-116488561D01*
X123848223Y-116488695D01*
X123868365Y-116488204D01*
X123878172Y-116487590D01*
X123887803Y-116486731D01*
X123897258Y-116485626D01*
X123906536Y-116484276D01*
X123915639Y-116482681D01*
X123924565Y-116480840D01*
X123933314Y-116478755D01*
X123941887Y-116476424D01*
X123950283Y-116473848D01*
X123958502Y-116471027D01*
X123966544Y-116467960D01*
X123974410Y-116464649D01*
X123982098Y-116461093D01*
X123989610Y-116457292D01*
X123996944Y-116453246D01*
X124004101Y-116448956D01*
X124011080Y-116444420D01*
X124017883Y-116439640D01*
X124024507Y-116434615D01*
X124030954Y-116429345D01*
X124037223Y-116423831D01*
X124043314Y-116418072D01*
X124049228Y-116412069D01*
X124054963Y-116405821D01*
X124060521Y-116399329D01*
X124065900Y-116392592D01*
X124071101Y-116385612D01*
X124076124Y-116378386D01*
X124080968Y-116370917D01*
X124085634Y-116363203D01*
X124094502Y-116346951D01*
X124102801Y-116329535D01*
X124110529Y-116310955D01*
X124117688Y-116291207D01*
X124124276Y-116270291D01*
X124130292Y-116248203D01*
X124135738Y-116224941D01*
X124140611Y-116200504D01*
X124144913Y-116174890D01*
X124148642Y-116148095D01*
X124151798Y-116120119D01*
X124154382Y-116090959D01*
X124156391Y-116060613D01*
X124157827Y-116029079D01*
X124158977Y-115962439D01*
X124158692Y-115928511D01*
X124157839Y-115895757D01*
X124156416Y-115864176D01*
X124154426Y-115833769D01*
X124151868Y-115804537D01*
X124148742Y-115776481D01*
X124145049Y-115749600D01*
X124140790Y-115723897D01*
X124135963Y-115699371D01*
X124130571Y-115676024D01*
X124124613Y-115653855D01*
X124118090Y-115632866D01*
X124111001Y-115613058D01*
X124103348Y-115594430D01*
X124095130Y-115576985D01*
X124086348Y-115560722D01*
X124076919Y-115545539D01*
X124066759Y-115531332D01*
X124055869Y-115518104D01*
X124044249Y-115505853D01*
X124031899Y-115494580D01*
X124018819Y-115484285D01*
X124005011Y-115474969D01*
X123990473Y-115466633D01*
X123975208Y-115459275D01*
X123959214Y-115452898D01*
X123942493Y-115447501D01*
X123925045Y-115443084D01*
X123906870Y-115439648D01*
X123887968Y-115437194D01*
X123868340Y-115435721D01*
X123847986Y-115435230D01*
X123827631Y-115435718D01*
X123817727Y-115436329D01*
X123808003Y-115437184D01*
X123798462Y-115438284D01*
X123789101Y-115439628D01*
X123779923Y-115441217D01*
X123770926Y-115443051D01*
X123762111Y-115445129D01*
X123753478Y-115447453D01*
X123745026Y-115450022D01*
X123736756Y-115452835D01*
X123728669Y-115455894D01*
X123720763Y-115459198D01*
X123713039Y-115462748D01*
X123705497Y-115466543D01*
X123698138Y-115470584D01*
X123690960Y-115474870D01*
X123683965Y-115479402D01*
X123677152Y-115484180D01*
X123670521Y-115489204D01*
X123664072Y-115494474D01*
X123657806Y-115499990D01*
X123651722Y-115505752D01*
X123645821Y-115511760D01*
X123640102Y-115518015D01*
X123634565Y-115524516D01*
X123629211Y-115531264D01*
X123624040Y-115538258D01*
X123619051Y-115545499D01*
X123614245Y-115552987D01*
X123609622Y-115560722D01*
X123600840Y-115577024D01*
X123592623Y-115594499D01*
X123584969Y-115613146D01*
X123577881Y-115632967D01*
X123571357Y-115653960D01*
X123565399Y-115676128D01*
X123560007Y-115699470D01*
X123555181Y-115723986D01*
X123550921Y-115749677D01*
X123547228Y-115776543D01*
X123544103Y-115804585D01*
X123541545Y-115833803D01*
X123538132Y-115895767D01*
X123536994Y-115962439D01*
X123537177Y-115981202D01*
X123537739Y-116001818D01*
X123538702Y-116024355D01*
X123540090Y-116048878D01*
X123541839Y-116074327D01*
X123543900Y-116099599D01*
X123546318Y-116124691D01*
X123549139Y-116149605D01*
X123550691Y-116161760D01*
X123552309Y-116173402D01*
X123553995Y-116184531D01*
X123555747Y-116195146D01*
X123557566Y-116205248D01*
X123559453Y-116214836D01*
X123561406Y-116223911D01*
X123563427Y-116232472D01*
X123564498Y-116236494D01*
X123565571Y-116240253D01*
X123566646Y-116243750D01*
X123567724Y-116246987D01*
X123568806Y-116249962D01*
X123569349Y-116251352D01*
X123569894Y-116252677D01*
X123570440Y-116253937D01*
X123570988Y-116255132D01*
X123571537Y-116256262D01*
X123572089Y-116257327D01*
X123572642Y-116258327D01*
X123573198Y-116259262D01*
X123573756Y-116260132D01*
X123574317Y-116260938D01*
X123574880Y-116261679D01*
X123575446Y-116262355D01*
X123576015Y-116262967D01*
X123576587Y-116263514D01*
X123577162Y-116263997D01*
X123577740Y-116264415D01*
X123578322Y-116264769D01*
X123578907Y-116265058D01*
X123579496Y-116265283D01*
X123580089Y-116265443D01*
X123580686Y-116265540D01*
X123581286Y-116265572D01*
X123583237Y-116265452D01*
X123585159Y-116265092D01*
X123587053Y-116264492D01*
X123588917Y-116263652D01*
X123590753Y-116262572D01*
X123592559Y-116261252D01*
X123594334Y-116259692D01*
X123596080Y-116257892D01*
X123597795Y-116255852D01*
X123599478Y-116253572D01*
X123601130Y-116251053D01*
X123602751Y-116248293D01*
X123604339Y-116245293D01*
X123605895Y-116242053D01*
X123607419Y-116238573D01*
X123608909Y-116234854D01*
X123610377Y-116230833D01*
X123611745Y-116226449D01*
X123613014Y-116221705D01*
X123614185Y-116216600D01*
X123616234Y-116205310D01*
X123617898Y-116192586D01*
X123619183Y-116178434D01*
X123620093Y-116162858D01*
X123620636Y-116145865D01*
X123620815Y-116127459D01*
X123620815Y-115805514D01*
X123787265Y-115805514D01*
X123787265Y-116106266D01*
X123788571Y-116114136D01*
X123790167Y-116122031D01*
X123792053Y-116129953D01*
X123794230Y-116137907D01*
X123796697Y-116145894D01*
X123799454Y-116153917D01*
X123802501Y-116161979D01*
X123805839Y-116170084D01*
X123807708Y-116174018D01*
X123809834Y-116177697D01*
X123812216Y-116181119D01*
X123814854Y-116184286D01*
X123817747Y-116187197D01*
X123820895Y-116189853D01*
X123824297Y-116192255D01*
X123827954Y-116194402D01*
X123831865Y-116196296D01*
X123836029Y-116197935D01*
X123840447Y-116199322D01*
X123845118Y-116200456D01*
X123850041Y-116201337D01*
X123855216Y-116201966D01*
X123860643Y-116202343D01*
X123866322Y-116202468D01*
X123868709Y-116202427D01*
X123871049Y-116202304D01*
X123873341Y-116202098D01*
X123875585Y-116201810D01*
X123877782Y-116201440D01*
X123879931Y-116200988D01*
X123882032Y-116200454D01*
X123884084Y-116199838D01*
X123886089Y-116199140D01*
X123888046Y-116198360D01*
X123889954Y-116197498D01*
X123891813Y-116196554D01*
X123893625Y-116195528D01*
X123895387Y-116194421D01*
X123897101Y-116193232D01*
X123898766Y-116191961D01*
X123900383Y-116190609D01*
X123901950Y-116189175D01*
X123903469Y-116187659D01*
X123904938Y-116186063D01*
X123906358Y-116184384D01*
X123907729Y-116182624D01*
X123909051Y-116180783D01*
X123910323Y-116178861D01*
X123911546Y-116176857D01*
X123912719Y-116174772D01*
X123914915Y-116170358D01*
X123916912Y-116165621D01*
X123918709Y-116160559D01*
X123921912Y-116149307D01*
X123924730Y-116136448D01*
X123927157Y-116121982D01*
X123929187Y-116105909D01*
X123930816Y-116088228D01*
X123932037Y-116068940D01*
X123932846Y-116048045D01*
X123933235Y-116025542D01*
X123933159Y-115993853D01*
X123932398Y-115964690D01*
X123931764Y-115951056D01*
X123930962Y-115938055D01*
X123929994Y-115925686D01*
X123928860Y-115913950D01*
X123927561Y-115902848D01*
X123926098Y-115892380D01*
X123924473Y-115882546D01*
X123922687Y-115873346D01*
X123920740Y-115864782D01*
X123918634Y-115856852D01*
X123916369Y-115849558D01*
X123913947Y-115842900D01*
X123911313Y-115836716D01*
X123908411Y-115830934D01*
X123905243Y-115825552D01*
X123901810Y-115820572D01*
X123898111Y-115815992D01*
X123894148Y-115811812D01*
X123889921Y-115808032D01*
X123885431Y-115804651D01*
X123880679Y-115801669D01*
X123875665Y-115799086D01*
X123870391Y-115796902D01*
X123864856Y-115795115D01*
X123859062Y-115793726D01*
X123853008Y-115792734D01*
X123846697Y-115792139D01*
X123840128Y-115791941D01*
X123840128Y-115792179D01*
X123836615Y-115792230D01*
X123833130Y-115792381D01*
X123829672Y-115792634D01*
X123826243Y-115792990D01*
X123822841Y-115793450D01*
X123819467Y-115794013D01*
X123816121Y-115794680D01*
X123812804Y-115795454D01*
X123809514Y-115796333D01*
X123806251Y-115797319D01*
X123803017Y-115798412D01*
X123799811Y-115799613D01*
X123796633Y-115800924D01*
X123793482Y-115802343D01*
X123790360Y-115803873D01*
X123787265Y-115805514D01*
X123620815Y-115805514D01*
X123620815Y-115716455D01*
X123634503Y-115709102D01*
X123648152Y-115702224D01*
X123661762Y-115695819D01*
X123675335Y-115689889D01*
X123688869Y-115684434D01*
X123702367Y-115679453D01*
X123715827Y-115674946D01*
X123729251Y-115670914D01*
X123742639Y-115667356D01*
X123755990Y-115664272D01*
X123769307Y-115661663D01*
X123782587Y-115659529D01*
X123795833Y-115657868D01*
X123809045Y-115656682D01*
X123822222Y-115655971D01*
X123835366Y-115655734D01*
X123853778Y-115656124D01*
X123871509Y-115657296D01*
X123888560Y-115659248D01*
X123904932Y-115661981D01*
X123912863Y-115663639D01*
X123920624Y-115665493D01*
X123928215Y-115667542D01*
X123935636Y-115669785D01*
X123942888Y-115672224D01*
X123949970Y-115674857D01*
X123956883Y-115677684D01*
X123963626Y-115680707D01*
X123970199Y-115683924D01*
X123976603Y-115687336D01*
X123982838Y-115690942D01*
X123988903Y-115694743D01*
X123994798Y-115698738D01*
X124000525Y-115702928D01*
X124006082Y-115707312D01*
X124011470Y-115711890D01*
X124016689Y-115716663D01*
X124021739Y-115721630D01*
X124026619Y-115726791D01*
X124031331Y-115732146D01*
X124035873Y-115737695D01*
X124040247Y-115743439D01*
X124044452Y-115749376D01*
X124048487Y-115755508D01*
X124056142Y-115768280D01*
X124063300Y-115781594D01*
X124069962Y-115795450D01*
X124076128Y-115809849D01*
X124081800Y-115824790D01*
X124086976Y-115840274D01*
X124091657Y-115856302D01*
X124095844Y-115872874D01*
X124099538Y-115889989D01*
X124102738Y-115907650D01*
X124105444Y-115925855D01*
X124107658Y-115944605D01*
X124109379Y-115963901D01*
X124110608Y-115983743D01*
X124111345Y-116004131D01*
X124111591Y-116025065D01*
X124111584Y-116025542D01*
X124111311Y-116046922D01*
G37*
G36*
X125744652Y-116178656D02*
G01*
X125907291Y-115500000D01*
X126170896Y-115500000D01*
X125904910Y-116337962D01*
X125819661Y-116337962D01*
X125822552Y-116344589D01*
X125825510Y-116351076D01*
X125828534Y-116357423D01*
X125831623Y-116363627D01*
X125834779Y-116369689D01*
X125837999Y-116375609D01*
X125841285Y-116381384D01*
X125844635Y-116387016D01*
X125848049Y-116392502D01*
X125851527Y-116397842D01*
X125855068Y-116403036D01*
X125858673Y-116408082D01*
X125862340Y-116412981D01*
X125866070Y-116417731D01*
X125869862Y-116422332D01*
X125873716Y-116426782D01*
X125877720Y-116431144D01*
X125881875Y-116435388D01*
X125886181Y-116439515D01*
X125890637Y-116443525D01*
X125895245Y-116447418D01*
X125900002Y-116451194D01*
X125904911Y-116454852D01*
X125909970Y-116458393D01*
X125915180Y-116461817D01*
X125920541Y-116465124D01*
X125926052Y-116468314D01*
X125931714Y-116471386D01*
X125937527Y-116474341D01*
X125943490Y-116477179D01*
X125949604Y-116479900D01*
X125955869Y-116482504D01*
X125969130Y-116487437D01*
X125983376Y-116492058D01*
X125998610Y-116496367D01*
X126014834Y-116500363D01*
X126032052Y-116504046D01*
X126050267Y-116507417D01*
X126069480Y-116510476D01*
X126089695Y-116513221D01*
X126061358Y-116689196D01*
X126037784Y-116687516D01*
X126014834Y-116685245D01*
X125992507Y-116682381D01*
X125970804Y-116678927D01*
X125949722Y-116674881D01*
X125929263Y-116670243D01*
X125909424Y-116665013D01*
X125890206Y-116659192D01*
X125871607Y-116652779D01*
X125853626Y-116645775D01*
X125836264Y-116638179D01*
X125819520Y-116629992D01*
X125803392Y-116621213D01*
X125787880Y-116611842D01*
X125772983Y-116601880D01*
X125758701Y-116591327D01*
X125744949Y-116580165D01*
X125731643Y-116568378D01*
X125718782Y-116555967D01*
X125706366Y-116542932D01*
X125694393Y-116529273D01*
X125682863Y-116514990D01*
X125671775Y-116500085D01*
X125661129Y-116484557D01*
X125650924Y-116468407D01*
X125641159Y-116451635D01*
X125631834Y-116434242D01*
X125622948Y-116416227D01*
X125614499Y-116397591D01*
X125606488Y-116378335D01*
X125598914Y-116358458D01*
X125591775Y-116337962D01*
X125312455Y-115500000D01*
X125567963Y-115500000D01*
X125744652Y-116178656D01*
G37*
G36*
X127051958Y-116337962D02*
G01*
X126830978Y-116337962D01*
X126821452Y-116262238D01*
X126811727Y-116274653D01*
X126801572Y-116286270D01*
X126790985Y-116297087D01*
X126779967Y-116307106D01*
X126768516Y-116316325D01*
X126756631Y-116324744D01*
X126744313Y-116332364D01*
X126731560Y-116339182D01*
X126718372Y-116345200D01*
X126704748Y-116350416D01*
X126690687Y-116354831D01*
X126676189Y-116358444D01*
X126661252Y-116361255D01*
X126645877Y-116363263D01*
X126630062Y-116364468D01*
X126613807Y-116364870D01*
X126600324Y-116364641D01*
X126587107Y-116363956D01*
X126574158Y-116362814D01*
X126561476Y-116361216D01*
X126549060Y-116359164D01*
X126536910Y-116356657D01*
X126525026Y-116353698D01*
X126513408Y-116350285D01*
X126502055Y-116346420D01*
X126490966Y-116342104D01*
X126480142Y-116337337D01*
X126469582Y-116332120D01*
X126459286Y-116326454D01*
X126449252Y-116320340D01*
X126439482Y-116313777D01*
X126429975Y-116306767D01*
X126420741Y-116299364D01*
X126411792Y-116291620D01*
X126403129Y-116283536D01*
X126394751Y-116275112D01*
X126386659Y-116266347D01*
X126378854Y-116257241D01*
X126371335Y-116247795D01*
X126364104Y-116238009D01*
X126357160Y-116227882D01*
X126350503Y-116217415D01*
X126344135Y-116206607D01*
X126338055Y-116195459D01*
X126332264Y-116183970D01*
X126326762Y-116172141D01*
X126321550Y-116159972D01*
X126316628Y-116147462D01*
X126311998Y-116134673D01*
X126307665Y-116121666D01*
X126303628Y-116108442D01*
X126299888Y-116095000D01*
X126296445Y-116081340D01*
X126293300Y-116067463D01*
X126290453Y-116053368D01*
X126287904Y-116039055D01*
X126285653Y-116024525D01*
X126283702Y-116009777D01*
X126280697Y-115979628D01*
X126278892Y-115948609D01*
X126278343Y-115919576D01*
X126535703Y-115919576D01*
X126535854Y-115936942D01*
X126536306Y-115953677D01*
X126537059Y-115969782D01*
X126538114Y-115985258D01*
X126539470Y-116000104D01*
X126541128Y-116014322D01*
X126543087Y-116027910D01*
X126545347Y-116040871D01*
X126547909Y-116053204D01*
X126550772Y-116064909D01*
X126553936Y-116075987D01*
X126557402Y-116086439D01*
X126561169Y-116096263D01*
X126565238Y-116105462D01*
X126569608Y-116114035D01*
X126574279Y-116121982D01*
X126579249Y-116129380D01*
X126584427Y-116136303D01*
X126589813Y-116142751D01*
X126595409Y-116148723D01*
X126601215Y-116154220D01*
X126607234Y-116159240D01*
X126613465Y-116163784D01*
X126619910Y-116167851D01*
X126626570Y-116171441D01*
X126633445Y-116174554D01*
X126640538Y-116177188D01*
X126647849Y-116179344D01*
X126655378Y-116181022D01*
X126663128Y-116182221D01*
X126671099Y-116182941D01*
X126679292Y-116183180D01*
X126684379Y-116183102D01*
X126689372Y-116182868D01*
X126694270Y-116182479D01*
X126699075Y-116181934D01*
X126703786Y-116181234D01*
X126708404Y-116180380D01*
X126712929Y-116179372D01*
X126717362Y-116178210D01*
X126721703Y-116176894D01*
X126725952Y-116175425D01*
X126730109Y-116173804D01*
X126734176Y-116172030D01*
X126738152Y-116170103D01*
X126742037Y-116168026D01*
X126745833Y-116165796D01*
X126749539Y-116163416D01*
X126753178Y-116160851D01*
X126756772Y-116158158D01*
X126760321Y-116155334D01*
X126763826Y-116152381D01*
X126767287Y-116149295D01*
X126770702Y-116146079D01*
X126774073Y-116142729D01*
X126777399Y-116139246D01*
X126780681Y-116135630D01*
X126783918Y-116131879D01*
X126787110Y-116127992D01*
X126790258Y-116123969D01*
X126793361Y-116119810D01*
X126796420Y-116115513D01*
X126799433Y-116111078D01*
X126802403Y-116106504D01*
X126802403Y-115752889D01*
X126798942Y-115747338D01*
X126795437Y-115741938D01*
X126791888Y-115736688D01*
X126788293Y-115731588D01*
X126784655Y-115726636D01*
X126780971Y-115721834D01*
X126777243Y-115717181D01*
X126773470Y-115712675D01*
X126769653Y-115708318D01*
X126765791Y-115704108D01*
X126761884Y-115700045D01*
X126757933Y-115696129D01*
X126753937Y-115692360D01*
X126749896Y-115688737D01*
X126745811Y-115685259D01*
X126741681Y-115681927D01*
X126737495Y-115678771D01*
X126733242Y-115675821D01*
X126728922Y-115673077D01*
X126724536Y-115670538D01*
X126720082Y-115668205D01*
X126715561Y-115666076D01*
X126710974Y-115664151D01*
X126706319Y-115662431D01*
X126701597Y-115660914D01*
X126696809Y-115659601D01*
X126691953Y-115658491D01*
X126687031Y-115657583D01*
X126682041Y-115656878D01*
X126676985Y-115656374D01*
X126671862Y-115656072D01*
X126666671Y-115655972D01*
X126661796Y-115656058D01*
X126656994Y-115656318D01*
X126652265Y-115656752D01*
X126647610Y-115657360D01*
X126643029Y-115658142D01*
X126638522Y-115659099D01*
X126634090Y-115660231D01*
X126629732Y-115661538D01*
X126625450Y-115663021D01*
X126621244Y-115664681D01*
X126617114Y-115666516D01*
X126613060Y-115668529D01*
X126609083Y-115670719D01*
X126605183Y-115673087D01*
X126601360Y-115675632D01*
X126597615Y-115678356D01*
X126593962Y-115681305D01*
X126590416Y-115684528D01*
X126586975Y-115688023D01*
X126583640Y-115691791D01*
X126580412Y-115695831D01*
X126577289Y-115700143D01*
X126574272Y-115704726D01*
X126571362Y-115709580D01*
X126568557Y-115714704D01*
X126565859Y-115720100D01*
X126563267Y-115725765D01*
X126560780Y-115731699D01*
X126558400Y-115737903D01*
X126556126Y-115744376D01*
X126553958Y-115751118D01*
X126551895Y-115758127D01*
X126548123Y-115773220D01*
X126544845Y-115789750D01*
X126542063Y-115807725D01*
X126539781Y-115827154D01*
X126538001Y-115848045D01*
X126536726Y-115870407D01*
X126535959Y-115894248D01*
X126535703Y-115919576D01*
X126278343Y-115919576D01*
X126278289Y-115916719D01*
X126278577Y-115891509D01*
X126279440Y-115866958D01*
X126280878Y-115843065D01*
X126282892Y-115819831D01*
X126285482Y-115797256D01*
X126288649Y-115775339D01*
X126292393Y-115754081D01*
X126296714Y-115733481D01*
X126301613Y-115713540D01*
X126307090Y-115694258D01*
X126313145Y-115675634D01*
X126319779Y-115657668D01*
X126326992Y-115640362D01*
X126334784Y-115623713D01*
X126343156Y-115607724D01*
X126352108Y-115592392D01*
X126361652Y-115577859D01*
X126371887Y-115564264D01*
X126382814Y-115551606D01*
X126394431Y-115539886D01*
X126406740Y-115529103D01*
X126419738Y-115519258D01*
X126433427Y-115510351D01*
X126447805Y-115502381D01*
X126462872Y-115495349D01*
X126478629Y-115489254D01*
X126495073Y-115484097D01*
X126512206Y-115479878D01*
X126530027Y-115476596D01*
X126548536Y-115474252D01*
X126567732Y-115472846D01*
X126587614Y-115472377D01*
X126595573Y-115472497D01*
X126603465Y-115472857D01*
X126611290Y-115473457D01*
X126619050Y-115474297D01*
X126626745Y-115475377D01*
X126634374Y-115476697D01*
X126641938Y-115478257D01*
X126649437Y-115480057D01*
X126656873Y-115482097D01*
X126664244Y-115484377D01*
X126671552Y-115486896D01*
X126678797Y-115489656D01*
X126685980Y-115492656D01*
X126693099Y-115495896D01*
X126700157Y-115499376D01*
X126707153Y-115503095D01*
X126714015Y-115507019D01*
X126720758Y-115511110D01*
X126727382Y-115515368D01*
X126733886Y-115519794D01*
X126740269Y-115524387D01*
X126746529Y-115529148D01*
X126752665Y-115534076D01*
X126758677Y-115539171D01*
X126764564Y-115544434D01*
X126770324Y-115549865D01*
X126775956Y-115555463D01*
X126781459Y-115561228D01*
X126786833Y-115567160D01*
X126792076Y-115573260D01*
X126797187Y-115579528D01*
X126802165Y-115585963D01*
X126802641Y-115585963D01*
X126802641Y-115140908D01*
X127051958Y-115166863D01*
X127051958Y-115752889D01*
X127051958Y-116337962D01*
G37*
G36*
X128760743Y-115662401D02*
G01*
X129032920Y-115537624D01*
X129106262Y-115762414D01*
X128811940Y-115821707D01*
X129013870Y-116043401D01*
X128823608Y-116180799D01*
X128675971Y-115921957D01*
X128528333Y-116180799D01*
X128338071Y-116043401D01*
X128540001Y-115821707D01*
X128245679Y-115762414D01*
X128319021Y-115537624D01*
X128591198Y-115662401D01*
X128557146Y-115364983D01*
X128793842Y-115364983D01*
X128794557Y-115364983D01*
X128760743Y-115662401D01*
G37*
G36*
X129831591Y-116425592D02*
G01*
X129636567Y-116514651D01*
X128974579Y-115137574D01*
X129167937Y-115048515D01*
X129831591Y-116425592D01*
G37*
G36*
X118169421Y-114511781D02*
G01*
X118332059Y-113833125D01*
X118595664Y-113833125D01*
X118329678Y-114671087D01*
X118244430Y-114671087D01*
X118247321Y-114677714D01*
X118250278Y-114684201D01*
X118253302Y-114690548D01*
X118256392Y-114696752D01*
X118259547Y-114702815D01*
X118262768Y-114708734D01*
X118266053Y-114714509D01*
X118269403Y-114720141D01*
X118272817Y-114725627D01*
X118276295Y-114730967D01*
X118279837Y-114736161D01*
X118283441Y-114741207D01*
X118287109Y-114746106D01*
X118290839Y-114750856D01*
X118294631Y-114755457D01*
X118298484Y-114759907D01*
X118302489Y-114764269D01*
X118306644Y-114768513D01*
X118310949Y-114772641D01*
X118315406Y-114776651D01*
X118320013Y-114780543D01*
X118324771Y-114784319D01*
X118329679Y-114787977D01*
X118334739Y-114791519D01*
X118339948Y-114794943D01*
X118345309Y-114798249D01*
X118350820Y-114801439D01*
X118356482Y-114804511D01*
X118362295Y-114807466D01*
X118368258Y-114810304D01*
X118374373Y-114813025D01*
X118380637Y-114815629D01*
X118393898Y-114820562D01*
X118408144Y-114825183D01*
X118423378Y-114829492D01*
X118439603Y-114833488D01*
X118456821Y-114837172D01*
X118475035Y-114840543D01*
X118494248Y-114843601D01*
X118514463Y-114846347D01*
X118486127Y-115022321D01*
X118462552Y-115020641D01*
X118439602Y-115018370D01*
X118417275Y-115015507D01*
X118395572Y-115012052D01*
X118374491Y-115008006D01*
X118354031Y-115003368D01*
X118334192Y-114998139D01*
X118314974Y-114992318D01*
X118296375Y-114985905D01*
X118278395Y-114978901D01*
X118261033Y-114971305D01*
X118244288Y-114963117D01*
X118228160Y-114954338D01*
X118212648Y-114944968D01*
X118197752Y-114935006D01*
X118183470Y-114924452D01*
X118169718Y-114913290D01*
X118156412Y-114901503D01*
X118143551Y-114889092D01*
X118131135Y-114876057D01*
X118119162Y-114862398D01*
X118107632Y-114848115D01*
X118096544Y-114833210D01*
X118085898Y-114817682D01*
X118075693Y-114801532D01*
X118065928Y-114784760D01*
X118056603Y-114767367D01*
X118047716Y-114749352D01*
X118039267Y-114730716D01*
X118031256Y-114711460D01*
X118023682Y-114691583D01*
X118016544Y-114671087D01*
X117737223Y-113833125D01*
X117992732Y-113833125D01*
X118169421Y-114511781D01*
G37*
G36*
X119115949Y-113394417D02*
G01*
X119123843Y-113394886D01*
X119131552Y-113395669D01*
X119139076Y-113396765D01*
X119146414Y-113398175D01*
X119153566Y-113399899D01*
X119160533Y-113401938D01*
X119167312Y-113404292D01*
X119173905Y-113406961D01*
X119180310Y-113409946D01*
X119186527Y-113413247D01*
X119192557Y-113416864D01*
X119198398Y-113420798D01*
X119204051Y-113425049D01*
X119209514Y-113429617D01*
X119214788Y-113434504D01*
X119219805Y-113439624D01*
X119224499Y-113444896D01*
X119228869Y-113450319D01*
X119232915Y-113455894D01*
X119236638Y-113461621D01*
X119240037Y-113467500D01*
X119243112Y-113473532D01*
X119245863Y-113479718D01*
X119248291Y-113486056D01*
X119250395Y-113492549D01*
X119252175Y-113499196D01*
X119253632Y-113505997D01*
X119254765Y-113512953D01*
X119255574Y-113520065D01*
X119256060Y-113527332D01*
X119256222Y-113534754D01*
X119256060Y-113542180D01*
X119255574Y-113549455D01*
X119254765Y-113556579D01*
X119253632Y-113563553D01*
X119252175Y-113570375D01*
X119250395Y-113577048D01*
X119248291Y-113583569D01*
X119245863Y-113589940D01*
X119243112Y-113596160D01*
X119240037Y-113602229D01*
X119236638Y-113608148D01*
X119232915Y-113613916D01*
X119228869Y-113619533D01*
X119224499Y-113625000D01*
X119219805Y-113630316D01*
X119214788Y-113635481D01*
X119209509Y-113640412D01*
X119204031Y-113645025D01*
X119198357Y-113649319D01*
X119192490Y-113653296D01*
X119186432Y-113656954D01*
X119180184Y-113660295D01*
X119173751Y-113663317D01*
X119167134Y-113666021D01*
X119160335Y-113668407D01*
X119153357Y-113670474D01*
X119146203Y-113672224D01*
X119138875Y-113673656D01*
X119131375Y-113674769D01*
X119123706Y-113675564D01*
X119115870Y-113676042D01*
X119107870Y-113676201D01*
X119099881Y-113676042D01*
X119092076Y-113675564D01*
X119084455Y-113674769D01*
X119077018Y-113673656D01*
X119069766Y-113672224D01*
X119062697Y-113670474D01*
X119055813Y-113668407D01*
X119049113Y-113666021D01*
X119042597Y-113663317D01*
X119036265Y-113660295D01*
X119030118Y-113656954D01*
X119024154Y-113653296D01*
X119018375Y-113649319D01*
X119012780Y-113645025D01*
X119007369Y-113640412D01*
X119002143Y-113635481D01*
X118997170Y-113630316D01*
X118992521Y-113625000D01*
X118988194Y-113619533D01*
X118984191Y-113613916D01*
X118980509Y-113608148D01*
X118977150Y-113602229D01*
X118974112Y-113596160D01*
X118971395Y-113589940D01*
X118968999Y-113583569D01*
X118966924Y-113577048D01*
X118965169Y-113570375D01*
X118963734Y-113563553D01*
X118962618Y-113556579D01*
X118961822Y-113549455D01*
X118961344Y-113542180D01*
X118961185Y-113534754D01*
X118961344Y-113527332D01*
X118961822Y-113520065D01*
X118962618Y-113512953D01*
X118963734Y-113505997D01*
X118965169Y-113499196D01*
X118966924Y-113492549D01*
X118968999Y-113486056D01*
X118971395Y-113479718D01*
X118974112Y-113473532D01*
X118977150Y-113467500D01*
X118980509Y-113461621D01*
X118984191Y-113455894D01*
X118988194Y-113450319D01*
X118992521Y-113444896D01*
X118997170Y-113439624D01*
X119002143Y-113434504D01*
X119007369Y-113429617D01*
X119012780Y-113425049D01*
X119018375Y-113420798D01*
X119024154Y-113416864D01*
X119030118Y-113413247D01*
X119036265Y-113409946D01*
X119042597Y-113406961D01*
X119049113Y-113404292D01*
X119055813Y-113401938D01*
X119062697Y-113399899D01*
X119069766Y-113398175D01*
X119077018Y-113396765D01*
X119084455Y-113395669D01*
X119092076Y-113394886D01*
X119099881Y-113394417D01*
X119107870Y-113394261D01*
X119115949Y-113394417D01*
G37*
G36*
X119460773Y-114003384D02*
G01*
X119213837Y-114003384D01*
X119213837Y-114376526D01*
X119213561Y-114394645D01*
X119212731Y-114412300D01*
X119211349Y-114429492D01*
X119209413Y-114446219D01*
X119206923Y-114462481D01*
X119203879Y-114478279D01*
X119200280Y-114493611D01*
X119196126Y-114508477D01*
X119191417Y-114522878D01*
X119186153Y-114536812D01*
X119180332Y-114550279D01*
X119173955Y-114563279D01*
X119167021Y-114575812D01*
X119159530Y-114587877D01*
X119151482Y-114599474D01*
X119142876Y-114610603D01*
X119133675Y-114621157D01*
X119123845Y-114631030D01*
X119113384Y-114640222D01*
X119102294Y-114648733D01*
X119090574Y-114656563D01*
X119078226Y-114663712D01*
X119065249Y-114670181D01*
X119051644Y-114675968D01*
X119037411Y-114681075D01*
X119022550Y-114685501D01*
X119007062Y-114689246D01*
X118990948Y-114692310D01*
X118974207Y-114694693D01*
X118956840Y-114696395D01*
X118938847Y-114697416D01*
X118920229Y-114697757D01*
X118900549Y-114697490D01*
X118881511Y-114696693D01*
X118863109Y-114695371D01*
X118845338Y-114693530D01*
X118828192Y-114691176D01*
X118811666Y-114688314D01*
X118795753Y-114684949D01*
X118780449Y-114681088D01*
X118765716Y-114676891D01*
X118751521Y-114672515D01*
X118737867Y-114667961D01*
X118724758Y-114663229D01*
X118712196Y-114658317D01*
X118700183Y-114653227D01*
X118688723Y-114647959D01*
X118677818Y-114642512D01*
X118737825Y-114476062D01*
X118744400Y-114478607D01*
X118751089Y-114481063D01*
X118757896Y-114483429D01*
X118764822Y-114485706D01*
X118771872Y-114487894D01*
X118779047Y-114489993D01*
X118786350Y-114492002D01*
X118793784Y-114493922D01*
X118801319Y-114495675D01*
X118808924Y-114497185D01*
X118816601Y-114498455D01*
X118824353Y-114499488D01*
X118832184Y-114500287D01*
X118840096Y-114500854D01*
X118848091Y-114501192D01*
X118856173Y-114501304D01*
X118862385Y-114501220D01*
X118868429Y-114500968D01*
X118874306Y-114500549D01*
X118880015Y-114499961D01*
X118885557Y-114499204D01*
X118890931Y-114498277D01*
X118896139Y-114497182D01*
X118901178Y-114495916D01*
X118906050Y-114494480D01*
X118910755Y-114492874D01*
X118915293Y-114491097D01*
X118919663Y-114489148D01*
X118923865Y-114487028D01*
X118927900Y-114484736D01*
X118931768Y-114482271D01*
X118935468Y-114479634D01*
X118938970Y-114476799D01*
X118942244Y-114473741D01*
X118945290Y-114470459D01*
X118948107Y-114466954D01*
X118950698Y-114463226D01*
X118953061Y-114459275D01*
X118955197Y-114455100D01*
X118957108Y-114450702D01*
X118958792Y-114446081D01*
X118960250Y-114441237D01*
X118961483Y-114436169D01*
X118962492Y-114430878D01*
X118963275Y-114425364D01*
X118963834Y-114419627D01*
X118964170Y-114413666D01*
X118964281Y-114407482D01*
X118964281Y-113833125D01*
X118964520Y-113832887D01*
X119460773Y-113832887D01*
X119460773Y-114003384D01*
G37*
G36*
X120470373Y-114282814D02*
G01*
X120468799Y-114314934D01*
X120466176Y-114345971D01*
X120464471Y-114361085D01*
X120462504Y-114375931D01*
X120460274Y-114390509D01*
X120457782Y-114404819D01*
X120455028Y-114418864D01*
X120452011Y-114432642D01*
X120448732Y-114446155D01*
X120445191Y-114459404D01*
X120441388Y-114472389D01*
X120437322Y-114485111D01*
X120433030Y-114497526D01*
X120428460Y-114509590D01*
X120423612Y-114521303D01*
X120418488Y-114532666D01*
X120413087Y-114543678D01*
X120407410Y-114554340D01*
X120401459Y-114564653D01*
X120395233Y-114574617D01*
X120388734Y-114584231D01*
X120381963Y-114593498D01*
X120374919Y-114602416D01*
X120367604Y-114610986D01*
X120360018Y-114619209D01*
X120352162Y-114627085D01*
X120344037Y-114634615D01*
X120335643Y-114641797D01*
X120326975Y-114648587D01*
X120318028Y-114654936D01*
X120308802Y-114660844D01*
X120299295Y-114666313D01*
X120289508Y-114671342D01*
X120279440Y-114675933D01*
X120269091Y-114680084D01*
X120258461Y-114683797D01*
X120247548Y-114687071D01*
X120236354Y-114689908D01*
X120224877Y-114692308D01*
X120213117Y-114694271D01*
X120201073Y-114695796D01*
X120188747Y-114696886D01*
X120176136Y-114697539D01*
X120163240Y-114697757D01*
X120153066Y-114697620D01*
X120143082Y-114697210D01*
X120133289Y-114696526D01*
X120123686Y-114695569D01*
X120114274Y-114694338D01*
X120105054Y-114692834D01*
X120096026Y-114691057D01*
X120087189Y-114689006D01*
X120078546Y-114686681D01*
X120070095Y-114684083D01*
X120061838Y-114681212D01*
X120053774Y-114678067D01*
X120045904Y-114674648D01*
X120038228Y-114670957D01*
X120030747Y-114666991D01*
X120023461Y-114662752D01*
X120016320Y-114658321D01*
X120009363Y-114653779D01*
X120002589Y-114649125D01*
X119995999Y-114644361D01*
X119989591Y-114639487D01*
X119983365Y-114634503D01*
X119977322Y-114629409D01*
X119971461Y-114624206D01*
X119965780Y-114618894D01*
X119960281Y-114613474D01*
X119954963Y-114607946D01*
X119949825Y-114602310D01*
X119944866Y-114596566D01*
X119940088Y-114590715D01*
X119935489Y-114584758D01*
X119931068Y-114578694D01*
X119918448Y-114671087D01*
X119697468Y-114671087D01*
X119697468Y-114056248D01*
X119946545Y-114056248D01*
X119946545Y-114417722D01*
X119949925Y-114423272D01*
X119953365Y-114428672D01*
X119956866Y-114433922D01*
X119960427Y-114439023D01*
X119964049Y-114443974D01*
X119967730Y-114448776D01*
X119971470Y-114453430D01*
X119975269Y-114457935D01*
X119979127Y-114462293D01*
X119983043Y-114466503D01*
X119987017Y-114470565D01*
X119991049Y-114474481D01*
X119995137Y-114478251D01*
X119999283Y-114481874D01*
X120003485Y-114485351D01*
X120007743Y-114488683D01*
X120012060Y-114491839D01*
X120016438Y-114494789D01*
X120020877Y-114497533D01*
X120025376Y-114500072D01*
X120029935Y-114502406D01*
X120034554Y-114504535D01*
X120039231Y-114506459D01*
X120043968Y-114508180D01*
X120048764Y-114509696D01*
X120053618Y-114511010D01*
X120058529Y-114512120D01*
X120063498Y-114513028D01*
X120068525Y-114513733D01*
X120073608Y-114514236D01*
X120078748Y-114514538D01*
X120083944Y-114514639D01*
X120088643Y-114514549D01*
X120093275Y-114514282D01*
X120097841Y-114513835D01*
X120102339Y-114513210D01*
X120106770Y-114512406D01*
X120111135Y-114511424D01*
X120115432Y-114510263D01*
X120119663Y-114508924D01*
X120123826Y-114507406D01*
X120127923Y-114505709D01*
X120131952Y-114503834D01*
X120135915Y-114501780D01*
X120139810Y-114499548D01*
X120143639Y-114497137D01*
X120147400Y-114494547D01*
X120151095Y-114491779D01*
X120154706Y-114488787D01*
X120158217Y-114485528D01*
X120161627Y-114482001D01*
X120164936Y-114478206D01*
X120168146Y-114474143D01*
X120171254Y-114469812D01*
X120174263Y-114465213D01*
X120177170Y-114460346D01*
X120179978Y-114455212D01*
X120182684Y-114449809D01*
X120185291Y-114444139D01*
X120187797Y-114438201D01*
X120190202Y-114431995D01*
X120192507Y-114425520D01*
X120194711Y-114418779D01*
X120196815Y-114411769D01*
X120200745Y-114396756D01*
X120204142Y-114380295D01*
X120207008Y-114362389D01*
X120209347Y-114343040D01*
X120211161Y-114322251D01*
X120212454Y-114300025D01*
X120213227Y-114276364D01*
X120213484Y-114251273D01*
X120213331Y-114233946D01*
X120212870Y-114217240D01*
X120212101Y-114201155D01*
X120211025Y-114185691D01*
X120209640Y-114170850D01*
X120207947Y-114156632D01*
X120205944Y-114143037D01*
X120203632Y-114130067D01*
X120201010Y-114117722D01*
X120198078Y-114106002D01*
X120194836Y-114094909D01*
X120191283Y-114084444D01*
X120187419Y-114074606D01*
X120183243Y-114065396D01*
X120178755Y-114056816D01*
X120173956Y-114048866D01*
X120168944Y-114041469D01*
X120163732Y-114034546D01*
X120158319Y-114028098D01*
X120152707Y-114022126D01*
X120146895Y-114016629D01*
X120140884Y-114011609D01*
X120134674Y-114007065D01*
X120128266Y-114002997D01*
X120121659Y-113999407D01*
X120114855Y-113996295D01*
X120107853Y-113993660D01*
X120100654Y-113991504D01*
X120093259Y-113989826D01*
X120085667Y-113988628D01*
X120077879Y-113987908D01*
X120069895Y-113987668D01*
X120069656Y-113987668D01*
X120064870Y-113987738D01*
X120060157Y-113987948D01*
X120055516Y-113988298D01*
X120050948Y-113988788D01*
X120046453Y-113989420D01*
X120042030Y-113990192D01*
X120037679Y-113991106D01*
X120033401Y-113992163D01*
X120029196Y-113993361D01*
X120025063Y-113994703D01*
X120021003Y-113996187D01*
X120017016Y-113997815D01*
X120013100Y-113999586D01*
X120009258Y-114001501D01*
X120005488Y-114003561D01*
X120001790Y-114005766D01*
X119998143Y-114008096D01*
X119994523Y-114010533D01*
X119990931Y-114013077D01*
X119987365Y-114015730D01*
X119983826Y-114018491D01*
X119980313Y-114021362D01*
X119976826Y-114024343D01*
X119973364Y-114027435D01*
X119969928Y-114030639D01*
X119966516Y-114033955D01*
X119963128Y-114037384D01*
X119959765Y-114040926D01*
X119956425Y-114044583D01*
X119953109Y-114048356D01*
X119949816Y-114052244D01*
X119946545Y-114056248D01*
X119697468Y-114056248D01*
X119697468Y-113499988D01*
X119946785Y-113474032D01*
X119946785Y-113882893D01*
X119956611Y-113873509D01*
X119966710Y-113864732D01*
X119977083Y-113856563D01*
X119987731Y-113849001D01*
X119998654Y-113842047D01*
X120009852Y-113835698D01*
X120021326Y-113829956D01*
X120033075Y-113824820D01*
X120045101Y-113820290D01*
X120057403Y-113816365D01*
X120069983Y-113813044D01*
X120082839Y-113810328D01*
X120095974Y-113808217D01*
X120109386Y-113806709D01*
X120123077Y-113805804D01*
X120137046Y-113805503D01*
X120149880Y-113805726D01*
X120162486Y-113806396D01*
X120174864Y-113807512D01*
X120187015Y-113809074D01*
X120198941Y-113811084D01*
X120210641Y-113813539D01*
X120222116Y-113816441D01*
X120233368Y-113819790D01*
X120244396Y-113823585D01*
X120255202Y-113827827D01*
X120265786Y-113832515D01*
X120276148Y-113837649D01*
X120286291Y-113843231D01*
X120296213Y-113849258D01*
X120305917Y-113855732D01*
X120315402Y-113862653D01*
X120324641Y-113869964D01*
X120333608Y-113877610D01*
X120342301Y-113885592D01*
X120350722Y-113893910D01*
X120358872Y-113902564D01*
X120366749Y-113911555D01*
X120374355Y-113920883D01*
X120381690Y-113930548D01*
X120388754Y-113940551D01*
X120395548Y-113950891D01*
X120402072Y-113961570D01*
X120408327Y-113972588D01*
X120414312Y-113983945D01*
X120420028Y-113995641D01*
X120425475Y-114007677D01*
X120430655Y-114020053D01*
X120435541Y-114032630D01*
X120440109Y-114045368D01*
X120444360Y-114058283D01*
X120448294Y-114071391D01*
X120451912Y-114084709D01*
X120455213Y-114098252D01*
X120458197Y-114112037D01*
X120460867Y-114126078D01*
X120463220Y-114140394D01*
X120465259Y-114154998D01*
X120466984Y-114169909D01*
X120468394Y-114185141D01*
X120469490Y-114200710D01*
X120470272Y-114216634D01*
X120470897Y-114249606D01*
X120470871Y-114251273D01*
X120470373Y-114282814D01*
G37*
G36*
X121348864Y-114337236D02*
G01*
X120665445Y-114337236D01*
X120665445Y-114143164D01*
X121348864Y-114143164D01*
X121348864Y-114337236D01*
G37*
G36*
X122363943Y-114283052D02*
G01*
X122362370Y-114315172D01*
X122359746Y-114346209D01*
X122358041Y-114361323D01*
X122356074Y-114376169D01*
X122353844Y-114390747D01*
X122351352Y-114405057D01*
X122348598Y-114419102D01*
X122345582Y-114432880D01*
X122342303Y-114446393D01*
X122338762Y-114459642D01*
X122334958Y-114472627D01*
X122330892Y-114485349D01*
X122326601Y-114497764D01*
X122322031Y-114509828D01*
X122317183Y-114521541D01*
X122312058Y-114532904D01*
X122306657Y-114543916D01*
X122300981Y-114554578D01*
X122295030Y-114564891D01*
X122288804Y-114574855D01*
X122282305Y-114584469D01*
X122275533Y-114593736D01*
X122268489Y-114602654D01*
X122261174Y-114611224D01*
X122253588Y-114619447D01*
X122245732Y-114627323D01*
X122237607Y-114634853D01*
X122229213Y-114642036D01*
X122220546Y-114648825D01*
X122211599Y-114655174D01*
X122202372Y-114661082D01*
X122192866Y-114666551D01*
X122183079Y-114671580D01*
X122173011Y-114676171D01*
X122162662Y-114680322D01*
X122152031Y-114684035D01*
X122141119Y-114687309D01*
X122129924Y-114690146D01*
X122118447Y-114692546D01*
X122106687Y-114694509D01*
X122094644Y-114696034D01*
X122082317Y-114697124D01*
X122069706Y-114697777D01*
X122056811Y-114697995D01*
X122046637Y-114697858D01*
X122036653Y-114697448D01*
X122026859Y-114696764D01*
X122017256Y-114695807D01*
X122007844Y-114694576D01*
X121998624Y-114693072D01*
X121989596Y-114691295D01*
X121980760Y-114689244D01*
X121972116Y-114686919D01*
X121963665Y-114684321D01*
X121955408Y-114681450D01*
X121947344Y-114678305D01*
X121939474Y-114674886D01*
X121931798Y-114671195D01*
X121924317Y-114667229D01*
X121917031Y-114662990D01*
X121909890Y-114658559D01*
X121902933Y-114654017D01*
X121896160Y-114649363D01*
X121889569Y-114644599D01*
X121883161Y-114639725D01*
X121876936Y-114634740D01*
X121870893Y-114629647D01*
X121865031Y-114624444D01*
X121859351Y-114619132D01*
X121853852Y-114613712D01*
X121848533Y-114608184D01*
X121843395Y-114602548D01*
X121838437Y-114596804D01*
X121833658Y-114590953D01*
X121829059Y-114584996D01*
X121824639Y-114578932D01*
X121820534Y-114584089D01*
X121816345Y-114589111D01*
X121812070Y-114593998D01*
X121807710Y-114598749D01*
X121803263Y-114603363D01*
X121798729Y-114607839D01*
X121794107Y-114612178D01*
X121789396Y-114616378D01*
X121784597Y-114620438D01*
X121779707Y-114624357D01*
X121774726Y-114628136D01*
X121769654Y-114631774D01*
X121764490Y-114635269D01*
X121759233Y-114638621D01*
X121753883Y-114641829D01*
X121748439Y-114644893D01*
X121737544Y-114650686D01*
X121726650Y-114656096D01*
X121715756Y-114661121D01*
X121704862Y-114665759D01*
X121693967Y-114670005D01*
X121683073Y-114673859D01*
X121672179Y-114677316D01*
X121661285Y-114680374D01*
X121650591Y-114683098D01*
X121640300Y-114685557D01*
X121630410Y-114687753D01*
X121620922Y-114689690D01*
X121611837Y-114691371D01*
X121603153Y-114692797D01*
X121594870Y-114693972D01*
X121586990Y-114694899D01*
X121535793Y-114530831D01*
X121539217Y-114529880D01*
X121542524Y-114528811D01*
X121545714Y-114527625D01*
X121548786Y-114526322D01*
X121551741Y-114524901D01*
X121554579Y-114523364D01*
X121557300Y-114521709D01*
X121559903Y-114519937D01*
X121562390Y-114518048D01*
X121564759Y-114516041D01*
X121567011Y-114513918D01*
X121569146Y-114511677D01*
X121571163Y-114509319D01*
X121573064Y-114506844D01*
X121574847Y-114504251D01*
X121576513Y-114501542D01*
X121578078Y-114498734D01*
X121579559Y-114495849D01*
X121580955Y-114492884D01*
X121582265Y-114489840D01*
X121583488Y-114486717D01*
X121584624Y-114483514D01*
X121585673Y-114480230D01*
X121586632Y-114476866D01*
X121587503Y-114473421D01*
X121588283Y-114469895D01*
X121588973Y-114466287D01*
X121589572Y-114462597D01*
X121590078Y-114458825D01*
X121590491Y-114454970D01*
X121590812Y-114451032D01*
X121591037Y-114447011D01*
X121591037Y-114056248D01*
X121840353Y-114056248D01*
X121840353Y-114417722D01*
X121843732Y-114423272D01*
X121847173Y-114428672D01*
X121850674Y-114433922D01*
X121854235Y-114439023D01*
X121857856Y-114443974D01*
X121861538Y-114448776D01*
X121865278Y-114453430D01*
X121869077Y-114457935D01*
X121872935Y-114462293D01*
X121876851Y-114466503D01*
X121880825Y-114470565D01*
X121884857Y-114474481D01*
X121888946Y-114478251D01*
X121893091Y-114481874D01*
X121897293Y-114485351D01*
X121901552Y-114488683D01*
X121905869Y-114491839D01*
X121910247Y-114494789D01*
X121914685Y-114497533D01*
X121919184Y-114500072D01*
X121923743Y-114502406D01*
X121928362Y-114504535D01*
X121933040Y-114506459D01*
X121937776Y-114508180D01*
X121942572Y-114509696D01*
X121947426Y-114511010D01*
X121952337Y-114512120D01*
X121957306Y-114513028D01*
X121962333Y-114513733D01*
X121967416Y-114514236D01*
X121972556Y-114514538D01*
X121977752Y-114514639D01*
X121982451Y-114514549D01*
X121987084Y-114514282D01*
X121991649Y-114513835D01*
X121996147Y-114513210D01*
X122000578Y-114512406D01*
X122004943Y-114511424D01*
X122009240Y-114510263D01*
X122013471Y-114508924D01*
X122017634Y-114507406D01*
X122021731Y-114505709D01*
X122025760Y-114503834D01*
X122029723Y-114501780D01*
X122033618Y-114499548D01*
X122037447Y-114497137D01*
X122041209Y-114494547D01*
X122044903Y-114491779D01*
X122048514Y-114488787D01*
X122052025Y-114485528D01*
X122055435Y-114482001D01*
X122058744Y-114478206D01*
X122061953Y-114474143D01*
X122065062Y-114469812D01*
X122068070Y-114465213D01*
X122070978Y-114460346D01*
X122073785Y-114455212D01*
X122076492Y-114449809D01*
X122079099Y-114444139D01*
X122081605Y-114438201D01*
X122084010Y-114431995D01*
X122086315Y-114425520D01*
X122088520Y-114418779D01*
X122090624Y-114411769D01*
X122094553Y-114396756D01*
X122097950Y-114380295D01*
X122100816Y-114362389D01*
X122103155Y-114343040D01*
X122104969Y-114322251D01*
X122106262Y-114300025D01*
X122107035Y-114276364D01*
X122107293Y-114251273D01*
X122107139Y-114233946D01*
X122106678Y-114217240D01*
X122105910Y-114201155D01*
X122104833Y-114185691D01*
X122103448Y-114170850D01*
X122101755Y-114156632D01*
X122099752Y-114143037D01*
X122097440Y-114130067D01*
X122094818Y-114117722D01*
X122091886Y-114106002D01*
X122088644Y-114094909D01*
X122085091Y-114084444D01*
X122081227Y-114074606D01*
X122077051Y-114065396D01*
X122072563Y-114056816D01*
X122067764Y-114048866D01*
X122062752Y-114041469D01*
X122057540Y-114034546D01*
X122052127Y-114028098D01*
X122046515Y-114022126D01*
X122040703Y-114016629D01*
X122034692Y-114011609D01*
X122028482Y-114007065D01*
X122022073Y-114002997D01*
X122015467Y-113999407D01*
X122008663Y-113996295D01*
X122001661Y-113993660D01*
X121994462Y-113991504D01*
X121987067Y-113989826D01*
X121979475Y-113988628D01*
X121971687Y-113987908D01*
X121963703Y-113987668D01*
X121963464Y-113987668D01*
X121958678Y-113987738D01*
X121953965Y-113987948D01*
X121949324Y-113988298D01*
X121944756Y-113988788D01*
X121940261Y-113989420D01*
X121935838Y-113990192D01*
X121931487Y-113991106D01*
X121927209Y-113992163D01*
X121923004Y-113993361D01*
X121918871Y-113994703D01*
X121914811Y-113996187D01*
X121910823Y-113997815D01*
X121906908Y-113999586D01*
X121903066Y-114001501D01*
X121899296Y-114003561D01*
X121895598Y-114005766D01*
X121891951Y-114008096D01*
X121888331Y-114010533D01*
X121884739Y-114013077D01*
X121881173Y-114015730D01*
X121877634Y-114018491D01*
X121874121Y-114021362D01*
X121870634Y-114024343D01*
X121867172Y-114027435D01*
X121863736Y-114030639D01*
X121860324Y-114033955D01*
X121856936Y-114037384D01*
X121853573Y-114040926D01*
X121850233Y-114044583D01*
X121846917Y-114048356D01*
X121843624Y-114052244D01*
X121840353Y-114056248D01*
X121591037Y-114056248D01*
X121591037Y-113833125D01*
X121812018Y-113833125D01*
X121812018Y-113833363D01*
X121824639Y-113883131D01*
X121829442Y-113878468D01*
X121834384Y-113873945D01*
X121839467Y-113869562D01*
X121844690Y-113865320D01*
X121850054Y-113861219D01*
X121855559Y-113857259D01*
X121861206Y-113853440D01*
X121866995Y-113849764D01*
X121872927Y-113846230D01*
X121879001Y-113842838D01*
X121885218Y-113839590D01*
X121891578Y-113836485D01*
X121898082Y-113833523D01*
X121904730Y-113830706D01*
X121911523Y-113828033D01*
X121918460Y-113825505D01*
X121932480Y-113820895D01*
X121946499Y-113816892D01*
X121960519Y-113813496D01*
X121967528Y-113812027D01*
X121974538Y-113810711D01*
X121981548Y-113809549D01*
X121988558Y-113808541D01*
X121995568Y-113807687D01*
X122002578Y-113806987D01*
X122009587Y-113806442D01*
X122016597Y-113806053D01*
X122023607Y-113805819D01*
X122030617Y-113805741D01*
X122043451Y-113805964D01*
X122056056Y-113806634D01*
X122068434Y-113807750D01*
X122080586Y-113809312D01*
X122092511Y-113811322D01*
X122104211Y-113813777D01*
X122115687Y-113816679D01*
X122126938Y-113820028D01*
X122137967Y-113823823D01*
X122148772Y-113828065D01*
X122159356Y-113832753D01*
X122169719Y-113837887D01*
X122179861Y-113843469D01*
X122189784Y-113849496D01*
X122199487Y-113855970D01*
X122208972Y-113862891D01*
X122218212Y-113870202D01*
X122227178Y-113877848D01*
X122235872Y-113885830D01*
X122244293Y-113894148D01*
X122252442Y-113902802D01*
X122260320Y-113911793D01*
X122267925Y-113921121D01*
X122275260Y-113930786D01*
X122282325Y-113940789D01*
X122289119Y-113951129D01*
X122295643Y-113961808D01*
X122301897Y-113972826D01*
X122307882Y-113984183D01*
X122313598Y-113995879D01*
X122319045Y-114007915D01*
X122324224Y-114020291D01*
X122329111Y-114032868D01*
X122333679Y-114045606D01*
X122337930Y-114058521D01*
X122341864Y-114071629D01*
X122345482Y-114084947D01*
X122348783Y-114098490D01*
X122351768Y-114112275D01*
X122354437Y-114126316D01*
X122356791Y-114140632D01*
X122358830Y-114155236D01*
X122360554Y-114170147D01*
X122361964Y-114185379D01*
X122363060Y-114200948D01*
X122363842Y-114216872D01*
X122364468Y-114249844D01*
X122364445Y-114251273D01*
X122363943Y-114283052D01*
G37*
G36*
X122636732Y-113807852D02*
G01*
X122648963Y-113808472D01*
X122660954Y-113809504D01*
X122672705Y-113810950D01*
X122684216Y-113812808D01*
X122695487Y-113815080D01*
X122706518Y-113817764D01*
X122717309Y-113820862D01*
X122727860Y-113824372D01*
X122738171Y-113828296D01*
X122748242Y-113832632D01*
X122758073Y-113837382D01*
X122767664Y-113842544D01*
X122777015Y-113848120D01*
X122786126Y-113854108D01*
X122794997Y-113860509D01*
X122803608Y-113867332D01*
X122812030Y-113874585D01*
X122820261Y-113882269D01*
X122828301Y-113890383D01*
X122836150Y-113898928D01*
X122843807Y-113907905D01*
X122851273Y-113917314D01*
X122858546Y-113927155D01*
X122865627Y-113937428D01*
X122872515Y-113948134D01*
X122879210Y-113959274D01*
X122885711Y-113970847D01*
X122892019Y-113982854D01*
X122898131Y-113995295D01*
X122904050Y-114008171D01*
X122909773Y-114021482D01*
X122955493Y-113832887D01*
X123256245Y-113832887D01*
X123256245Y-113998622D01*
X123145755Y-113998622D01*
X123145755Y-114503685D01*
X123256245Y-114503685D01*
X123256245Y-114670849D01*
X122730941Y-114670849D01*
X122730941Y-114503447D01*
X122896676Y-114503447D01*
X122896676Y-114263655D01*
X122892920Y-114252069D01*
X122888974Y-114240707D01*
X122884839Y-114229569D01*
X122880513Y-114218657D01*
X122875998Y-114207971D01*
X122871293Y-114197511D01*
X122866399Y-114187279D01*
X122861314Y-114177275D01*
X122856040Y-114167500D01*
X122850576Y-114157955D01*
X122844923Y-114148639D01*
X122839079Y-114139555D01*
X122833046Y-114130702D01*
X122826823Y-114122081D01*
X122820411Y-114113694D01*
X122813808Y-114105540D01*
X122807002Y-114097704D01*
X122800067Y-114090271D01*
X122793002Y-114083240D01*
X122785806Y-114076612D01*
X122778480Y-114070387D01*
X122771021Y-114064565D01*
X122763430Y-114059148D01*
X122755706Y-114054135D01*
X122747848Y-114049526D01*
X122739855Y-114045323D01*
X122731727Y-114041525D01*
X122723462Y-114038132D01*
X122715061Y-114035146D01*
X122706523Y-114032566D01*
X122697846Y-114030392D01*
X122689031Y-114028626D01*
X122689031Y-114183169D01*
X122532821Y-114183169D01*
X122486148Y-113832887D01*
X122493527Y-113830018D01*
X122501020Y-113827306D01*
X122508631Y-113824750D01*
X122516361Y-113822350D01*
X122524214Y-113820106D01*
X122532192Y-113818019D01*
X122540299Y-113816088D01*
X122548537Y-113814313D01*
X122556987Y-113812728D01*
X122565727Y-113811363D01*
X122574757Y-113810215D01*
X122584077Y-113809283D01*
X122593688Y-113808562D01*
X122603589Y-113808051D01*
X122613780Y-113807747D01*
X122624261Y-113807646D01*
X122636732Y-113807852D01*
G37*
G36*
X123256365Y-114670968D02*
G01*
X123256245Y-114671087D01*
X123256245Y-114670849D01*
X123256483Y-114670849D01*
X123256365Y-114670968D01*
G37*
G36*
X124244377Y-114175562D02*
G01*
X124246038Y-114190346D01*
X124247329Y-114205433D01*
X124248251Y-114220841D01*
X124248804Y-114236591D01*
X124248988Y-114252701D01*
X124248798Y-114268881D01*
X124248229Y-114284825D01*
X124247279Y-114300535D01*
X124245949Y-114316009D01*
X124244237Y-114331247D01*
X124242145Y-114346249D01*
X124239670Y-114361015D01*
X124236814Y-114375544D01*
X124233576Y-114389836D01*
X124229955Y-114403890D01*
X124225951Y-114417706D01*
X124221563Y-114431284D01*
X124216792Y-114444623D01*
X124211637Y-114457724D01*
X124206097Y-114470585D01*
X124200173Y-114483206D01*
X124193869Y-114495543D01*
X124187191Y-114507550D01*
X124180138Y-114519226D01*
X124172710Y-114530571D01*
X124164907Y-114541583D01*
X124156728Y-114552263D01*
X124148173Y-114562610D01*
X124139242Y-114572622D01*
X124129934Y-114582299D01*
X124120249Y-114591641D01*
X124110187Y-114600647D01*
X124099747Y-114609316D01*
X124088929Y-114617647D01*
X124077732Y-114625639D01*
X124066156Y-114633293D01*
X124054202Y-114640607D01*
X124041876Y-114647527D01*
X124029187Y-114654001D01*
X124016136Y-114660029D01*
X124002722Y-114665610D01*
X123988945Y-114670745D01*
X123974806Y-114675433D01*
X123960304Y-114679674D01*
X123945438Y-114683469D01*
X123930211Y-114686818D01*
X123914620Y-114689720D01*
X123898666Y-114692176D01*
X123882350Y-114694185D01*
X123865671Y-114695748D01*
X123848630Y-114696864D01*
X123831225Y-114697534D01*
X123813458Y-114697757D01*
X123800111Y-114697631D01*
X123786948Y-114697254D01*
X123773969Y-114696625D01*
X123761174Y-114695744D01*
X123748564Y-114694610D01*
X123736138Y-114693224D01*
X123723896Y-114691584D01*
X123711838Y-114689690D01*
X123699964Y-114687543D01*
X123688275Y-114685141D01*
X123676769Y-114682485D01*
X123665448Y-114679574D01*
X123654311Y-114676407D01*
X123643358Y-114672985D01*
X123632590Y-114669307D01*
X123622005Y-114665372D01*
X123611568Y-114661239D01*
X123601332Y-114656967D01*
X123591295Y-114652555D01*
X123581457Y-114648004D01*
X123571817Y-114643313D01*
X123562375Y-114638482D01*
X123553129Y-114633512D01*
X123544079Y-114628403D01*
X123535224Y-114623154D01*
X123526565Y-114617765D01*
X123518099Y-114612237D01*
X123509826Y-114606570D01*
X123501746Y-114600763D01*
X123493858Y-114594816D01*
X123486161Y-114588730D01*
X123478654Y-114582504D01*
X123578905Y-114446773D01*
X123591383Y-114454441D01*
X123603993Y-114461727D01*
X123616731Y-114468627D01*
X123629595Y-114475140D01*
X123642582Y-114481262D01*
X123655689Y-114486990D01*
X123668912Y-114492322D01*
X123682251Y-114497256D01*
X123695712Y-114501698D01*
X123709304Y-114505556D01*
X123723025Y-114508829D01*
X123736871Y-114511513D01*
X123743840Y-114512634D01*
X123750840Y-114513606D01*
X123757870Y-114514429D01*
X123764929Y-114515104D01*
X123772017Y-114515629D01*
X123779135Y-114516005D01*
X123793456Y-114516305D01*
X123803314Y-114516132D01*
X123812978Y-114515613D01*
X123822445Y-114514747D01*
X123831715Y-114513534D01*
X123840789Y-114511973D01*
X123849666Y-114510064D01*
X123858346Y-114507808D01*
X123866828Y-114505203D01*
X123875111Y-114502249D01*
X123883196Y-114498946D01*
X123891083Y-114495294D01*
X123898770Y-114491291D01*
X123906257Y-114486939D01*
X123913545Y-114482236D01*
X123920633Y-114477181D01*
X123927520Y-114471776D01*
X123934186Y-114465969D01*
X123940524Y-114459710D01*
X123946532Y-114452999D01*
X123952211Y-114445835D01*
X123957560Y-114438220D01*
X123962580Y-114430153D01*
X123967271Y-114421633D01*
X123971633Y-114412662D01*
X123975665Y-114403238D01*
X123979368Y-114393362D01*
X123982742Y-114383035D01*
X123985786Y-114372255D01*
X123988502Y-114361023D01*
X123990888Y-114349339D01*
X123992944Y-114337203D01*
X123994672Y-114324615D01*
X123994908Y-114324377D01*
X123451983Y-114324377D01*
X123451380Y-114319565D01*
X123450822Y-114314591D01*
X123449840Y-114304136D01*
X123449036Y-114292966D01*
X123448411Y-114281038D01*
X123447924Y-114269072D01*
X123447548Y-114257464D01*
X123447306Y-114246212D01*
X123447221Y-114235318D01*
X123447411Y-114218594D01*
X123447980Y-114202177D01*
X123448929Y-114186065D01*
X123449893Y-114174596D01*
X123690347Y-114174596D01*
X123998005Y-114174596D01*
X123996765Y-114161606D01*
X123995280Y-114149068D01*
X123993548Y-114136981D01*
X123991568Y-114125345D01*
X123989339Y-114114160D01*
X123986862Y-114103425D01*
X123984135Y-114093140D01*
X123981157Y-114083305D01*
X123977929Y-114073919D01*
X123974448Y-114064982D01*
X123970715Y-114056493D01*
X123966729Y-114048453D01*
X123962488Y-114040861D01*
X123957993Y-114033716D01*
X123953243Y-114027018D01*
X123948237Y-114020767D01*
X123943001Y-114014930D01*
X123937565Y-114009471D01*
X123931927Y-114004391D01*
X123926087Y-113999690D01*
X123920045Y-113995366D01*
X123913800Y-113991421D01*
X123907352Y-113987853D01*
X123900701Y-113984662D01*
X123893846Y-113981847D01*
X123886787Y-113979410D01*
X123879524Y-113977348D01*
X123872055Y-113975661D01*
X123864382Y-113974350D01*
X123856503Y-113973415D01*
X123848419Y-113972853D01*
X123840128Y-113972666D01*
X123830347Y-113972884D01*
X123820918Y-113973536D01*
X123811840Y-113974622D01*
X123803114Y-113976141D01*
X123798883Y-113977063D01*
X123794740Y-113978093D01*
X123790684Y-113979231D01*
X123786717Y-113980477D01*
X123782837Y-113981830D01*
X123779046Y-113983292D01*
X123775342Y-113984861D01*
X123771726Y-113986537D01*
X123768198Y-113988321D01*
X123764758Y-113990212D01*
X123761406Y-113992210D01*
X123758142Y-113994316D01*
X123754965Y-113996529D01*
X123751877Y-113998848D01*
X123748876Y-114001275D01*
X123745964Y-114003808D01*
X123743139Y-114006449D01*
X123740402Y-114009195D01*
X123737753Y-114012049D01*
X123735192Y-114015009D01*
X123732719Y-114018075D01*
X123730334Y-114021248D01*
X123728037Y-114024526D01*
X123725827Y-114027911D01*
X123721628Y-114034932D01*
X123717691Y-114042242D01*
X123714017Y-114049842D01*
X123710606Y-114057729D01*
X123707459Y-114065904D01*
X123704576Y-114074365D01*
X123701957Y-114083113D01*
X123699604Y-114092145D01*
X123697515Y-114101463D01*
X123695692Y-114111064D01*
X123694134Y-114120949D01*
X123692843Y-114131116D01*
X123691819Y-114141565D01*
X123691061Y-114152295D01*
X123690570Y-114163306D01*
X123690347Y-114174596D01*
X123449893Y-114174596D01*
X123450257Y-114170258D01*
X123451965Y-114154755D01*
X123454052Y-114139555D01*
X123456519Y-114124659D01*
X123459365Y-114110064D01*
X123462591Y-114095771D01*
X123466197Y-114081779D01*
X123470182Y-114068086D01*
X123474546Y-114054693D01*
X123479290Y-114041598D01*
X123484413Y-114028801D01*
X123489916Y-114016302D01*
X123495798Y-114004099D01*
X123502024Y-113992222D01*
X123508557Y-113980702D01*
X123515396Y-113969538D01*
X123522543Y-113958728D01*
X123529997Y-113948274D01*
X123537757Y-113938172D01*
X123545825Y-113928424D01*
X123554199Y-113919028D01*
X123562880Y-113909984D01*
X123571869Y-113901291D01*
X123581164Y-113892948D01*
X123590766Y-113884954D01*
X123600675Y-113877310D01*
X123610891Y-113870013D01*
X123621414Y-113863064D01*
X123632244Y-113856461D01*
X123643353Y-113850275D01*
X123654714Y-113844485D01*
X123666325Y-113839092D01*
X123678187Y-113834096D01*
X123690301Y-113829498D01*
X123702666Y-113825298D01*
X123715282Y-113821496D01*
X123728149Y-113818093D01*
X123741267Y-113815089D01*
X123754637Y-113812485D01*
X123768257Y-113810280D01*
X123782129Y-113808475D01*
X123796252Y-113807071D01*
X123810626Y-113806067D01*
X123825251Y-113805465D01*
X123840128Y-113805264D01*
X123856444Y-113805501D01*
X123872442Y-113806213D01*
X123888122Y-113807397D01*
X123903484Y-113809056D01*
X123918527Y-113811187D01*
X123933253Y-113813791D01*
X123947660Y-113816867D01*
X123961750Y-113820415D01*
X123975521Y-113824435D01*
X123988974Y-113828926D01*
X124002109Y-113833887D01*
X124014926Y-113839320D01*
X124027425Y-113845222D01*
X124039606Y-113851595D01*
X124051468Y-113858437D01*
X124063013Y-113865748D01*
X124074267Y-113873453D01*
X124085171Y-113881476D01*
X124095725Y-113889818D01*
X124105931Y-113898479D01*
X124115789Y-113907460D01*
X124125301Y-113916760D01*
X124134468Y-113926381D01*
X124143291Y-113936322D01*
X124151770Y-113946585D01*
X124159907Y-113957168D01*
X124167703Y-113968073D01*
X124175158Y-113979300D01*
X124182275Y-113990850D01*
X124189054Y-114002722D01*
X124195496Y-114014917D01*
X124201601Y-114027435D01*
X124207353Y-114040155D01*
X124212731Y-114052966D01*
X124217735Y-114065888D01*
X124222367Y-114078941D01*
X124226626Y-114092142D01*
X124230513Y-114105512D01*
X124234028Y-114119070D01*
X124237171Y-114132835D01*
X124239944Y-114146826D01*
X124242345Y-114161062D01*
X124244241Y-114174596D01*
X124244377Y-114175562D01*
G37*
G36*
X124538550Y-113805502D02*
G01*
X124545431Y-113805611D01*
X124552235Y-113805937D01*
X124558961Y-113806480D01*
X124565611Y-113807240D01*
X124572183Y-113808216D01*
X124578679Y-113809408D01*
X124585099Y-113810815D01*
X124591443Y-113812438D01*
X124597712Y-113814275D01*
X124603906Y-113816327D01*
X124610026Y-113818594D01*
X124616071Y-113821074D01*
X124622042Y-113823767D01*
X124627940Y-113826674D01*
X124633764Y-113829793D01*
X124639515Y-113833125D01*
X124645199Y-113836669D01*
X124650822Y-113840337D01*
X124656384Y-113844128D01*
X124661884Y-113848045D01*
X124667323Y-113852087D01*
X124672700Y-113856256D01*
X124678016Y-113860551D01*
X124683270Y-113864974D01*
X124688464Y-113869526D01*
X124693595Y-113874206D01*
X124698666Y-113879016D01*
X124703675Y-113883957D01*
X124708622Y-113889029D01*
X124713509Y-113894233D01*
X124718333Y-113899569D01*
X124723097Y-113905039D01*
X124724916Y-113898715D01*
X124726891Y-113892605D01*
X124729022Y-113886707D01*
X124731308Y-113881022D01*
X124733749Y-113875550D01*
X124736345Y-113870292D01*
X124739094Y-113865249D01*
X124741998Y-113860420D01*
X124745055Y-113855806D01*
X124748265Y-113851407D01*
X124751628Y-113847224D01*
X124755143Y-113843256D01*
X124758811Y-113839505D01*
X124762630Y-113835971D01*
X124766600Y-113832653D01*
X124770722Y-113829553D01*
X124774972Y-113826654D01*
X124779328Y-113823939D01*
X124783791Y-113821409D01*
X124788361Y-113819064D01*
X124793039Y-113816905D01*
X124797824Y-113814932D01*
X124802718Y-113813145D01*
X124807720Y-113811545D01*
X124812831Y-113810132D01*
X124818051Y-113808906D01*
X124823381Y-113807867D01*
X124828820Y-113807017D01*
X124834370Y-113806355D01*
X124840030Y-113805882D01*
X124845802Y-113805597D01*
X124851684Y-113805502D01*
X124858543Y-113805611D01*
X124865280Y-113805937D01*
X124871896Y-113806480D01*
X124878391Y-113807240D01*
X124884766Y-113808216D01*
X124891022Y-113809408D01*
X124897159Y-113810815D01*
X124903178Y-113812438D01*
X124909080Y-113814275D01*
X124914866Y-113816327D01*
X124920536Y-113818594D01*
X124926091Y-113821074D01*
X124931531Y-113823767D01*
X124936857Y-113826674D01*
X124942071Y-113829793D01*
X124947172Y-113833125D01*
X124952215Y-113836666D01*
X124957251Y-113840413D01*
X124962281Y-113844366D01*
X124967305Y-113848525D01*
X124972322Y-113852889D01*
X124977331Y-113857457D01*
X124982332Y-113862230D01*
X124987326Y-113867207D01*
X124992311Y-113872387D01*
X124997288Y-113877771D01*
X125002255Y-113883358D01*
X125007213Y-113889148D01*
X125012161Y-113895139D01*
X125017100Y-113901333D01*
X125022027Y-113907729D01*
X125026944Y-113914326D01*
X125043613Y-113833125D01*
X125226731Y-113833125D01*
X125226731Y-114671563D01*
X125009799Y-114671563D01*
X125009799Y-114053629D01*
X125006648Y-114049736D01*
X125003536Y-114046004D01*
X125000462Y-114042434D01*
X124997424Y-114039025D01*
X124994423Y-114035776D01*
X124991457Y-114032687D01*
X124988526Y-114029758D01*
X124985629Y-114026988D01*
X124982766Y-114024378D01*
X124979936Y-114021926D01*
X124977138Y-114019632D01*
X124974371Y-114017497D01*
X124971634Y-114015519D01*
X124968928Y-114013699D01*
X124966251Y-114012035D01*
X124963603Y-114010528D01*
X124960974Y-114009144D01*
X124958357Y-114007849D01*
X124955750Y-114006644D01*
X124953155Y-114005527D01*
X124950571Y-114004501D01*
X124947998Y-114003563D01*
X124945436Y-114002715D01*
X124942886Y-114001956D01*
X124940346Y-114001286D01*
X124937818Y-114000705D01*
X124935301Y-114000214D01*
X124932795Y-113999812D01*
X124930300Y-113999500D01*
X124927817Y-113999277D01*
X124925344Y-113999143D01*
X124922883Y-113999098D01*
X124919780Y-113999168D01*
X124918279Y-113999255D01*
X124916811Y-113999378D01*
X124915377Y-113999535D01*
X124913976Y-113999727D01*
X124912608Y-113999955D01*
X124911275Y-114000218D01*
X124909974Y-114000516D01*
X124908707Y-114000849D01*
X124907474Y-114001218D01*
X124906274Y-114001622D01*
X124905107Y-114002061D01*
X124903975Y-114002536D01*
X124902875Y-114003047D01*
X124901809Y-114003593D01*
X124900777Y-114004174D01*
X124899778Y-114004791D01*
X124898812Y-114005444D01*
X124897880Y-114006132D01*
X124896982Y-114006857D01*
X124896116Y-114007617D01*
X124895285Y-114008413D01*
X124894487Y-114009244D01*
X124893722Y-114010112D01*
X124892991Y-114011016D01*
X124892293Y-114011955D01*
X124891629Y-114012931D01*
X124890999Y-114013943D01*
X124890401Y-114014991D01*
X124889838Y-114016075D01*
X124889308Y-114017196D01*
X124888311Y-114019573D01*
X124887377Y-114022152D01*
X124886505Y-114024932D01*
X124885695Y-114027915D01*
X124884948Y-114031100D01*
X124884264Y-114034487D01*
X124883086Y-114041871D01*
X124882166Y-114050070D01*
X124881505Y-114059087D01*
X124881106Y-114068924D01*
X124880973Y-114079584D01*
X124880973Y-114671325D01*
X124705713Y-114671325D01*
X124705713Y-114053391D01*
X124702562Y-114049498D01*
X124699450Y-114045766D01*
X124696375Y-114042196D01*
X124693338Y-114038787D01*
X124690336Y-114035538D01*
X124687371Y-114032449D01*
X124684440Y-114029520D01*
X124681543Y-114026750D01*
X124678680Y-114024140D01*
X124675850Y-114021688D01*
X124673051Y-114019394D01*
X124670284Y-114017259D01*
X124667548Y-114015281D01*
X124664842Y-114013460D01*
X124662165Y-114011797D01*
X124659517Y-114010290D01*
X124656888Y-114008906D01*
X124654270Y-114007611D01*
X124651664Y-114006406D01*
X124649069Y-114005289D01*
X124646485Y-114004262D01*
X124643912Y-114003325D01*
X124641350Y-114002476D01*
X124638800Y-114001717D01*
X124636260Y-114001048D01*
X124633732Y-114000467D01*
X124631215Y-113999976D01*
X124628709Y-113999574D01*
X124626214Y-113999262D01*
X124623731Y-113999039D01*
X124621259Y-113998905D01*
X124618797Y-113998860D01*
X124615694Y-113998930D01*
X124614193Y-113999017D01*
X124612725Y-113999140D01*
X124611291Y-113999297D01*
X124609890Y-113999489D01*
X124608522Y-113999717D01*
X124607189Y-113999980D01*
X124605888Y-114000278D01*
X124604621Y-114000611D01*
X124603388Y-114000980D01*
X124602188Y-114001384D01*
X124601021Y-114001823D01*
X124599888Y-114002298D01*
X124598789Y-114002809D01*
X124597723Y-114003355D01*
X124596690Y-114003936D01*
X124595691Y-114004553D01*
X124594726Y-114005206D01*
X124593794Y-114005894D01*
X124592895Y-114006619D01*
X124592030Y-114007379D01*
X124591199Y-114008175D01*
X124590401Y-114009006D01*
X124589636Y-114009874D01*
X124588905Y-114010778D01*
X124588207Y-114011717D01*
X124587543Y-114012693D01*
X124586912Y-114013705D01*
X124586315Y-114014753D01*
X124585752Y-114015837D01*
X124585221Y-114016957D01*
X124584225Y-114019335D01*
X124583291Y-114021914D01*
X124582418Y-114024694D01*
X124581609Y-114027677D01*
X124580861Y-114030862D01*
X124580177Y-114034249D01*
X124579000Y-114041633D01*
X124578080Y-114049832D01*
X124577419Y-114058849D01*
X124577020Y-114068686D01*
X124576887Y-114079346D01*
X124576887Y-114671087D01*
X124363051Y-114671087D01*
X124363051Y-114050771D01*
X124363221Y-114034885D01*
X124363731Y-114019552D01*
X124364580Y-114004773D01*
X124365767Y-113990548D01*
X124367292Y-113976879D01*
X124369154Y-113963765D01*
X124371352Y-113951209D01*
X124373885Y-113939210D01*
X124376754Y-113927769D01*
X124379957Y-113916886D01*
X124383493Y-113906564D01*
X124387362Y-113896801D01*
X124391563Y-113887599D01*
X124396095Y-113878959D01*
X124400958Y-113870882D01*
X124406151Y-113863367D01*
X124411691Y-113856318D01*
X124417593Y-113849726D01*
X124423857Y-113843592D01*
X124430485Y-113837914D01*
X124437475Y-113832692D01*
X124444828Y-113827926D01*
X124452544Y-113823615D01*
X124460623Y-113819760D01*
X124469064Y-113816360D01*
X124477868Y-113813414D01*
X124487035Y-113810922D01*
X124496565Y-113808885D01*
X124506457Y-113807300D01*
X124516712Y-113806169D01*
X124527330Y-113805490D01*
X124538311Y-113805264D01*
X124538550Y-113805502D01*
G37*
G36*
X126151559Y-114283052D02*
G01*
X126149985Y-114315172D01*
X126147362Y-114346209D01*
X126145657Y-114361323D01*
X126143690Y-114376169D01*
X126141460Y-114390747D01*
X126138968Y-114405057D01*
X126136214Y-114419102D01*
X126133197Y-114432880D01*
X126129918Y-114446393D01*
X126126377Y-114459642D01*
X126122574Y-114472627D01*
X126118508Y-114485349D01*
X126114216Y-114497764D01*
X126109646Y-114509828D01*
X126104798Y-114521541D01*
X126099674Y-114532904D01*
X126094273Y-114543916D01*
X126088596Y-114554578D01*
X126082645Y-114564891D01*
X126076419Y-114574855D01*
X126069920Y-114584469D01*
X126063148Y-114593736D01*
X126056104Y-114602654D01*
X126048789Y-114611224D01*
X126041203Y-114619447D01*
X126033347Y-114627323D01*
X126025222Y-114634853D01*
X126016829Y-114642036D01*
X126008161Y-114648825D01*
X125999214Y-114655174D01*
X125989988Y-114661082D01*
X125980481Y-114666551D01*
X125970694Y-114671580D01*
X125960626Y-114676171D01*
X125950277Y-114680322D01*
X125939646Y-114684035D01*
X125928734Y-114687309D01*
X125917539Y-114690146D01*
X125906062Y-114692546D01*
X125894302Y-114694509D01*
X125882259Y-114696034D01*
X125869932Y-114697124D01*
X125857321Y-114697777D01*
X125844426Y-114697995D01*
X125834252Y-114697858D01*
X125824268Y-114697448D01*
X125814474Y-114696764D01*
X125804871Y-114695807D01*
X125795460Y-114694576D01*
X125786239Y-114693072D01*
X125777211Y-114691295D01*
X125768375Y-114689244D01*
X125759731Y-114686919D01*
X125751281Y-114684321D01*
X125743023Y-114681450D01*
X125734959Y-114678305D01*
X125727089Y-114674886D01*
X125719414Y-114671195D01*
X125711933Y-114667229D01*
X125704647Y-114662990D01*
X125697505Y-114658559D01*
X125690548Y-114654017D01*
X125683775Y-114649363D01*
X125677184Y-114644599D01*
X125670776Y-114639725D01*
X125664551Y-114634740D01*
X125658507Y-114629647D01*
X125652646Y-114624444D01*
X125646966Y-114619132D01*
X125641467Y-114613712D01*
X125636148Y-114608184D01*
X125631010Y-114602548D01*
X125626052Y-114596804D01*
X125621273Y-114590953D01*
X125616674Y-114584996D01*
X125612254Y-114578932D01*
X125608149Y-114584089D01*
X125603960Y-114589111D01*
X125599685Y-114593998D01*
X125595325Y-114598749D01*
X125590878Y-114603363D01*
X125586344Y-114607839D01*
X125581722Y-114612178D01*
X125577011Y-114616378D01*
X125572212Y-114620438D01*
X125567322Y-114624357D01*
X125562341Y-114628136D01*
X125557269Y-114631774D01*
X125552105Y-114635269D01*
X125546849Y-114638621D01*
X125541499Y-114641829D01*
X125536054Y-114644893D01*
X125525160Y-114650686D01*
X125514266Y-114656096D01*
X125503371Y-114661121D01*
X125492477Y-114665759D01*
X125481583Y-114670005D01*
X125470689Y-114673859D01*
X125459794Y-114677316D01*
X125448900Y-114680374D01*
X125438207Y-114683098D01*
X125427915Y-114685557D01*
X125418026Y-114687753D01*
X125408538Y-114689690D01*
X125399452Y-114691371D01*
X125390768Y-114692797D01*
X125382486Y-114693972D01*
X125374605Y-114694899D01*
X125323409Y-114530831D01*
X125326833Y-114529880D01*
X125330139Y-114528811D01*
X125333329Y-114527625D01*
X125336401Y-114526322D01*
X125339357Y-114524901D01*
X125342195Y-114523364D01*
X125344915Y-114521709D01*
X125347519Y-114519937D01*
X125350005Y-114518048D01*
X125352374Y-114516041D01*
X125354626Y-114513918D01*
X125356761Y-114511677D01*
X125358779Y-114509319D01*
X125360679Y-114506844D01*
X125362462Y-114504251D01*
X125364128Y-114501542D01*
X125365693Y-114498734D01*
X125367174Y-114495849D01*
X125368570Y-114492884D01*
X125369880Y-114489840D01*
X125371104Y-114486717D01*
X125372240Y-114483514D01*
X125373289Y-114480230D01*
X125374248Y-114476866D01*
X125375119Y-114473421D01*
X125375899Y-114469895D01*
X125376589Y-114466287D01*
X125377188Y-114462597D01*
X125377694Y-114458825D01*
X125378108Y-114454970D01*
X125378428Y-114451032D01*
X125378654Y-114447011D01*
X125378654Y-114056248D01*
X125627970Y-114056248D01*
X125627970Y-114417722D01*
X125631349Y-114423272D01*
X125634790Y-114428672D01*
X125638291Y-114433922D01*
X125641852Y-114439023D01*
X125645474Y-114443974D01*
X125649155Y-114448776D01*
X125652895Y-114453430D01*
X125656694Y-114457935D01*
X125660552Y-114462293D01*
X125664468Y-114466503D01*
X125668442Y-114470565D01*
X125672474Y-114474481D01*
X125676563Y-114478251D01*
X125680708Y-114481874D01*
X125684910Y-114485351D01*
X125689169Y-114488683D01*
X125693485Y-114491839D01*
X125697863Y-114494789D01*
X125702302Y-114497533D01*
X125706801Y-114500072D01*
X125711360Y-114502406D01*
X125715978Y-114504535D01*
X125720656Y-114506459D01*
X125725393Y-114508180D01*
X125730189Y-114509696D01*
X125735042Y-114511010D01*
X125739954Y-114512120D01*
X125744923Y-114513028D01*
X125749950Y-114513733D01*
X125755033Y-114514236D01*
X125760172Y-114514538D01*
X125765368Y-114514639D01*
X125770068Y-114514549D01*
X125774700Y-114514282D01*
X125779265Y-114513835D01*
X125783764Y-114513210D01*
X125788195Y-114512406D01*
X125792559Y-114511424D01*
X125796857Y-114510263D01*
X125801087Y-114508924D01*
X125805251Y-114507406D01*
X125809347Y-114505709D01*
X125813377Y-114503834D01*
X125817339Y-114501780D01*
X125821235Y-114499548D01*
X125825063Y-114497137D01*
X125828825Y-114494547D01*
X125832520Y-114491779D01*
X125836131Y-114488787D01*
X125839641Y-114485528D01*
X125843051Y-114482001D01*
X125846361Y-114478206D01*
X125849570Y-114474143D01*
X125852679Y-114469812D01*
X125855687Y-114465213D01*
X125858594Y-114460346D01*
X125861402Y-114455212D01*
X125864109Y-114449809D01*
X125866715Y-114444139D01*
X125869221Y-114438201D01*
X125871626Y-114431995D01*
X125873931Y-114425520D01*
X125876136Y-114418779D01*
X125878240Y-114411769D01*
X125882169Y-114396756D01*
X125885566Y-114380295D01*
X125888432Y-114362389D01*
X125890771Y-114343040D01*
X125892585Y-114322251D01*
X125893878Y-114300025D01*
X125894651Y-114276364D01*
X125894908Y-114251273D01*
X125894752Y-114233946D01*
X125894284Y-114217240D01*
X125893505Y-114201155D01*
X125892416Y-114185691D01*
X125891016Y-114170850D01*
X125889308Y-114156632D01*
X125887291Y-114143037D01*
X125884967Y-114130067D01*
X125882335Y-114117722D01*
X125879398Y-114106002D01*
X125876155Y-114094909D01*
X125872607Y-114084444D01*
X125868754Y-114074606D01*
X125864599Y-114065396D01*
X125860140Y-114056816D01*
X125855380Y-114048866D01*
X125850368Y-114041469D01*
X125845156Y-114034546D01*
X125839743Y-114028098D01*
X125834131Y-114022126D01*
X125828319Y-114016629D01*
X125822308Y-114011609D01*
X125816098Y-114007065D01*
X125809690Y-114002997D01*
X125803083Y-113999407D01*
X125796279Y-113996295D01*
X125789277Y-113993660D01*
X125782078Y-113991504D01*
X125774683Y-113989826D01*
X125767091Y-113988628D01*
X125759303Y-113987908D01*
X125751319Y-113987668D01*
X125751081Y-113987668D01*
X125746296Y-113987738D01*
X125741582Y-113987948D01*
X125736942Y-113988298D01*
X125732374Y-113988788D01*
X125727878Y-113989420D01*
X125723455Y-113990192D01*
X125719105Y-113991106D01*
X125714827Y-113992163D01*
X125710621Y-113993361D01*
X125706488Y-113994703D01*
X125702428Y-113996187D01*
X125698441Y-113997815D01*
X125694525Y-113999586D01*
X125690683Y-114001501D01*
X125686913Y-114003561D01*
X125683215Y-114005766D01*
X125679568Y-114008096D01*
X125675948Y-114010533D01*
X125672356Y-114013077D01*
X125668790Y-114015730D01*
X125665251Y-114018491D01*
X125661738Y-114021362D01*
X125658251Y-114024343D01*
X125654789Y-114027435D01*
X125651353Y-114030639D01*
X125647941Y-114033955D01*
X125644553Y-114037384D01*
X125641190Y-114040926D01*
X125637850Y-114044583D01*
X125634534Y-114048356D01*
X125631241Y-114052244D01*
X125627970Y-114056248D01*
X125378654Y-114056248D01*
X125378654Y-113833125D01*
X125599634Y-113833125D01*
X125599633Y-113833363D01*
X125612254Y-113883131D01*
X125617056Y-113878468D01*
X125621999Y-113873945D01*
X125627081Y-113869562D01*
X125632305Y-113865320D01*
X125637669Y-113861219D01*
X125643174Y-113857259D01*
X125648821Y-113853440D01*
X125654610Y-113849764D01*
X125660542Y-113846230D01*
X125666616Y-113842838D01*
X125672833Y-113839590D01*
X125679193Y-113836485D01*
X125685697Y-113833523D01*
X125692345Y-113830706D01*
X125699138Y-113828033D01*
X125706075Y-113825505D01*
X125720095Y-113820895D01*
X125734114Y-113816892D01*
X125748134Y-113813496D01*
X125755144Y-113812027D01*
X125762154Y-113810711D01*
X125769163Y-113809549D01*
X125776173Y-113808541D01*
X125783183Y-113807687D01*
X125790193Y-113806987D01*
X125797203Y-113806442D01*
X125804212Y-113806053D01*
X125811222Y-113805819D01*
X125818232Y-113805741D01*
X125831066Y-113805964D01*
X125843672Y-113806634D01*
X125856050Y-113807750D01*
X125868201Y-113809312D01*
X125880127Y-113811322D01*
X125891827Y-113813777D01*
X125903302Y-113816679D01*
X125914554Y-113820028D01*
X125925582Y-113823823D01*
X125936388Y-113828065D01*
X125946972Y-113832753D01*
X125957335Y-113837887D01*
X125967477Y-113843469D01*
X125977399Y-113849496D01*
X125987103Y-113855970D01*
X125996588Y-113862891D01*
X126005827Y-113870202D01*
X126014794Y-113877848D01*
X126023487Y-113885830D01*
X126031908Y-113894148D01*
X126040058Y-113902802D01*
X126047935Y-113911793D01*
X126055541Y-113921121D01*
X126062876Y-113930786D01*
X126069940Y-113940789D01*
X126076734Y-113951129D01*
X126083258Y-113961808D01*
X126089512Y-113972826D01*
X126095497Y-113984183D01*
X126101214Y-113995879D01*
X126106661Y-114007915D01*
X126111840Y-114020291D01*
X126116727Y-114032868D01*
X126121295Y-114045606D01*
X126125546Y-114058521D01*
X126129480Y-114071629D01*
X126133098Y-114084947D01*
X126136399Y-114098490D01*
X126139383Y-114112275D01*
X126142053Y-114126316D01*
X126144406Y-114140632D01*
X126146445Y-114155236D01*
X126148170Y-114170147D01*
X126149580Y-114185379D01*
X126150676Y-114200948D01*
X126151458Y-114216872D01*
X126152084Y-114249844D01*
X126152061Y-114251273D01*
X126151559Y-114283052D01*
G37*
G36*
X126632922Y-113805493D02*
G01*
X126649364Y-113806179D01*
X126665517Y-113807322D01*
X126681380Y-113808922D01*
X126696955Y-113810978D01*
X126712241Y-113813489D01*
X126727239Y-113816457D01*
X126741950Y-113819879D01*
X126756372Y-113823757D01*
X126770508Y-113828089D01*
X126784357Y-113832875D01*
X126797920Y-113838115D01*
X126811197Y-113843808D01*
X126824188Y-113849954D01*
X126836893Y-113856553D01*
X126849314Y-113863605D01*
X126861417Y-113871056D01*
X126873168Y-113878852D01*
X126884567Y-113886994D01*
X126895615Y-113895480D01*
X126906311Y-113904312D01*
X126916655Y-113913487D01*
X126926648Y-113923007D01*
X126936289Y-113932870D01*
X126945579Y-113943076D01*
X126954517Y-113953625D01*
X126963103Y-113964517D01*
X126971338Y-113975751D01*
X126979221Y-113987327D01*
X126986753Y-113999244D01*
X126993933Y-114011502D01*
X127000762Y-114024101D01*
X127007208Y-114036982D01*
X127013240Y-114050087D01*
X127018859Y-114063416D01*
X127024064Y-114076969D01*
X127028855Y-114090746D01*
X127033231Y-114104749D01*
X127037191Y-114118977D01*
X127040737Y-114133430D01*
X127043866Y-114148110D01*
X127046580Y-114163016D01*
X127048877Y-114178149D01*
X127050757Y-114193509D01*
X127052219Y-114209096D01*
X127053265Y-114224911D01*
X127053892Y-114240954D01*
X127054102Y-114257226D01*
X127053898Y-114273486D01*
X127053287Y-114289495D01*
X127052268Y-114305253D01*
X127050842Y-114320760D01*
X127049009Y-114336016D01*
X127046768Y-114351021D01*
X127044120Y-114365774D01*
X127041064Y-114380277D01*
X127037601Y-114394528D01*
X127033731Y-114408528D01*
X127029453Y-114422277D01*
X127024767Y-114435775D01*
X127019675Y-114449021D01*
X127014175Y-114462017D01*
X127008267Y-114474761D01*
X127001952Y-114487254D01*
X126995300Y-114499494D01*
X126988290Y-114511388D01*
X126980924Y-114522937D01*
X126973202Y-114534143D01*
X126965124Y-114545005D01*
X126956691Y-114555525D01*
X126947903Y-114565703D01*
X126938760Y-114575539D01*
X126929262Y-114585036D01*
X126919411Y-114594192D01*
X126909205Y-114603010D01*
X126898647Y-114611489D01*
X126887735Y-114619630D01*
X126876471Y-114627435D01*
X126864854Y-114634903D01*
X126852886Y-114642036D01*
X126840596Y-114648783D01*
X126828016Y-114655095D01*
X126815144Y-114660972D01*
X126801979Y-114666414D01*
X126788522Y-114671420D01*
X126774771Y-114675991D01*
X126760725Y-114680126D01*
X126746384Y-114683827D01*
X126731748Y-114687092D01*
X126716815Y-114689921D01*
X126701585Y-114692315D01*
X126686057Y-114694274D01*
X126670230Y-114695798D01*
X126654104Y-114696886D01*
X126637679Y-114697539D01*
X126620952Y-114697757D01*
X126608791Y-114697631D01*
X126596775Y-114697256D01*
X126584904Y-114696630D01*
X126573178Y-114695755D01*
X126561598Y-114694632D01*
X126550162Y-114693261D01*
X126538872Y-114691644D01*
X126527726Y-114689780D01*
X126516726Y-114687670D01*
X126505871Y-114685316D01*
X126495161Y-114682717D01*
X126484596Y-114679875D01*
X126474176Y-114676790D01*
X126463901Y-114673463D01*
X126453772Y-114669895D01*
X126443787Y-114666086D01*
X126433970Y-114662096D01*
X126424342Y-114657982D01*
X126414904Y-114653745D01*
X126405654Y-114649384D01*
X126396592Y-114644899D01*
X126387718Y-114640289D01*
X126379033Y-114635555D01*
X126370534Y-114630695D01*
X126362222Y-114625710D01*
X126354097Y-114620598D01*
X126346159Y-114615361D01*
X126338406Y-114609997D01*
X126330838Y-114604506D01*
X126323456Y-114598887D01*
X126316259Y-114593141D01*
X126309246Y-114587267D01*
X126420451Y-114429390D01*
X126431634Y-114437080D01*
X126442857Y-114444429D01*
X126454113Y-114451432D01*
X126465397Y-114458084D01*
X126476703Y-114464379D01*
X126488026Y-114470310D01*
X126499360Y-114475874D01*
X126510700Y-114481063D01*
X126516393Y-114483527D01*
X126522131Y-114485830D01*
X126527914Y-114487971D01*
X126533742Y-114489952D01*
X126539617Y-114491772D01*
X126545538Y-114493432D01*
X126551506Y-114494932D01*
X126557521Y-114496273D01*
X126563584Y-114497455D01*
X126569694Y-114498478D01*
X126575852Y-114499343D01*
X126582059Y-114500050D01*
X126588315Y-114500599D01*
X126594620Y-114500991D01*
X126600974Y-114501226D01*
X126607379Y-114501304D01*
X126607617Y-114500828D01*
X126614183Y-114500741D01*
X126620666Y-114500481D01*
X126627064Y-114500047D01*
X126633379Y-114499440D01*
X126639611Y-114498658D01*
X126645758Y-114497701D01*
X126651822Y-114496569D01*
X126657802Y-114495261D01*
X126663698Y-114493778D01*
X126669511Y-114492119D01*
X126675240Y-114490283D01*
X126680885Y-114488270D01*
X126686447Y-114486080D01*
X126691924Y-114483713D01*
X126697318Y-114481167D01*
X126702629Y-114478444D01*
X126707830Y-114475511D01*
X126712897Y-114472338D01*
X126717829Y-114468925D01*
X126722624Y-114465273D01*
X126727283Y-114461380D01*
X126731804Y-114457247D01*
X126736187Y-114452874D01*
X126740431Y-114448261D01*
X126744536Y-114443409D01*
X126748501Y-114438316D01*
X126752324Y-114432983D01*
X126756006Y-114427411D01*
X126759546Y-114421598D01*
X126762942Y-114415545D01*
X126766195Y-114409253D01*
X126769304Y-114402720D01*
X126772287Y-114395914D01*
X126775075Y-114388801D01*
X126777669Y-114381382D01*
X126780068Y-114373658D01*
X126782273Y-114365627D01*
X126784285Y-114357292D01*
X126786103Y-114348651D01*
X126787729Y-114339706D01*
X126789162Y-114330457D01*
X126790403Y-114320904D01*
X126792309Y-114300888D01*
X126793451Y-114279661D01*
X126793831Y-114257226D01*
X126793630Y-114239908D01*
X126793027Y-114223226D01*
X126792021Y-114207180D01*
X126790612Y-114191771D01*
X126788801Y-114176998D01*
X126786585Y-114162861D01*
X126783966Y-114149361D01*
X126780942Y-114136496D01*
X126777514Y-114124268D01*
X126773681Y-114112676D01*
X126769442Y-114101721D01*
X126764798Y-114091401D01*
X126759748Y-114081718D01*
X126754291Y-114072671D01*
X126748428Y-114064261D01*
X126742158Y-114056486D01*
X126735555Y-114049264D01*
X126728697Y-114042511D01*
X126721582Y-114036226D01*
X126714211Y-114030408D01*
X126706586Y-114025058D01*
X126698705Y-114020175D01*
X126690570Y-114015758D01*
X126682180Y-114011808D01*
X126673536Y-114008324D01*
X126664639Y-114005306D01*
X126655489Y-114002753D01*
X126646085Y-114000665D01*
X126636429Y-113999041D01*
X126626521Y-113997882D01*
X126616362Y-113997187D01*
X126605950Y-113996955D01*
X126599579Y-113997022D01*
X126593237Y-113997222D01*
X126586922Y-113997555D01*
X126580635Y-113998019D01*
X126574375Y-113998615D01*
X126568144Y-113999341D01*
X126561941Y-114000197D01*
X126555765Y-114001182D01*
X126549618Y-114002295D01*
X126543498Y-114003536D01*
X126537407Y-114004904D01*
X126531343Y-114006398D01*
X126519299Y-114009763D01*
X126507366Y-114013624D01*
X126495568Y-114018022D01*
X126483926Y-114022825D01*
X126472440Y-114028036D01*
X126461111Y-114033656D01*
X126449937Y-114039690D01*
X126438920Y-114046139D01*
X126428060Y-114053007D01*
X126417355Y-114060296D01*
X126309246Y-113910278D01*
X126317105Y-113903859D01*
X126325053Y-113897642D01*
X126333092Y-113891626D01*
X126341222Y-113885810D01*
X126349445Y-113880196D01*
X126357760Y-113874782D01*
X126366168Y-113869569D01*
X126374671Y-113864558D01*
X126383269Y-113859747D01*
X126391962Y-113855137D01*
X126400752Y-113850728D01*
X126409639Y-113846520D01*
X126418623Y-113842512D01*
X126427705Y-113838706D01*
X126436887Y-113835101D01*
X126446168Y-113831696D01*
X126455581Y-113828496D01*
X126465155Y-113825501D01*
X126474891Y-113822714D01*
X126484789Y-113820132D01*
X126505071Y-113815589D01*
X126526000Y-113811872D01*
X126547576Y-113808981D01*
X126569800Y-113806916D01*
X126592671Y-113805677D01*
X126616190Y-113805264D01*
X126632922Y-113805493D01*
G37*
G36*
X128760743Y-113995526D02*
G01*
X129032920Y-113870749D01*
X129106262Y-114095539D01*
X128811940Y-114154832D01*
X129013870Y-114376526D01*
X128823608Y-114513924D01*
X128675971Y-114255083D01*
X128528333Y-114513924D01*
X128338071Y-114376526D01*
X128540001Y-114154832D01*
X128245679Y-114095539D01*
X128319021Y-113870749D01*
X128591198Y-113995526D01*
X128557146Y-113698108D01*
X128793842Y-113698108D01*
X128794557Y-113698108D01*
X128760743Y-113995526D01*
G37*
G36*
X129831591Y-114758717D02*
G01*
X129636567Y-114847776D01*
X128974579Y-113470699D01*
X129167937Y-113381640D01*
X129831591Y-114758717D01*
G37*
D11*
X117083332Y-81907200D02*
X116940475Y-81954819D01*
X116940475Y-81954819D02*
X116702380Y-81954819D01*
X116702380Y-81954819D02*
X116607142Y-81907200D01*
X116607142Y-81907200D02*
X116559523Y-81859580D01*
X116559523Y-81859580D02*
X116511904Y-81764342D01*
X116511904Y-81764342D02*
X116511904Y-81669104D01*
X116511904Y-81669104D02*
X116559523Y-81573866D01*
X116559523Y-81573866D02*
X116607142Y-81526247D01*
X116607142Y-81526247D02*
X116702380Y-81478628D01*
X116702380Y-81478628D02*
X116892856Y-81431009D01*
X116892856Y-81431009D02*
X116988094Y-81383390D01*
X116988094Y-81383390D02*
X117035713Y-81335771D01*
X117035713Y-81335771D02*
X117083332Y-81240533D01*
X117083332Y-81240533D02*
X117083332Y-81145295D01*
X117083332Y-81145295D02*
X117035713Y-81050057D01*
X117035713Y-81050057D02*
X116988094Y-81002438D01*
X116988094Y-81002438D02*
X116892856Y-80954819D01*
X116892856Y-80954819D02*
X116654761Y-80954819D01*
X116654761Y-80954819D02*
X116511904Y-81002438D01*
X116178570Y-80954819D02*
X115940475Y-81954819D01*
X115940475Y-81954819D02*
X115749999Y-81240533D01*
X115749999Y-81240533D02*
X115559523Y-81954819D01*
X115559523Y-81954819D02*
X115321428Y-80954819D01*
X114416666Y-81954819D02*
X114988094Y-81954819D01*
X114702380Y-81954819D02*
X114702380Y-80954819D01*
X114702380Y-80954819D02*
X114797618Y-81097676D01*
X114797618Y-81097676D02*
X114892856Y-81192914D01*
X114892856Y-81192914D02*
X114988094Y-81240533D01*
X164833333Y-84184819D02*
X164833333Y-84899104D01*
X164833333Y-84899104D02*
X164880952Y-85041961D01*
X164880952Y-85041961D02*
X164976190Y-85137200D01*
X164976190Y-85137200D02*
X165119047Y-85184819D01*
X165119047Y-85184819D02*
X165214285Y-85184819D01*
X163833333Y-85184819D02*
X164404761Y-85184819D01*
X164119047Y-85184819D02*
X164119047Y-84184819D01*
X164119047Y-84184819D02*
X164214285Y-84327676D01*
X164214285Y-84327676D02*
X164309523Y-84422914D01*
X164309523Y-84422914D02*
X164404761Y-84470533D01*
X117083332Y-92407200D02*
X116940475Y-92454819D01*
X116940475Y-92454819D02*
X116702380Y-92454819D01*
X116702380Y-92454819D02*
X116607142Y-92407200D01*
X116607142Y-92407200D02*
X116559523Y-92359580D01*
X116559523Y-92359580D02*
X116511904Y-92264342D01*
X116511904Y-92264342D02*
X116511904Y-92169104D01*
X116511904Y-92169104D02*
X116559523Y-92073866D01*
X116559523Y-92073866D02*
X116607142Y-92026247D01*
X116607142Y-92026247D02*
X116702380Y-91978628D01*
X116702380Y-91978628D02*
X116892856Y-91931009D01*
X116892856Y-91931009D02*
X116988094Y-91883390D01*
X116988094Y-91883390D02*
X117035713Y-91835771D01*
X117035713Y-91835771D02*
X117083332Y-91740533D01*
X117083332Y-91740533D02*
X117083332Y-91645295D01*
X117083332Y-91645295D02*
X117035713Y-91550057D01*
X117035713Y-91550057D02*
X116988094Y-91502438D01*
X116988094Y-91502438D02*
X116892856Y-91454819D01*
X116892856Y-91454819D02*
X116654761Y-91454819D01*
X116654761Y-91454819D02*
X116511904Y-91502438D01*
X116178570Y-91454819D02*
X115940475Y-92454819D01*
X115940475Y-92454819D02*
X115749999Y-91740533D01*
X115749999Y-91740533D02*
X115559523Y-92454819D01*
X115559523Y-92454819D02*
X115321428Y-91454819D01*
X114988094Y-91550057D02*
X114940475Y-91502438D01*
X114940475Y-91502438D02*
X114845237Y-91454819D01*
X114845237Y-91454819D02*
X114607142Y-91454819D01*
X114607142Y-91454819D02*
X114511904Y-91502438D01*
X114511904Y-91502438D02*
X114464285Y-91550057D01*
X114464285Y-91550057D02*
X114416666Y-91645295D01*
X114416666Y-91645295D02*
X114416666Y-91740533D01*
X114416666Y-91740533D02*
X114464285Y-91883390D01*
X114464285Y-91883390D02*
X115035713Y-92454819D01*
X115035713Y-92454819D02*
X114416666Y-92454819D01*
D12*
%TO.C,SW1*%
X112250000Y-86500000D02*
X112250000Y-85000000D01*
X113500000Y-82500000D02*
X118000000Y-82500000D01*
X118000000Y-89000000D02*
X113500000Y-89000000D01*
X119250000Y-85000000D02*
X119250000Y-86500000D01*
%TO.C,J1*%
X163120000Y-88380000D02*
X163120000Y-106270000D01*
X165880000Y-85730000D02*
X164500000Y-85730000D01*
X165880000Y-87110000D02*
X165880000Y-85730000D01*
X165880000Y-88380000D02*
X163120000Y-88380000D01*
X165880000Y-88380000D02*
X165880000Y-106270000D01*
X165880000Y-106270000D02*
X163120000Y-106270000D01*
%TO.C,SW2*%
X112250000Y-97000000D02*
X112250000Y-95500000D01*
X113500000Y-93000000D02*
X118000000Y-93000000D01*
X118000000Y-99500000D02*
X113500000Y-99500000D01*
X119250000Y-95500000D02*
X119250000Y-97000000D01*
%TD*%
M02*
